<svg width="129" height="38" viewBox="0 0 129 38" fill="none" xmlns="http://www.w3.org/2000/svg">
<path d="M26.3274 9.08035C26.1364 8.88294 25.9092 8.72639 25.6588 8.61975C25.4085 8.51312 25.14 8.45853 24.8689 8.45914H20.7479V7.40176C20.7479 5.43872 19.988 3.55609 18.6356 2.16801C17.2831 0.779935 15.4487 0.00012207 13.536 0.00012207C11.6233 0.00012207 9.78895 0.779935 8.43647 2.16801C7.08398 3.55609 6.32416 5.43872 6.32416 7.40176V8.45914H2.20311C1.65662 8.45914 1.13252 8.68194 0.746093 9.07854C0.359669 9.47513 0.142578 10.013 0.142578 10.5739V24.8485C0.142578 27.4258 2.2675 29.6067 4.77877 29.6067H22.2933C23.508 29.6071 24.6747 29.1196 25.5437 28.2486C25.9811 27.8204 26.3294 27.3056 26.5675 26.7355C26.8057 26.1653 26.9288 25.5515 26.9295 24.9311V10.5739C26.9303 10.2965 26.8775 10.0216 26.7742 9.76523C26.6708 9.50887 26.519 9.27608 26.3274 9.08035ZM18.4613 15.993L12.6918 23.3946C12.5971 23.5161 12.4774 23.6146 12.3413 23.6832C12.2051 23.7517 12.0559 23.7886 11.9043 23.7911H11.8876C11.7388 23.7911 11.5917 23.758 11.4566 23.6942C11.3214 23.6303 11.2013 23.5371 11.1046 23.421L8.63196 20.4551C8.54401 20.3496 8.47719 20.2273 8.43529 20.0952C8.39339 19.9632 8.37724 19.824 8.38776 19.6855C8.39829 19.5471 8.43528 19.4121 8.49662 19.2884C8.55796 19.1646 8.64246 19.0544 8.74529 18.9642C8.84811 18.8739 8.96725 18.8053 9.0959 18.7623C9.22456 18.7193 9.3602 18.7028 9.49509 18.7136C9.62999 18.7244 9.76149 18.7623 9.88208 18.8253C10.0027 18.8882 10.11 18.975 10.198 19.0805L11.8618 21.0756L16.8528 14.6712C17.0236 14.4521 17.2722 14.3117 17.5439 14.2807C17.8156 14.2497 18.0882 14.3307 18.3016 14.506C18.5151 14.6813 18.652 14.9364 18.6822 15.2153C18.7124 15.4941 18.6334 15.7739 18.4626 15.993H18.4613ZM18.6873 8.45914H8.38469V7.40176C8.38469 5.99959 8.92742 4.65485 9.89348 3.66337C10.8595 2.67189 12.1698 2.11488 13.536 2.11488C14.9022 2.11488 16.2125 2.67189 17.1785 3.66337C18.1446 4.65485 18.6873 5.99959 18.6873 7.40176V8.45914Z" fill="#6AD368"/>
<path d="M37.8415 22.3739L34.9654 24.4041C35.3978 25.3251 35.9993 26.1804 36.77 26.97C37.5407 27.7595 38.443 28.3892 39.4769 28.8591C40.5296 29.3103 41.6574 29.5359 42.8605 29.5359C43.7628 29.5359 44.6181 29.3949 45.4264 29.1129C46.2535 28.8497 46.996 28.4644 47.6539 27.9568C48.3118 27.4305 48.8288 26.7914 49.2047 26.0395C49.5807 25.2876 49.7687 24.4323 49.7687 23.4736C49.7687 22.6277 49.6277 21.8851 49.3457 21.246C49.0826 20.5881 48.7066 20.0242 48.2179 19.5542C47.7479 19.0655 47.2122 18.6519 46.6106 18.3136C46.0279 17.9752 45.417 17.6932 44.7779 17.4677C43.7816 17.1293 42.9545 16.8003 42.2965 16.4808C41.6386 16.1424 41.1499 15.7947 40.8303 15.4375C40.5108 15.0615 40.351 14.6292 40.351 14.1405C40.351 13.6517 40.5484 13.2288 40.9431 12.8716C41.3379 12.4956 41.93 12.3077 42.7195 12.3077C43.321 12.3077 43.8568 12.4298 44.3267 12.6742C44.7967 12.8998 45.2102 13.21 45.5674 13.6047C45.9433 13.9807 46.2629 14.4036 46.5261 14.8736L49.6841 13.1254C49.3457 12.4298 48.8664 11.7625 48.2461 11.1234C47.6445 10.4655 46.8832 9.92974 45.9621 9.51619C45.0598 9.08384 43.979 8.86766 42.7195 8.86766C41.4976 8.86766 40.3886 9.09324 39.3923 9.54438C38.4148 9.97673 37.6347 10.6065 37.052 11.4336C36.488 12.2419 36.2061 13.21 36.2061 14.3378C36.2061 15.2777 36.3846 16.086 36.7418 16.7627C37.099 17.4207 37.5501 17.9846 38.0952 18.4545C38.6404 18.9057 39.2137 19.2817 39.8152 19.5824C40.4356 19.8644 40.9807 20.09 41.4506 20.2591C42.3341 20.5975 43.0767 20.9171 43.6782 21.2178C44.2985 21.4998 44.7591 21.8288 45.0598 22.2047C45.3794 22.5807 45.5392 23.0788 45.5392 23.6991C45.5392 24.4135 45.2854 24.9774 44.7779 25.3909C44.2703 25.8045 43.6124 26.0113 42.8041 26.0113C42.1086 26.0113 41.46 25.8609 40.8585 25.5601C40.257 25.2594 39.7025 24.8364 39.1949 24.2913C38.7062 23.7461 38.255 23.107 37.8415 22.3739ZM55.3118 24.968C55.3118 24.592 55.3963 24.2819 55.5655 24.0375C55.7347 23.7743 55.9979 23.577 56.355 23.4454C56.7122 23.295 57.1727 23.2198 57.7367 23.2198C58.4322 23.2198 59.0901 23.3138 59.7104 23.5018C60.3496 23.6897 60.9229 23.9717 61.4304 24.3477V22.6559C61.2425 22.4303 60.9323 22.1953 60.5 21.9509C60.0676 21.7066 59.5319 21.4998 58.8927 21.3306C58.2724 21.1614 57.5487 21.0768 56.7216 21.0768C55.105 21.0768 53.8549 21.4434 52.9714 22.1765C52.0879 22.9096 51.6462 23.9059 51.6462 25.1654C51.6462 26.0489 51.853 26.8008 52.2665 27.4211C52.6989 28.0226 53.2628 28.4832 53.9583 28.8027C54.6538 29.1223 55.4057 29.2821 56.2141 29.2821C57.0036 29.2821 57.7555 29.1411 58.4698 28.8591C59.2029 28.5772 59.795 28.1542 60.2462 27.5903C60.7161 27.0264 60.9511 26.3308 60.9511 25.5037L60.5 23.8119C60.5 24.4323 60.359 24.968 60.077 25.4191C59.795 25.8515 59.4285 26.1898 58.9773 26.4342C58.5262 26.6598 58.0186 26.7726 57.4547 26.7726C57.06 26.7726 56.6934 26.7068 56.355 26.5752C56.0355 26.4248 55.7817 26.218 55.5937 25.9549C55.4057 25.6729 55.3118 25.3439 55.3118 24.968ZM53.9019 19.6952C54.0899 19.5636 54.3813 19.4038 54.776 19.2159C55.1708 19.0279 55.6407 18.8681 56.1859 18.7365C56.731 18.6049 57.3043 18.5391 57.9059 18.5391C58.3006 18.5391 58.6578 18.5767 58.9773 18.6519C59.2969 18.7271 59.5695 18.8493 59.795 19.0185C60.0394 19.1877 60.218 19.4038 60.3308 19.667C60.4436 19.9114 60.5 20.2121 60.5 20.5693V29.0001H64.0245V19.808C64.0245 18.9245 63.7802 18.182 63.2914 17.5804C62.8027 16.9601 62.126 16.4902 61.2613 16.1706C60.3966 15.8511 59.4097 15.6913 58.3006 15.6913C57.0975 15.6913 56.0073 15.8604 55.0298 16.1988C54.0523 16.5184 53.2252 16.8567 52.5485 17.2139L53.9019 19.6952ZM67.4218 7.00668V29.0001H71.0874V7.00668H67.4218ZM80.81 29.2821C82.3702 29.2821 83.7048 28.9813 84.8139 28.3798C85.9418 27.7595 86.8441 26.8384 87.5208 25.6165L84.3346 24.6296C83.9586 25.25 83.4793 25.7199 82.8965 26.0395C82.3326 26.3402 81.6465 26.4906 80.8382 26.4906C80.1238 26.4906 79.5129 26.3308 79.0054 26.0113C78.4978 25.6917 78.1125 25.2312 77.8493 24.6296C77.6049 24.0281 77.4827 23.295 77.4827 22.4303C77.5015 21.528 77.6331 20.7761 77.8775 20.1745C78.1407 19.5542 78.5072 19.0937 78.9772 18.7929C79.4659 18.4733 80.0674 18.3136 80.7818 18.3136C81.3645 18.3136 81.872 18.4451 82.3044 18.7083C82.7367 18.9715 83.0657 19.3286 83.2913 19.7798C83.5356 20.2309 83.6578 20.7761 83.6578 21.4152C83.6578 21.5468 83.6202 21.716 83.545 21.9227C83.4887 22.1107 83.4229 22.2611 83.3477 22.3739L84.3346 21.0768H75.9037V23.3326H87.5208C87.5396 23.2198 87.549 23.0694 87.549 22.8814C87.5678 22.6935 87.5772 22.5149 87.5772 22.3457C87.5772 20.9547 87.314 19.7704 86.7877 18.7929C86.2613 17.7966 85.4906 17.0447 84.4755 16.5372C83.4793 16.0108 82.2668 15.7477 80.8382 15.7477C79.4095 15.7477 78.1689 16.0296 77.1162 16.5936C76.0635 17.1387 75.2458 17.9188 74.6631 18.9339C74.0991 19.9302 73.8172 21.1238 73.8172 22.5149C73.8172 23.8871 74.0991 25.0808 74.6631 26.0959C75.2458 27.0921 76.0635 27.8723 77.1162 28.4362C78.1689 29.0001 79.4001 29.2821 80.81 29.2821ZM93.9126 7.00668H90.2471V29.0001H93.9126V7.00668ZM104.571 22.5149C104.571 21.0674 104.28 19.8456 103.697 18.8493C103.114 17.8342 102.343 17.0635 101.385 16.5372C100.445 16.0108 99.4298 15.7477 98.3395 15.7477C97.268 15.7477 96.3093 16.0202 95.4634 16.5654C94.6363 17.1105 93.9784 17.8906 93.4897 18.9057C93.0009 19.902 92.7566 21.105 92.7566 22.5149C92.7566 23.9059 93.0009 25.109 93.4897 26.1241C93.9784 27.1391 94.6363 27.9192 95.4634 28.4644C96.3093 29.0095 97.268 29.2821 98.3395 29.2821C99.4298 29.2821 100.445 29.0189 101.385 28.4926C102.343 27.9662 103.114 27.1955 103.697 26.1805C104.28 25.1654 104.571 23.9435 104.571 22.5149ZM100.793 22.5149C100.793 23.2856 100.633 23.9529 100.313 24.5168C99.9937 25.0808 99.5614 25.5131 99.0162 25.8139C98.4899 26.1147 97.9072 26.265 97.268 26.265C96.7229 26.265 96.1872 26.1241 95.6608 25.8421C95.1533 25.5413 94.7303 25.109 94.392 24.545C94.0724 23.9811 93.9126 23.3044 93.9126 22.5149C93.9126 21.7254 94.0724 21.0486 94.392 20.4847C94.7303 19.9208 95.1533 19.4978 95.6608 19.2159C96.1872 18.9151 96.7229 18.7647 97.268 18.7647C97.9072 18.7647 98.4899 18.9151 99.0162 19.2159C99.5614 19.5166 99.9937 19.949 100.313 20.5129C100.633 21.0768 100.793 21.7442 100.793 22.5149ZM107.125 11.0106C107.125 11.5933 107.341 12.0821 107.773 12.4768C108.205 12.8716 108.722 13.069 109.324 13.069C109.925 13.069 110.433 12.8716 110.847 12.4768C111.279 12.0821 111.495 11.5933 111.495 11.0106C111.495 10.4091 111.279 9.92034 110.847 9.54438C110.433 9.14963 109.925 8.95225 109.324 8.95225C108.722 8.95225 108.205 9.14963 107.773 9.54438C107.341 9.92034 107.125 10.4091 107.125 11.0106ZM107.519 16.0296V29.0001H111.072V16.0296H107.519ZM123.323 21.105V29.0001H127.101V20.7103C127.101 19.1501 126.726 17.9376 125.974 17.0729C125.222 16.1894 124.075 15.7477 122.534 15.7477C121.613 15.7477 120.823 15.945 120.165 16.3398C119.526 16.7158 119.009 17.2703 118.614 18.0034V16.0296H114.949V29.0001H118.614V21.105C118.614 20.5599 118.718 20.09 118.924 19.6952C119.131 19.3005 119.432 18.9997 119.827 18.7929C120.221 18.5673 120.673 18.4545 121.18 18.4545C121.932 18.4545 122.477 18.6801 122.816 19.1313C123.154 19.5824 123.323 20.2403 123.323 21.105Z" fill="#303030"/>
</svg>
