<svg width="122" height="38" viewBox="0 0 122 38" fill="none" xmlns="http://www.w3.org/2000/svg">
<path d="M61.3084 30.549C61.3084 30.5678 61.3084 30.6054 61.3084 30.6618C61.3084 30.6994 61.299 30.737 61.2802 30.7745C61.205 30.9249 61.0546 31.0001 60.829 31.0001C60.4155 31.0001 60.0019 31.0001 59.5884 31.0001C59.1936 31.0001 58.7894 31.0001 58.3759 31.0001H56.5713C56.045 31.0001 55.6502 30.9155 55.387 30.7464C55.1427 30.5772 54.8795 30.2858 54.5975 29.8723C53.5261 28.3308 52.4546 26.7988 51.3831 25.2762C50.3116 23.7348 49.2308 22.1933 48.1405 20.6519L47.7739 20.9339C47.7927 22.3437 47.8021 23.7536 47.8021 25.1634C47.8021 26.5732 47.8021 27.9737 47.8021 29.3647C47.8021 29.5339 47.8397 29.7031 47.9149 29.8723C48.0089 30.0226 48.1499 30.0978 48.3379 30.0978C48.5822 30.0978 48.8266 30.0884 49.071 30.0696C49.3153 30.0508 49.5597 30.0414 49.8041 30.0414C49.9357 30.0414 50.0297 30.0978 50.0861 30.2106C50.1612 30.3234 50.1988 30.4362 50.1988 30.549C50.1988 30.643 50.1612 30.7558 50.0861 30.8873C50.0109 31.0001 49.9169 31.0565 49.8041 31.0565C49.3529 31.0565 48.9018 31.0377 48.4506 31.0001C48.0183 30.9813 47.5859 30.9719 47.1536 30.9719C46.5145 30.9719 45.8753 30.9719 45.2362 30.9719C44.6159 30.9531 43.9956 30.9625 43.3752 31.0001C43.1309 31.0189 42.8865 31.0283 42.6421 31.0283C42.3978 31.0471 42.144 31.0565 41.8808 31.0565C41.7116 31.0565 41.5894 31.0001 41.5143 30.8873C41.4391 30.7745 41.4015 30.643 41.4015 30.4926C41.4015 30.1918 41.5612 30.0414 41.8808 30.0414C42.1064 30.0414 42.3226 30.0508 42.5293 30.0696C42.7549 30.0884 42.9711 30.0978 43.1779 30.0978C43.5538 30.0978 43.7794 29.9944 43.8546 29.7877C43.9298 29.5809 43.9674 29.3271 43.9674 29.0264V12.8132C43.9674 12.1741 43.911 11.7512 43.7982 11.5444C43.7042 11.3188 43.5162 11.206 43.2343 11.206C42.9523 11.1872 42.5387 11.1778 41.9936 11.1778C41.8808 11.1778 41.7586 11.1496 41.627 11.0932C41.5143 11.018 41.4579 10.9147 41.4579 10.7831C41.4579 10.6515 41.4861 10.5293 41.5425 10.4165C41.5988 10.3037 41.7022 10.2473 41.8526 10.2473C42.2662 10.2473 42.6703 10.2661 43.0651 10.3037C43.4786 10.3225 43.8922 10.3319 44.3057 10.3319C44.9637 10.3319 45.6216 10.3319 46.2795 10.3319C46.9374 10.3319 47.5859 10.3319 48.2251 10.3319C48.4882 10.3319 48.7514 10.3225 49.0146 10.3037C49.2965 10.2661 49.5691 10.2473 49.8323 10.2473C49.9451 10.2473 50.0297 10.3037 50.0861 10.4165C50.1612 10.5105 50.1988 10.6045 50.1988 10.6985C50.1988 10.7925 50.1612 10.8959 50.0861 11.0086C50.0297 11.1214 49.9451 11.1778 49.8323 11.1778C49.5879 11.1778 49.3435 11.1778 49.0992 11.1778C48.8548 11.159 48.6104 11.1496 48.3661 11.1496C48.1781 11.1496 48.0371 11.2248 47.9431 11.3752C47.8491 11.5256 47.8021 11.6854 47.8021 11.8545C47.8021 12.5313 47.7927 13.2174 47.7739 13.9129C47.7739 14.5896 47.7739 15.2664 47.7739 15.9431V19.7496C49.1086 18.4714 50.3962 17.1743 51.6369 15.8585C52.8963 14.5426 54.09 13.161 55.2179 11.7136C55.4246 11.4692 55.5656 11.1778 55.6408 10.8395C55.716 10.5763 55.7912 10.4165 55.8664 10.3601C55.9416 10.3037 56.1108 10.2755 56.3739 10.2755L57.2198 10.3037C57.6522 10.3037 58.0845 10.2943 58.5169 10.2755C58.9492 10.2567 59.3816 10.2473 59.8139 10.2473C60.1335 10.2473 60.2933 10.4071 60.2933 10.7267C60.2933 10.9711 60.2181 11.1214 60.0677 11.1778C59.9173 11.2154 59.7481 11.2342 59.5602 11.2342C59.1842 11.2342 58.8176 11.3188 58.4605 11.488C58.1221 11.6384 57.812 11.8451 57.53 12.1083L50.8192 18.509C52.1538 20.3888 53.5167 22.2403 54.9077 24.0637C56.3175 25.8871 57.7368 27.6917 59.1654 29.4775C59.4286 29.7971 59.7293 29.9944 60.0677 30.0696C60.4061 30.1448 60.6974 30.2012 60.9418 30.2388C61.1862 30.2576 61.3084 30.361 61.3084 30.549ZM73.7059 23.5844C73.7059 22.9641 73.6589 22.2591 73.5649 21.4696C73.4897 20.6613 73.3205 19.8812 73.0574 19.1293C72.7942 18.3774 72.4088 17.7571 71.9013 17.2683C71.4125 16.7608 70.7452 16.507 69.8993 16.507C69.1286 16.507 68.5083 16.7514 68.0383 17.2401C67.5684 17.7289 67.2018 18.3398 66.9387 19.0729C66.6943 19.806 66.5251 20.5673 66.4311 21.3568C66.3371 22.1276 66.2901 22.7949 66.2901 23.3588C66.2901 23.9791 66.3277 24.6935 66.4029 25.5018C66.4969 26.2913 66.6755 27.062 66.9387 27.8139C67.2018 28.5658 67.5872 29.1861 68.0947 29.6749C68.6023 30.1636 69.279 30.408 70.1249 30.408C70.9144 30.408 71.5441 30.173 72.0141 29.7031C72.5028 29.2143 72.8694 28.6128 73.1137 27.8985C73.3581 27.1654 73.5179 26.4135 73.5931 25.6427C73.6683 24.8532 73.7059 24.1671 73.7059 23.5844ZM77.5406 23.7254C77.5406 25.1728 77.2117 26.4604 76.5537 27.5883C75.8958 28.6974 74.9935 29.5715 73.8469 30.2106C72.719 30.8497 71.4313 31.1693 69.9839 31.1693C68.5365 31.1693 67.2582 30.8309 66.1492 30.1542C65.0401 29.4775 64.166 28.5658 63.5269 27.4191C62.9065 26.2725 62.5964 24.9848 62.5964 23.5562C62.5964 22.0712 62.9065 20.7459 63.5269 19.5804C64.1472 18.3962 65.0213 17.4657 66.1492 16.789C67.277 16.0935 68.5929 15.7457 70.0967 15.7457C71.7509 15.7457 73.1231 16.0841 74.2134 16.7608C75.3225 17.4187 76.1496 18.3492 76.6947 19.5523C77.2587 20.7365 77.5406 22.1276 77.5406 23.7254ZM89.2738 29.6467C89.2738 29.9098 89.1328 30.1448 88.8508 30.3516C88.5877 30.5396 88.2493 30.6994 87.8357 30.8309C87.441 30.9437 87.0368 31.0283 86.6233 31.0847C86.2097 31.1411 85.862 31.1693 85.58 31.1693C84.1702 31.1693 83.1927 30.8873 82.6475 30.3234C82.1024 29.7407 81.8298 28.782 81.8298 27.4473C81.8298 25.8307 81.8392 24.2141 81.858 22.5975C81.8768 20.9809 81.8862 19.3643 81.8862 17.7477H80.5892C80.4012 17.7477 80.2414 17.8135 80.1098 17.945C79.9783 18.0578 79.8561 18.1142 79.7433 18.1142C79.5553 18.1142 79.4613 18.0202 79.4613 17.8323C79.4613 17.7571 79.4989 17.6161 79.5741 17.4093C79.6493 17.2025 79.7057 17.0709 79.7433 17.0145C79.7997 16.9018 79.8561 16.836 79.9125 16.8172C79.9689 16.7984 80.0534 16.789 80.1662 16.789H81.9144V13.7719C82.3844 13.5088 82.9013 13.1234 83.4652 12.6159C84.0292 12.1083 84.4615 11.6384 84.7623 11.206C84.8187 11.112 84.8939 11.018 84.9879 10.9241C85.0819 10.8113 85.1946 10.7549 85.3262 10.7549C85.627 10.7549 85.768 10.8865 85.7492 11.1496L85.6646 16.789H88.5689C88.7192 16.789 88.8508 16.8266 88.9636 16.9018C89.0952 16.9582 89.161 17.0709 89.161 17.2401C89.161 17.5973 88.9636 17.7759 88.5689 17.7759H85.6646L85.6082 28.6598C85.6082 28.9606 85.6646 29.2519 85.7774 29.5339C85.909 29.7971 86.1533 29.9286 86.5105 29.9286C86.8301 29.9286 87.1496 29.9004 87.4692 29.8441C87.8075 29.7877 88.1177 29.6937 88.3997 29.5621C88.4937 29.5245 88.5783 29.4869 88.6534 29.4493C88.7474 29.3929 88.8414 29.3647 88.9354 29.3647C89.161 29.3647 89.2738 29.4587 89.2738 29.6467ZM98.7217 28.0113C98.6653 27.1278 98.6277 26.2443 98.6089 25.3608C98.5901 24.4585 98.5901 23.5562 98.6089 22.6539C97.8382 22.7855 97.0862 23.0298 96.3531 23.387C95.6388 23.7254 95.0467 24.1859 94.5767 24.7686C94.1068 25.3514 93.8718 26.0939 93.8718 26.9962C93.8718 27.3721 93.9188 27.7763 94.0128 28.2086C94.1256 28.641 94.3136 29.0076 94.5767 29.3083C94.8587 29.5903 95.2347 29.7313 95.7046 29.7313C96.043 29.7313 96.4001 29.6373 96.7761 29.4493C97.152 29.2425 97.5092 29.0076 97.8476 28.7444C98.2047 28.4812 98.4961 28.2368 98.7217 28.0113ZM104.53 29.6749C104.53 29.7501 104.493 29.8347 104.417 29.9286C104.361 30.0226 104.305 30.0978 104.248 30.1542C103.665 30.8309 102.914 31.1693 101.992 31.1693C101.184 31.1693 100.536 30.9907 100.047 30.6336C99.5582 30.2764 99.1822 29.7219 98.919 28.97C98.3175 29.6091 97.669 30.1166 96.9735 30.4926C96.2967 30.8685 95.4978 31.0565 94.5767 31.0565C93.9188 31.0565 93.2515 30.9155 92.5748 30.6336C91.9168 30.3328 91.3623 29.9098 90.9112 29.3647C90.4788 28.8196 90.2626 28.1898 90.2626 27.4755C90.2626 26.7612 90.4412 26.1315 90.7984 25.5864C91.1743 25.0224 91.6443 24.5431 92.2082 24.1483C92.7721 23.7348 93.3455 23.3964 93.9282 23.1332C94.6801 22.8137 95.4508 22.5693 96.2403 22.4001C97.0299 22.2121 97.8194 22.0242 98.6089 21.8362V21.7234C98.6089 21.385 98.5995 20.9339 98.5807 20.37C98.5807 19.7872 98.5243 19.2139 98.4115 18.65C98.2987 18.0672 98.1107 17.5785 97.8476 17.1837C97.5844 16.7702 97.199 16.5634 96.6915 16.5634C96.1088 16.5634 95.5824 16.7326 95.1125 17.0709C94.6613 17.4093 94.3418 17.8605 94.1538 18.4244C94.1162 18.5936 94.088 18.7627 94.0692 18.9319C94.0504 19.0823 94.0222 19.2421 93.9846 19.4113C93.947 19.712 93.7684 19.9188 93.4489 20.0316C93.1481 20.1256 92.8661 20.1726 92.603 20.1726C92.2834 20.1726 91.9732 20.1068 91.6725 19.9752C91.3717 19.8248 91.2213 19.5523 91.2213 19.1575C91.2213 19.0071 91.2401 18.8755 91.2777 18.7627C91.3341 18.6312 91.3905 18.4996 91.4469 18.368C91.7477 17.6537 92.1988 17.1273 92.8003 16.789C93.4019 16.4506 94.0598 16.225 94.7741 16.1123C95.5072 15.9995 96.2027 15.9431 96.8607 15.9431C98.4021 15.9431 99.6709 16.3566 100.667 17.1837C101.664 18.0108 102.162 19.2327 102.162 20.8493V25.107C102.143 25.6333 102.133 26.1785 102.133 26.7424C102.152 27.2876 102.18 27.8327 102.218 28.3778C102.256 28.6974 102.331 29.0076 102.444 29.3083C102.556 29.5903 102.81 29.7313 103.205 29.7313C103.468 29.7313 103.684 29.6749 103.853 29.5621C104.041 29.4493 104.211 29.3929 104.361 29.3929C104.436 29.3929 104.483 29.4305 104.502 29.5057C104.521 29.5809 104.53 29.6373 104.53 29.6749ZM121.418 30.5772C121.418 30.7276 121.362 30.8309 121.249 30.8873C121.155 30.9249 121.052 30.9531 120.939 30.9719C120.488 31.0095 120.037 31.0283 119.586 31.0283C119.135 31.0471 118.693 31.0565 118.26 31.0565C118.016 31.0565 117.753 31.0471 117.471 31.0283C117.208 31.0095 116.963 30.9625 116.738 30.8873C116.493 30.8121 116.287 30.6712 116.117 30.4644C115.948 30.2576 115.798 30.0414 115.666 29.8159C114.971 28.594 114.266 27.3815 113.552 26.1785C112.837 24.9754 112.151 23.7536 111.493 22.5129L110.788 22.9923V29.4775C110.788 29.8159 110.854 30.032 110.986 30.126C111.136 30.22 111.324 30.2576 111.55 30.2388C111.794 30.2012 112.057 30.1824 112.339 30.1824C112.602 30.1824 112.734 30.3328 112.734 30.6336C112.734 30.9343 112.584 31.0847 112.283 31.0847C111.738 31.0847 111.192 31.0659 110.647 31.0283C110.121 30.9907 109.585 30.9719 109.04 30.9719C108.495 30.9719 107.95 30.9907 107.405 31.0283C106.86 31.0847 106.314 31.1129 105.769 31.1129C105.657 31.1129 105.563 31.0659 105.487 30.9719C105.431 30.8591 105.403 30.7464 105.403 30.6336C105.403 30.3516 105.553 30.2106 105.854 30.2106C106.042 30.2106 106.22 30.22 106.39 30.2388C106.559 30.2388 106.737 30.2388 106.925 30.2388C107.151 30.2388 107.283 30.1636 107.32 30.0132C107.358 29.8629 107.377 29.6937 107.377 29.5057C107.395 29.2425 107.405 28.9794 107.405 28.7162C107.424 28.453 107.433 28.1992 107.433 27.9549V14.2795C107.433 13.8659 107.424 13.4618 107.405 13.067C107.405 12.6723 107.395 12.2681 107.377 11.8545C107.358 11.6478 107.32 11.4222 107.264 11.1778C107.226 10.9335 107.066 10.8113 106.784 10.8113C106.596 10.8113 106.408 10.8207 106.22 10.8395C106.051 10.8583 105.873 10.8677 105.685 10.8677C105.384 10.8677 105.234 10.7361 105.234 10.4729C105.234 10.2849 105.337 10.1627 105.544 10.1064C105.769 10.05 106.004 10.0124 106.249 9.99356C106.493 9.97477 106.728 9.94657 106.954 9.90897C107.48 9.81499 107.997 9.7022 108.504 9.57061C109.031 9.43903 109.557 9.30744 110.083 9.17586C110.14 9.15706 110.187 9.14766 110.224 9.14766C110.281 9.12887 110.337 9.11947 110.394 9.11947C110.676 9.11947 110.817 9.24165 110.817 9.48602C110.817 11.5914 110.807 13.6967 110.788 15.8021C110.77 17.8886 110.76 19.9752 110.76 22.0618C111.418 21.5542 112.085 21.0467 112.762 20.5391C113.439 20.0128 114.078 19.4583 114.679 18.8755C114.961 18.5936 115.253 18.3116 115.554 18.0296C115.854 17.7289 116.117 17.4187 116.343 17.0991C116.493 16.8924 116.578 16.695 116.597 16.507C116.634 16.3002 116.681 16.1311 116.738 15.9995C116.813 15.8679 116.973 15.8021 117.217 15.8021C117.706 15.8021 118.195 15.8115 118.683 15.8303C119.172 15.8303 119.651 15.8303 120.121 15.8303C120.403 15.8303 120.544 15.9525 120.544 16.1968C120.544 16.4036 120.479 16.5258 120.347 16.5634C120.215 16.601 120.074 16.6198 119.924 16.6198C119.642 16.6198 119.341 16.6762 119.022 16.789C118.721 16.9018 118.467 17.0333 118.26 17.1837C117.546 17.7289 116.841 18.3022 116.146 18.9037C115.469 19.4865 114.783 20.0786 114.087 20.6801C114.275 20.9997 114.557 21.4884 114.933 22.1464C115.328 22.8043 115.77 23.5374 116.258 24.3457C116.747 25.154 117.245 25.9435 117.753 26.7142C118.26 27.4849 118.721 28.1617 119.135 28.7444C119.567 29.3083 119.905 29.6843 120.15 29.8723C120.319 30.0038 120.479 30.0884 120.629 30.126C120.779 30.1636 120.949 30.2106 121.137 30.267C121.324 30.3234 121.418 30.4268 121.418 30.5772Z" fill="#303030"/>
<path d="M33.9892 18.6669L25.5276 4.00012H15.9194L12.8281 9.35915H22.4328L27.8024 18.6669L22.4328 27.9747H12.8281L15.9194 33.3338H25.5276L33.9892 18.6669Z" fill="#49CEA6"/>
<path d="M11.6997 27.9747L6.32944 18.6669L11.6997 9.35915L14.7911 4.00012H8.60421L0.142578 18.6669L8.60421 33.3338H14.7911L11.6997 27.9747Z" fill="#9BF1D7"/>
</svg>
