<svg width="119" height="46" viewBox="0 0 119 46" fill="none" xmlns="http://www.w3.org/2000/svg">
<path d="M45.3631 36.348C42.7891 36.348 40.7484 35.6523 39.241 34.2609C37.7569 32.8695 37.0148 30.9679 37.0148 28.5562V10.6073H42.2325V28.5214C42.2325 29.5882 42.4992 30.4114 43.0326 30.9911C43.5891 31.5477 44.366 31.826 45.3631 31.826C46.3371 31.826 47.1024 31.5477 47.6589 30.9911C48.2155 30.4114 48.4937 29.5882 48.4937 28.5214V10.6073H53.7114V28.5562C53.7114 30.9448 52.9578 32.8463 51.4504 34.2609C49.9663 35.6523 47.9372 36.348 45.3631 36.348ZM57.872 36.0001V10.6073H63.9593L70.5336 30.2607C70.464 29.4026 70.3829 28.4171 70.2901 27.304C70.1973 26.1677 70.1162 25.043 70.0466 23.9299C70.0002 22.7936 69.977 21.8312 69.977 21.0427V10.6073H74.5686V36.0001H68.4813L61.9766 16.3468C62.0461 17.0889 62.1157 17.9701 62.1853 18.9904C62.2549 20.0108 62.3128 21.0427 62.3592 22.0863C62.4288 23.1298 62.4636 24.0574 62.4636 24.869V36.0001H57.872ZM79.2509 36.0001V31.1303L88.5732 15.4772H79.5292V10.6073H94.5214V15.4772L85.1643 31.1303H94.904V36.0001H79.2509ZM107.935 36.348C106.242 36.348 104.769 36.0349 103.517 35.4088C102.265 34.7595 101.291 33.8667 100.595 32.7304C99.9226 31.5709 99.5864 30.2259 99.5864 28.6954V17.9121C99.5864 16.3816 99.9226 15.0482 100.595 13.9119C101.291 12.7524 102.265 11.8596 103.517 11.2335C104.769 10.5842 106.242 10.2595 107.935 10.2595C109.651 10.2595 111.123 10.5842 112.352 11.2335C113.605 11.8596 114.567 12.7524 115.239 13.9119C115.935 15.0482 116.283 16.3816 116.283 17.9121V28.6954C116.283 30.2259 115.935 31.5709 115.239 32.7304C114.567 33.8667 113.605 34.7595 112.352 35.4088C111.123 36.0349 109.651 36.348 107.935 36.348ZM107.935 31.826C108.978 31.826 109.755 31.5593 110.265 31.0259C110.799 30.4694 111.065 29.6925 111.065 28.6954V17.9121C111.065 16.8918 110.81 16.1149 110.3 15.5816C109.79 15.0482 109.001 14.7815 107.935 14.7815C106.868 14.7815 106.079 15.0482 105.569 15.5816C105.059 16.1149 104.804 16.8918 104.804 17.9121V28.6954C104.804 29.6925 105.059 30.4694 105.569 31.0259C106.103 31.5593 106.891 31.826 107.935 31.826Z" fill="#303030"/>
<path d="M15.7036 16.2947L12.1095 10.0697H6.96484L15.7036 25.2058L24.4424 10.0697H19.2977L15.7036 16.2947Z" fill="#FF6B62"/>
<path d="M25.6399 10.0698L15.7042 27.2785L5.76849 10.0698H0.142578L15.7042 37.0245L31.2658 10.0698H25.6399Z" fill="#5282FF"/>
</svg>
