<svg width="99" height="52" viewBox="0 0 99 52" fill="none" xmlns="http://www.w3.org/2000/svg">
<path d="M49.1826 41.9454C50.0485 41.9454 50.4814 41.2342 50.4814 39.8116C50.4814 39.3663 50.4567 38.9272 50.4072 38.4943C50.3454 37.9376 50.3145 36.0698 50.3145 32.8907C50.3145 30.0457 50.2897 27.2068 50.2402 24.3741C50.1908 21.5291 50.0547 18.684 49.832 15.839C49.8197 15.7648 49.8135 15.6844 49.8135 15.5978C49.8135 15.3133 49.7702 15.0411 49.6836 14.7814C49.4609 14.2742 49.096 14.0206 48.5889 14.0206C48.3786 14.0206 48.0755 14.1505 47.6797 14.4103C46.987 14.7814 46.3932 15.2762 45.8984 15.8947C45.5768 16.34 45.2367 16.7667 44.8779 17.1749L44.2285 17.9913C44.1172 18.1398 44.012 18.214 43.9131 18.214C43.8141 18.214 43.7028 18.1521 43.5791 18.0284L43.0596 17.5089C42.54 17.0389 42.0947 16.5008 41.7236 15.8947C41.3896 15.3628 40.9567 14.9298 40.4248 14.5958C40.1032 14.3855 39.7939 14.2804 39.4971 14.2804C38.7673 14.2804 38.359 14.7257 38.2725 15.6163C38.2106 17.1007 38.1797 18.8263 38.1797 20.7931C38.1797 27.0275 38.3838 32.1486 38.792 36.1564L39.2373 40.3126C39.3115 41.0795 39.7383 41.4692 40.5176 41.4816C41.2598 41.395 41.6494 40.9682 41.6865 40.2013C41.6865 39.657 41.4453 36.8553 40.9629 31.796C40.8145 29.5942 40.7402 26.9594 40.7402 23.8917C40.7402 21.9497 40.734 20.49 40.7217 19.5128C40.7093 19.4757 40.7031 19.3335 40.7031 19.0861C40.7155 19.0242 40.7773 18.9624 40.8887 18.9005C41.6432 19.6056 42.1689 20.1808 42.4658 20.6261C42.8864 21.1951 43.3255 21.4796 43.7832 21.4796C44.2038 21.4796 44.6367 21.2384 45.082 20.756C45.9232 19.8035 46.6777 18.9314 47.3457 18.1398C47.6549 21.7765 47.8096 25.0545 47.8096 27.9738C47.7601 29.6437 47.7354 31.3136 47.7354 32.9835C47.7354 35.408 47.791 37.8325 47.9023 40.257C47.9766 41.3084 48.4033 41.8712 49.1826 41.9454ZM55.7324 41.6115C56.4993 41.5867 56.9199 41.0981 56.9941 40.1456L57.0127 39.6818C57.0127 39.3107 56.988 38.9334 56.9385 38.5499C56.6169 34.5792 56.4561 26.9532 56.4561 15.672L56.4746 15.5421C56.4746 15.3442 56.4437 15.1401 56.3818 14.9298C56.2334 14.3113 55.8623 14.0021 55.2686 14.0021C54.749 14.0021 54.3717 14.2433 54.1367 14.7257C53.9017 15.27 53.7842 17.9666 53.7842 22.8156C53.7842 27.8624 54.0192 33.6453 54.4893 40.1642C54.6006 41.0672 55.015 41.5496 55.7324 41.6115ZM63.3398 41.5558L63.5996 41.5372C64.2428 41.3764 64.5645 40.9559 64.5645 40.2755L64.5273 39.9044C64.1934 37.9253 64.0016 35.9337 63.9521 33.9298C63.9274 33.1258 63.8903 32.3217 63.8408 31.5177C63.7542 30.2065 63.7109 28.8953 63.7109 27.5841L63.748 25.3761C63.748 24.337 63.68 22.5929 63.5439 20.1437C63.5439 19.9458 63.5872 19.785 63.6738 19.6613L64.6572 20.9601C65.82 22.531 67.0322 24.034 68.2939 25.4689C68.6898 25.9266 68.8877 26.4585 68.8877 27.0646L68.9805 31.2765C69.0547 33.1814 69.0918 35.0802 69.0918 36.9728C69.0918 38.4943 69.0794 39.4282 69.0547 39.7745C69.0547 40.0467 69.098 40.3188 69.1846 40.5909C69.3949 41.1723 69.7907 41.463 70.3721 41.463C71.1761 41.3888 71.5781 40.894 71.5781 39.9786C71.5781 36.0079 71.541 32.6001 71.4668 29.755C71.3926 26.91 71.2008 24.0711 70.8916 21.2384C70.8916 21.2013 70.8854 21.1704 70.873 21.1456C70.6751 19.5128 70.5762 18.2511 70.5762 17.3605C70.5762 17.0636 70.6195 16.3956 70.7061 15.3566C70.7061 15.0226 70.5947 14.7319 70.3721 14.4845C70.1618 14.2247 69.8587 14.0948 69.4629 14.0948C69.1536 14.0948 68.8877 14.2062 68.665 14.4288C68.2692 14.8247 68.0713 15.7833 68.0713 17.3048C68.0713 17.7501 68.1455 18.7706 68.2939 20.3663L68.3682 21.4054L68.2197 21.4796L63.2285 14.9113C62.9811 14.5896 62.6781 14.4288 62.3193 14.4288C62.1833 14.4288 62.041 14.4474 61.8926 14.4845C61.373 14.67 61.07 15.035 60.9834 15.5792C60.9463 15.9503 60.9277 16.3709 60.9277 16.8409C61.1009 19.7107 61.1875 22.8527 61.1875 26.2667C61.1999 29.755 61.3359 33.2371 61.5957 36.713C61.5957 37.9005 61.7565 39.1375 62.0781 40.424C62.3132 41.1785 62.7337 41.5558 63.3398 41.5558ZM81.1523 41.463C82.0059 41.3517 82.4326 40.7023 82.4326 39.5148L82.4141 38.8468C82.3027 37.8201 82.2471 36.7872 82.2471 35.7482L82.2842 32.6866C82.2842 31.9939 82.2285 29.4643 82.1172 25.0978C82.0553 24.0092 82.0244 22.9269 82.0244 21.8507C82.0244 20.3169 82.0863 18.783 82.21 17.2491C82.2594 16.7791 82.4264 16.5441 82.7109 16.5441C83.9108 16.5441 85.0179 16.4637 86.0322 16.3029C86.6383 16.0307 86.9414 15.6287 86.9414 15.0968C86.9414 14.9236 86.9043 14.7443 86.8301 14.5587C86.5456 13.9897 86.1374 13.7052 85.6055 13.7052C85.457 13.7052 85.2962 13.7299 85.123 13.7794C83.2799 13.965 81.3688 14.0577 79.3896 14.0577C78.5485 14.0577 77.6888 14.0392 76.8105 14.0021C75.7096 14.0021 75.1097 14.4165 75.0107 15.2452C75.0107 16.1359 75.5612 16.643 76.6621 16.7667C77.2806 16.7915 77.8001 16.8038 78.2207 16.8038L78.9814 16.7853C79.2907 16.7853 79.4453 16.9213 79.4453 17.1935L79.4268 17.3419C79.3154 18.9871 79.2598 20.5457 79.2598 22.0177C79.2598 22.9949 79.2845 23.935 79.334 24.838C79.4577 27.8934 79.5195 30.8868 79.5195 33.8185C79.5072 35.0184 79.4948 35.7296 79.4824 35.9523C79.4948 37.2882 79.5566 38.6303 79.668 39.9786C79.7174 40.4611 79.8721 40.8322 80.1318 41.0919C80.3916 41.3393 80.7318 41.463 81.1523 41.463ZM92.0625 41.6115C92.8294 41.5867 93.25 41.0981 93.3242 40.1456L93.3428 39.6818C93.3428 39.3107 93.318 38.9334 93.2686 38.5499C92.9469 34.5792 92.7861 26.9532 92.7861 15.672L92.8047 15.5421C92.8047 15.3442 92.7738 15.1401 92.7119 14.9298C92.5635 14.3113 92.1924 14.0021 91.5986 14.0021C91.0791 14.0021 90.7018 14.2433 90.4668 14.7257C90.2318 15.27 90.1143 17.9666 90.1143 22.8156C90.1143 27.8624 90.3493 33.6453 90.8193 40.1642C90.9307 41.0672 91.3451 41.5496 92.0625 41.6115Z" fill="#303030"/>
<path d="M9.16049 25.5757C9.26092 25.4691 9.38139 25.3832 9.51501 25.3231C9.64862 25.263 9.79278 25.2297 9.93924 25.2253C10.0857 25.2209 10.2316 25.2454 10.3686 25.2974C10.5056 25.3494 10.631 25.4279 10.7376 25.5283C15.8713 30.3643 21.0225 33.3066 27.0842 34.8064C27.9021 32.5752 27.9746 30.1196 27.2683 27.7239C26.3312 24.5452 24.1489 21.7758 20.959 19.7155C18.1115 17.8762 15.2654 17.3972 12.5121 16.9343C9.03847 16.35 5.7573 15.7978 2.62604 12.4824C2.27742 12.1157 1.80261 11.9686 1.34871 12.0878C0.829972 12.2273 0.482054 12.6372 0.315416 13.3149C-0.0750339 14.9011 0.175969 19.3467 1.27411 24.0397C3.03741 31.5796 5.85143 35.3948 7.90199 37.2683C10.5515 39.687 14.0111 41.0264 17.4492 41.0264C18.0972 41.0274 18.7444 40.9799 19.3854 40.8841C22.2935 40.4435 24.7143 38.9828 26.0788 36.8576C19.8393 35.2345 14.5089 32.1478 9.20581 27.155C9.09895 27.0544 9.013 26.9337 8.95288 26.7998C8.89275 26.6659 8.85964 26.5215 8.85543 26.3748C8.85122 26.2281 8.87599 26.082 8.92834 25.9449C8.98069 25.8077 9.05958 25.6823 9.16049 25.5757ZM30.5013 35.4897C29.3279 35.3091 28.1914 35.0825 27.0849 34.8085C26.8574 35.4295 26.5744 36.0288 26.2392 36.599C26.1883 36.6861 26.1346 36.7726 26.0795 36.8576C27.4253 37.206 28.7881 37.4853 30.1625 37.6943C30.3087 37.72 30.4586 37.7163 30.6034 37.6833C30.7482 37.6503 30.8849 37.5887 31.0056 37.5022C31.1263 37.4157 31.2285 37.306 31.3062 37.1794C31.3839 37.0529 31.4356 36.9122 31.4582 36.7654C31.4808 36.6186 31.4738 36.4689 31.4378 36.3248C31.4018 36.1808 31.3373 36.0454 31.2483 35.9265C31.1592 35.8077 31.0473 35.7079 30.9192 35.6329C30.7911 35.5578 30.6492 35.5092 30.502 35.4897H30.5013Z" fill="#FF69B1"/>
</svg>
