<svg width="159" height="36" viewBox="0 0 159 36" fill="none" xmlns="http://www.w3.org/2000/svg">
<path d="M49.041 17.672C50.193 17.942 51.102 18.5 51.768 19.346C52.452 20.192 52.794 21.173 52.794 22.289C52.794 23.927 52.245 25.205 51.147 26.123C50.067 27.041 48.51 27.5 46.476 27.5H37.593V8.411H46.26C48.204 8.411 49.707 8.834 50.769 9.68C51.831 10.526 52.362 11.732 52.362 13.298C52.362 14.45 52.056 15.413 51.444 16.187C50.832 16.943 50.031 17.438 49.041 17.672ZM42.21 16.214H45.234C46.836 16.214 47.637 15.53 47.637 14.162C47.637 12.794 46.818 12.11 45.18 12.11H42.21V16.214ZM45.504 23.747C47.214 23.747 48.069 23.045 48.069 21.641C48.069 20.957 47.844 20.426 47.394 20.048C46.944 19.652 46.305 19.454 45.477 19.454H42.21V23.747H45.504ZM54.8006 8.195C54.8006 7.493 55.0526 6.917 55.5566 6.467C56.0606 5.999 56.7266 5.765 57.5546 5.765C58.3826 5.765 59.0486 5.999 59.5526 6.467C60.0566 6.917 60.3086 7.493 60.3086 8.195C60.3086 8.879 60.0566 9.455 59.5526 9.923C59.0486 10.373 58.3826 10.598 57.5546 10.598C56.7266 10.598 56.0606 10.373 55.5566 9.923C55.0526 9.455 54.8006 8.879 54.8006 8.195ZM59.8496 12.434V27.5H55.2326V12.434H59.8496ZM71.5693 23.531V27.5H69.4903C67.7263 27.5 66.3493 27.068 65.3593 26.204C64.3873 25.322 63.9013 23.873 63.9013 21.857V16.322H61.8763V12.434H63.9013V8.735H68.5183V12.434H71.5423V16.322H68.5183V21.938C68.5183 22.532 68.6353 22.946 68.8693 23.18C69.1213 23.414 69.5353 23.531 70.1113 23.531H71.5693ZM82.6963 23.531V27.5H80.6173C78.8533 27.5 77.4763 27.068 76.4863 26.204C75.5143 25.322 75.0283 23.873 75.0283 21.857V16.322H73.0033V12.434H75.0283V8.735H79.6453V12.434H82.6693V16.322H79.6453V21.938C79.6453 22.532 79.7623 22.946 79.9963 23.18C80.2483 23.414 80.6623 23.531 81.2383 23.531H82.6963ZM92.3382 12.245C93.8322 12.245 95.1642 12.56 96.3342 13.19C97.5222 13.802 98.4492 14.693 99.1152 15.863C99.7992 17.033 100.141 18.401 100.141 19.967C100.141 21.533 99.7992 22.901 99.1152 24.071C98.4492 25.241 97.5222 26.141 96.3342 26.771C95.1642 27.383 93.8322 27.689 92.3382 27.689C90.8442 27.689 89.5032 27.383 88.3152 26.771C87.1272 26.141 86.1912 25.241 85.5072 24.071C84.8412 22.901 84.5082 21.533 84.5082 19.967C84.5082 18.401 84.8412 17.033 85.5072 15.863C86.1912 14.693 87.1272 13.802 88.3152 13.19C89.5032 12.56 90.8442 12.245 92.3382 12.245ZM92.3382 16.241C91.4562 16.241 90.7092 16.565 90.0972 17.213C89.5032 17.843 89.2062 18.761 89.2062 19.967C89.2062 21.173 89.5032 22.091 90.0972 22.721C90.7092 23.351 91.4562 23.666 92.3382 23.666C93.2202 23.666 93.9582 23.351 94.5522 22.721C95.1462 22.091 95.4432 21.173 95.4432 19.967C95.4432 18.761 95.1462 17.843 94.5522 17.213C93.9582 16.565 93.2202 16.241 92.3382 16.241ZM107.152 15.269C107.728 14.351 108.466 13.622 109.366 13.082C110.284 12.542 111.274 12.272 112.336 12.272V17.213H111.013C109.789 17.213 108.835 17.474 108.151 17.996C107.485 18.518 107.152 19.4 107.152 20.642V27.5H102.535V12.434H107.152V15.269ZM128.579 19.562C128.579 19.94 128.534 20.354 128.444 20.804H117.995C118.049 21.938 118.337 22.757 118.859 23.261C119.381 23.747 120.047 23.99 120.857 23.99C121.541 23.99 122.108 23.819 122.558 23.477C123.008 23.135 123.305 22.694 123.449 22.154H128.336C128.138 23.216 127.706 24.17 127.04 25.016C126.374 25.844 125.528 26.501 124.502 26.987C123.476 27.455 122.333 27.689 121.073 27.689C119.597 27.689 118.283 27.383 117.131 26.771C115.997 26.141 115.106 25.241 114.458 24.071C113.81 22.901 113.486 21.533 113.486 19.967C113.486 18.383 113.801 17.015 114.431 15.863C115.079 14.693 115.979 13.802 117.131 13.19C118.283 12.56 119.597 12.245 121.073 12.245C122.567 12.245 123.881 12.551 125.015 13.163C126.149 13.775 127.022 14.639 127.634 15.755C128.264 16.853 128.579 18.122 128.579 19.562ZM123.908 18.86C123.926 17.87 123.656 17.132 123.098 16.646C122.558 16.142 121.883 15.89 121.073 15.89C120.227 15.89 119.525 16.142 118.967 16.646C118.409 17.15 118.094 17.888 118.022 18.86H123.908ZM140.544 12.272C142.272 12.272 143.64 12.848 144.648 14C145.674 15.152 146.187 16.736 146.187 18.752V27.5H141.57V19.292C141.57 18.284 141.3 17.501 140.76 16.943C140.238 16.367 139.536 16.079 138.654 16.079C137.718 16.079 136.971 16.376 136.413 16.97C135.873 17.564 135.603 18.41 135.603 19.508V27.5H130.986V12.434H135.603V15.188C136.035 14.288 136.674 13.577 137.52 13.055C138.384 12.533 139.392 12.272 140.544 12.272ZM157.764 23.531V27.5H155.685C153.921 27.5 152.544 27.068 151.554 26.204C150.582 25.322 150.096 23.873 150.096 21.857V16.322H148.071V12.434H150.096V8.735H154.713V12.434H157.737V16.322H154.713V21.938C154.713 22.532 154.83 22.946 155.064 23.18C155.316 23.414 155.73 23.531 156.306 23.531H157.764Z" fill="#263238"/>
<rect y="3.5" width="9" height="9" fill="#3EBA59"/>
<rect y="12.5" width="9" height="10" fill="#83EBFF"/>
<rect y="22.5" width="9" height="9" fill="#20C1E1"/>
<rect x="9" y="3.5" width="10" height="9" fill="#83EBFF"/>
<rect x="9" y="22.5" width="10" height="9" fill="#83EBFF"/>
<rect x="19" y="3.5" width="9" height="9" fill="#20C1E1"/>
<rect x="19" y="12.5" width="9" height="10" fill="#83EBFF"/>
<rect x="19" y="22.5" width="9" height="9" fill="#3EBA59"/>
<rect x="5" y="8.5" width="18" height="18" fill="white"/>
</svg>
