<svg width="159" height="80" viewBox="0 0 159 80" fill="none" xmlns="http://www.w3.org/2000/svg">
<g style="mix-blend-mode:multiply">
<path d="M77.3842 79.1244C99.2994 79.1244 117.065 61.5363 117.065 39.8402C117.065 18.1441 99.2994 0.555908 77.3842 0.555908C55.4689 0.555908 37.7031 18.1441 37.7031 39.8402C37.7031 61.5363 55.4689 79.1244 77.3842 79.1244Z" fill="white"/>
<path d="M77.3851 79.6801C55.1978 79.6801 37.1426 61.8055 37.1426 39.8401C37.1426 17.8747 55.1978 0 77.3851 0C99.5723 0 117.628 17.8747 117.628 39.8401C117.628 61.8055 99.5723 79.6801 77.3851 79.6801ZM77.3851 1.11161C55.8154 1.11161 38.2654 18.4861 38.2654 39.8401C38.2654 61.1941 55.8154 78.5685 77.3851 78.5685C98.9548 78.5685 116.505 61.1941 116.505 39.8401C116.505 18.4861 98.9548 1.11161 77.3851 1.11161Z" fill="#263238"/>
<path d="M83.0439 4.5465C83.3134 4.56873 83.5492 4.57984 83.7401 4.57984L83.7176 4.7577C83.4033 4.80217 83.1338 5.0356 82.9204 5.48025L80.2481 10.7715L80.1695 10.7604L80.1021 10.7493L78.4066 4.84663C78.2943 4.45757 78.1035 4.24636 77.834 4.21301L77.8564 4.03516C78.1035 4.07962 78.4291 4.11297 78.8333 4.15743C79.361 4.2019 79.754 4.23525 80.0123 4.23525L79.9898 4.4131C79.754 4.40199 79.5856 4.4131 79.4846 4.44645C79.3835 4.4798 79.3274 4.56873 79.3161 4.67989C79.3049 4.77993 79.3274 4.92444 79.3835 5.11342L80.6298 9.62655L82.4825 5.93601C82.6397 5.63587 82.7183 5.39132 82.7408 5.21346C82.7632 5.02449 82.7071 4.87998 82.5836 4.77993C82.4601 4.67989 82.258 4.62431 81.9885 4.59096L82.0109 4.4131C82.3366 4.46868 82.6846 4.51315 83.0439 4.5465Z" fill="#263238"/>
<path d="M90.5896 6.89197C90.4773 6.89197 90.3875 6.93644 90.3201 7.02537C90.2527 7.11429 90.1741 7.2588 90.0955 7.47001L88.4899 11.6941C88.4113 11.9053 88.3664 12.0721 88.3664 12.1832C88.3664 12.2944 88.4001 12.3833 88.4787 12.45C88.5573 12.5167 88.7032 12.5945 88.9053 12.6835L88.838 12.8502C88.5797 12.739 88.2204 12.5945 87.76 12.4167C87.266 12.2277 86.8955 12.1054 86.6484 12.0276L86.7158 11.8609C86.9291 11.9276 87.0863 11.9609 87.1874 11.9609C87.2885 11.9609 87.3895 11.9164 87.4569 11.8275C87.5243 11.7386 87.6028 11.5941 87.6814 11.3829L89.2871 7.15876C89.3657 6.94755 89.4106 6.78081 89.4106 6.66965C89.4106 6.55849 89.3769 6.46956 89.2983 6.40286C89.2197 6.33617 89.0738 6.25836 88.8717 6.16943L88.939 6.00269C89.1748 6.10273 89.5341 6.24724 90.0282 6.43621C90.4885 6.61407 90.8591 6.73635 91.1286 6.81416L91.0612 6.9809C90.8591 6.91421 90.7019 6.88086 90.5896 6.89197Z" fill="#263238"/>
<path d="M100.583 12.7723C100.471 12.7501 100.359 12.7834 100.258 12.8501C100.157 12.9168 100.033 13.0502 99.8985 13.2392L96.6423 17.6078L96.4739 17.4855L96.9118 10.4602L94.0261 14.3286C93.8914 14.5176 93.8015 14.6732 93.7566 14.7955C93.7117 14.9177 93.7342 15.0289 93.7903 15.1401C93.8464 15.2512 93.9812 15.3735 94.1721 15.5291L94.0598 15.6736C93.8914 15.5291 93.6443 15.3401 93.3187 15.0956C93.0268 14.8844 92.791 14.7176 92.6113 14.6176L92.7236 14.4731C92.9033 14.5954 93.0492 14.6621 93.1615 14.6732C93.2738 14.6954 93.3861 14.6621 93.4871 14.5954C93.5882 14.5176 93.7117 14.3953 93.8464 14.2063L96.4963 10.6492C96.6311 10.4602 96.7209 10.3157 96.7546 10.2156C96.7883 10.1156 96.7771 10.0155 96.7209 9.92661C96.6648 9.83768 96.5525 9.72652 96.3728 9.58201L96.4851 9.4375C96.6311 9.57089 96.8557 9.74875 97.1588 9.95996C97.3834 10.1267 97.5743 10.2601 97.7539 10.3601L97.3946 16.2517L99.7301 13.1169C99.8649 12.928 99.9659 12.7723 99.9996 12.6501C100.033 12.5278 100.022 12.4166 99.9659 12.3055C99.9098 12.1943 99.775 12.0609 99.5841 11.9164L99.6964 11.7719C99.8649 11.9164 100.112 12.1054 100.438 12.3499C100.729 12.5611 100.965 12.7279 101.145 12.8279L101.033 12.9724C100.842 12.8613 100.696 12.7834 100.583 12.7723Z" fill="#263238"/>
<path d="M104.344 17.7858C104.636 17.5746 104.939 17.3411 105.265 17.0521C105.545 17.4745 106.04 18.1748 106.747 19.1642C107.454 20.1424 107.96 20.8316 108.263 21.2318C107.881 21.4541 107.555 21.6542 107.263 21.8543C107.016 22.0321 106.814 22.1878 106.668 22.31L106.545 22.1433C106.904 21.832 107.151 21.5764 107.297 21.3874C107.443 21.1984 107.499 20.9983 107.488 20.7871C107.477 20.5759 107.342 20.3203 107.129 20.009L106.837 19.6088L102.581 22.6102C102.379 22.7547 102.233 22.8881 102.166 22.9881C102.098 23.0882 102.076 23.2104 102.121 23.3438C102.155 23.4661 102.256 23.644 102.402 23.8663L102.256 23.9774C102.087 23.7107 101.829 23.3327 101.492 22.877C101.133 22.3767 100.863 22.021 100.684 21.7987L100.83 21.6875C100.998 21.8987 101.133 22.0432 101.245 22.1211C101.357 22.1989 101.47 22.2211 101.593 22.1878C101.717 22.1544 101.885 22.0655 102.087 21.921L106.343 18.9196L106.051 18.5194C105.826 18.2082 105.624 18.0192 105.433 17.9303C105.242 17.8414 105.029 17.8303 104.804 17.9081C104.58 17.9859 104.254 18.1304 103.839 18.3638L103.715 18.1971C103.884 18.1082 104.086 17.9748 104.344 17.7858Z" fill="#263238"/>
<path d="M106.501 33.2149L106.321 33.2705C106.254 33.0259 106.164 32.7147 106.029 32.3367C105.861 31.8476 105.726 31.4808 105.625 31.2362L105.804 31.1807C105.883 31.3919 105.973 31.5475 106.04 31.6253C106.119 31.7031 106.22 31.7253 106.332 31.6809C106.433 31.6475 106.557 31.5697 106.703 31.4474L107.949 30.4359L107.242 28.3572L106.197 28.3127C105.861 28.2905 105.602 28.3127 105.423 28.3794C105.243 28.4461 105.131 28.5461 105.086 28.6906C105.052 28.8352 105.075 29.0464 105.153 29.302L104.974 29.3576C104.884 29.0241 104.771 28.6906 104.659 28.3572C104.569 28.1015 104.491 27.8903 104.412 27.7236L104.592 27.668C104.749 27.9348 105.086 28.0793 105.58 28.0904L111.553 28.3572L111.598 28.4906L106.837 32.4145C106.546 32.6924 106.433 32.9481 106.501 33.2149ZM110.397 28.4906L107.455 28.3683L108.117 30.3247L110.397 28.4906Z" fill="#263238"/>
<path d="M107.32 41.7189C107.432 41.6744 107.488 41.6188 107.488 41.541C107.488 41.4966 107.477 41.4632 107.455 41.4299C107.432 41.3965 107.387 41.3298 107.32 41.2409C107.152 41.0297 107.028 40.8074 106.938 40.585C106.848 40.3627 106.803 40.1071 106.803 39.8292C106.792 39.2067 106.916 38.6731 107.163 38.2173C107.421 37.7616 107.78 37.417 108.274 37.1724C108.757 36.9279 109.341 36.8056 110.026 36.7945C110.733 36.7833 111.351 36.8945 111.879 37.1391C112.406 37.3836 112.822 37.7171 113.114 38.1617C113.406 38.6064 113.563 39.1066 113.563 39.6624C113.563 39.907 113.54 40.1293 113.496 40.3183C113.451 40.5072 113.383 40.674 113.305 40.8185C113.226 40.963 113.125 41.1297 112.99 41.3076C112.934 41.3854 112.9 41.4521 112.9 41.4966C112.9 41.6077 113.091 41.6855 113.462 41.7189V41.9301C113.069 41.9079 112.361 41.9079 111.351 41.9301V41.7189C111.677 41.6633 111.946 41.5966 112.159 41.5299C112.373 41.4632 112.552 41.3632 112.71 41.2409C112.923 41.063 113.103 40.8296 113.226 40.5406C113.35 40.2516 113.406 39.9625 113.406 39.6513C113.394 39.2511 113.26 38.9065 112.99 38.6064C112.721 38.3062 112.339 38.0839 111.856 37.9172C111.362 37.7616 110.801 37.6837 110.149 37.6949C109.408 37.706 108.813 37.7949 108.342 37.9617C107.87 38.1284 107.533 38.3729 107.309 38.6953C107.084 39.0177 106.983 39.429 106.994 39.9292C107.006 40.296 107.107 40.6073 107.297 40.8741C107.376 40.9852 107.443 41.0519 107.522 41.0853C107.589 41.1186 107.69 41.1297 107.814 41.1297L108.701 41.1186C108.959 41.1186 109.139 41.0853 109.262 41.0408C109.375 40.9963 109.465 40.9074 109.498 40.774C109.543 40.6517 109.566 40.4517 109.566 40.1849H109.745C109.734 40.485 109.723 40.9074 109.734 41.4743C109.745 41.8967 109.757 42.2191 109.779 42.4192H109.599C109.588 42.2747 109.554 42.1746 109.521 42.1191C109.487 42.0635 109.408 42.019 109.307 41.9968C109.206 41.9746 109.038 41.9634 108.802 41.9746L106.983 42.0079V41.83C107.084 41.7856 107.208 41.7634 107.32 41.7189Z" fill="#263238"/>
<path d="M105.983 51.1785C105.658 51.0784 105.276 50.9784 104.838 50.8895C104.984 50.5004 105.197 49.8446 105.5 48.9108C105.86 47.7992 106.118 46.9544 106.275 46.3875L106.455 46.443C106.399 46.6542 106.376 46.8099 106.376 46.921C106.387 47.0322 106.432 47.11 106.522 47.1767C106.612 47.2434 106.769 47.3101 106.983 47.3768L111.328 48.7329C111.552 48.7996 111.71 48.833 111.822 48.833C111.934 48.833 112.024 48.7885 112.091 48.6996C112.159 48.6107 112.226 48.4662 112.305 48.2661L112.484 48.3217C112.282 48.8886 112.013 49.7223 111.654 50.8339C111.384 51.6787 111.193 52.2901 111.103 52.6569C110.733 52.5013 110.396 52.3679 110.082 52.279C109.857 52.2123 109.666 52.1567 109.531 52.1345L109.599 51.9344C109.992 52.0122 110.295 52.0455 110.497 52.0455C110.699 52.0455 110.868 51.9788 111.002 51.8455C111.137 51.7232 111.249 51.5009 111.35 51.2007L111.575 50.4782C111.642 50.267 111.676 50.1113 111.665 50.0113C111.654 49.9113 111.62 49.8223 111.53 49.7556C111.44 49.6889 111.294 49.6222 111.07 49.5555L109.004 48.9108L108.824 49.4888C108.734 49.7779 108.757 50.0002 108.903 50.1558C109.049 50.3114 109.206 50.4226 109.385 50.5004C109.565 50.5782 109.677 50.6338 109.722 50.656L109.655 50.8561C109.374 50.745 109.105 50.6449 108.835 50.5671L108.42 50.4448C108.128 50.3559 107.701 50.2336 107.162 50.1113L107.23 49.9113C107.274 49.9224 107.42 49.9446 107.667 50.0002C107.914 50.0446 108.128 50.0224 108.296 49.9335C108.465 49.8446 108.577 49.6778 108.656 49.4444L108.835 48.8663L106.724 48.2105C106.5 48.1438 106.342 48.1104 106.23 48.1104C106.118 48.1104 106.028 48.1549 105.972 48.2438C105.905 48.3328 105.837 48.4773 105.77 48.6885L105.568 49.3221C105.455 49.6889 105.411 49.978 105.455 50.1892C105.489 50.4115 105.601 50.5893 105.792 50.745C105.983 50.8895 106.275 51.0562 106.668 51.2341L106.601 51.4342C106.466 51.3341 106.253 51.2674 105.983 51.1785Z" fill="#263238"/>
<path d="M102.784 64.8181C102.829 64.718 102.817 64.618 102.773 64.518C102.728 64.4179 102.615 64.2956 102.447 64.1289L99.1458 61.0053C98.9773 60.8496 98.8426 60.7496 98.7415 60.7051C98.6405 60.6607 98.5394 60.6607 98.4384 60.7051C98.3373 60.7496 98.2138 60.8496 98.0566 61.0053L97.9219 60.883C98.1352 60.694 98.4047 60.4161 98.7528 60.0715C99.1121 59.6936 99.3816 59.4045 99.55 59.2156L99.6847 59.3379C99.5388 59.5046 99.4489 59.638 99.404 59.7269C99.3591 59.827 99.3703 59.927 99.4152 60.0271C99.4602 60.1271 99.5724 60.2494 99.7409 60.4161L103.042 63.5397C103.21 63.6954 103.345 63.7954 103.446 63.8399C103.547 63.8843 103.648 63.8843 103.749 63.8399C103.85 63.7954 103.974 63.6954 104.131 63.5397L104.266 63.662C104.075 63.8288 103.794 64.1067 103.435 64.4846C103.087 64.8403 102.829 65.1293 102.649 65.3405L102.514 65.2183C102.649 65.0515 102.739 64.9181 102.784 64.8181Z" fill="#263238"/>
<path d="M93.4296 71.5988C93.497 71.4987 93.5082 71.3987 93.4858 71.2764C93.4633 71.1541 93.3847 70.9985 93.2612 70.7873L90.4766 66.1074L90.6562 65.9963L97.0115 69.1421L94.5525 65.0069C94.429 64.8069 94.3279 64.6623 94.2268 64.5845C94.1258 64.5067 94.0135 64.4734 93.89 64.4845C93.7665 64.4956 93.5981 64.5623 93.3847 64.6735L93.2837 64.5178C93.4858 64.4289 93.7552 64.2733 94.1033 64.0732C94.4177 63.8842 94.6535 63.7397 94.8219 63.6174L94.9118 63.7731C94.7321 63.8842 94.6086 63.9954 94.5525 64.0954C94.4851 64.1955 94.4739 64.2955 94.4963 64.4178C94.5188 64.5401 94.5974 64.6957 94.7209 64.9069L96.989 68.7197C97.1013 68.9198 97.2024 69.0532 97.2922 69.1199C97.382 69.1866 97.4718 69.2199 97.5841 69.1977C97.6852 69.1755 97.8424 69.1199 98.0333 69.0199L98.1231 69.1755C97.9434 69.2644 97.6964 69.3978 97.3708 69.5868C97.135 69.7202 96.9329 69.8536 96.7644 69.9647L91.431 67.3302L93.4296 70.6873C93.5531 70.8874 93.6542 71.0319 93.7552 71.1097C93.8451 71.1875 93.9574 71.2208 94.0921 71.2097C94.2268 71.1986 94.3953 71.1319 94.6086 71.0207L94.6984 71.1764C94.4963 71.2653 94.2268 71.4209 93.8788 71.621C93.5644 71.81 93.3286 71.9545 93.1601 72.0768L93.0703 71.9211C93.2387 71.7989 93.3623 71.6877 93.4296 71.5988Z" fill="#263238"/>
<path d="M87.2549 73.055C87.3335 73.3996 87.4346 73.7776 87.5693 74.1778C87.064 74.2667 86.2219 74.4445 85.0317 74.6891C83.8415 74.9448 83.0106 75.1337 82.5165 75.256C82.4604 74.8225 82.4042 74.4445 82.3257 74.0999C82.2583 73.7998 82.2021 73.5553 82.1348 73.3774L82.3369 73.3329C82.4828 73.7887 82.6176 74.1111 82.7411 74.3223C82.8646 74.5335 83.0218 74.6669 83.2239 74.7336C83.426 74.8003 83.718 74.7891 84.0885 74.7113L84.5713 74.6113L83.4709 69.5535C83.4148 69.3089 83.3587 69.131 83.2801 69.031C83.2015 68.931 83.1116 68.8643 82.9769 68.8531C82.8422 68.8309 82.64 68.8531 82.3706 68.8976L82.3369 68.7198C82.6513 68.6753 83.1004 68.5864 83.6618 68.4641C84.2569 68.3307 84.7061 68.2306 84.9868 68.1528L85.0205 68.3307C84.751 68.3974 84.5713 68.4641 84.459 68.5308C84.3468 68.5975 84.2794 68.6975 84.2569 68.8198C84.2345 68.9421 84.2457 69.131 84.3018 69.3756L85.4022 74.4334L85.885 74.3334C86.2556 74.2556 86.5251 74.1444 86.6823 73.9999C86.8395 73.8554 86.9293 73.6664 86.9517 73.433C86.9742 73.1995 86.963 72.8438 86.9068 72.3769L87.1089 72.3325C87.1426 72.5103 87.1875 72.7549 87.2549 73.055Z" fill="#263238"/>
<path d="M72.3549 69.9313C72.3886 69.5867 72.3998 69.1977 72.3998 68.7642C72.8153 68.8197 73.5114 68.8864 74.4995 68.9754C75.6673 69.0754 76.5543 69.1532 77.1607 69.1866L77.1494 69.3644C76.9249 69.3533 76.7677 69.3644 76.6666 69.3978C76.5656 69.4311 76.487 69.4867 76.442 69.5867C76.3971 69.6868 76.3634 69.8535 76.341 70.0759L75.9368 74.5779C75.9143 74.8002 75.9255 74.9669 75.948 75.0781C75.9705 75.1893 76.0378 75.2671 76.1389 75.3115C76.2399 75.356 76.3971 75.4005 76.6105 75.4227L76.5992 75.6006C76.0041 75.5339 75.1171 75.4449 73.9493 75.3449C73.0511 75.2671 72.4111 75.2226 72.0293 75.2004C72.1079 74.8113 72.164 74.4556 72.1865 74.1332C72.209 73.8998 72.2202 73.7108 72.209 73.5663L72.4223 73.5885C72.4335 73.9887 72.456 74.2777 72.5121 74.4778C72.557 74.6779 72.6581 74.8224 72.8153 74.9225C72.9613 75.0225 73.2083 75.0892 73.5227 75.1114L74.2862 75.1781C74.5108 75.2004 74.668 75.1893 74.769 75.167C74.8701 75.1448 74.9487 75.0781 74.9936 74.9781C75.0385 74.878 75.0722 74.7113 75.0946 74.4889L75.2855 72.3547L74.6792 72.2991C74.376 72.2768 74.1627 72.3435 74.0392 72.5214C73.9269 72.6993 73.8371 72.8771 73.8034 73.0661C73.7585 73.2551 73.736 73.3773 73.7248 73.4329L73.5114 73.4107C73.5564 73.1106 73.59 72.8326 73.6237 72.5547L73.6574 72.1212C73.6799 71.81 73.7023 71.3876 73.7248 70.8318L73.9381 70.854C73.9381 70.8985 73.9493 71.043 73.9493 71.2986C73.9606 71.5543 74.0167 71.7544 74.1515 71.8878C74.275 72.0323 74.4659 72.1101 74.7129 72.1323L75.3192 72.1879L75.5101 70.0092C75.5325 69.7868 75.5213 69.6201 75.4989 69.5089C75.4764 69.4089 75.409 69.3311 75.308 69.2866C75.2069 69.2422 75.0497 69.2088 74.8364 69.1866L74.1627 69.131C73.7809 69.0976 73.489 69.1199 73.2756 69.2088C73.0735 69.2866 72.9163 69.4422 72.8041 69.6534C72.6918 69.8647 72.6019 70.187 72.5121 70.6094L72.2988 70.5872C72.2988 70.4205 72.3212 70.1981 72.3549 69.9313Z" fill="#263238"/>
<path d="M63.5187 65.8074C63.6871 65.774 63.878 65.8074 64.0801 65.8963C64.3159 65.9963 64.4731 66.1408 64.5629 66.3298C64.6528 66.5299 64.664 66.8078 64.6079 67.1746L64.4394 68.0862C64.3833 68.4085 64.3496 68.6531 64.3384 68.8421C64.3271 69.0199 64.3721 69.1867 64.4507 69.3312C64.5293 69.4757 64.6752 69.5868 64.8886 69.6758L65.697 70.0092L66.5167 68.075C66.6065 67.8638 66.6514 67.7082 66.6626 67.5971C66.6739 67.4859 66.629 67.397 66.5504 67.3192C66.4718 67.2413 66.337 67.1635 66.1349 67.0746L66.2023 66.9079C66.4605 67.0301 66.8086 67.1858 67.269 67.3747C67.7518 67.5748 68.1223 67.7193 68.3694 67.7971L68.302 67.9639C68.0886 67.8861 67.9315 67.8527 67.8304 67.8416C67.7181 67.8416 67.6283 67.875 67.5609 67.9639C67.4823 68.0417 67.4037 68.1862 67.3139 68.3974L65.551 72.5659C65.4612 72.7771 65.4163 72.9328 65.4051 73.0439C65.3938 73.1551 65.4388 73.244 65.5174 73.3218C65.596 73.3997 65.7307 73.4775 65.9328 73.5775L65.8654 73.7442C65.6296 73.6331 65.2928 73.4775 64.8436 73.2885C64.6191 73.1996 64.3833 73.0995 64.1138 72.9884C63.8443 72.8772 63.6647 72.8105 63.5636 72.766C63.1257 72.5771 62.7776 72.3659 62.5194 72.1102C62.2611 71.8545 62.1152 71.5877 62.0478 71.2987C61.9804 71.0097 62.0141 70.7318 62.1376 70.4539C62.2274 70.2316 62.3734 70.0315 62.5755 69.8536C62.7776 69.6758 63.0359 69.5424 63.3503 69.4757C63.6647 69.409 64.0464 69.4201 64.4619 69.5201L64.3608 69.4646C64.125 69.32 63.9454 69.1755 63.8331 69.0199C63.7208 68.8754 63.6422 68.7087 63.6198 68.5308C63.5861 68.3529 63.5973 68.1306 63.6422 67.8638L63.7994 66.919C63.8331 66.73 63.8556 66.5855 63.8556 66.4743C63.8556 66.3632 63.8443 66.2742 63.8106 66.2075C63.777 66.1408 63.7208 66.0853 63.6422 66.063C63.5524 66.0186 63.4626 66.0186 63.384 66.0408C63.3054 66.063 63.1931 66.1186 63.0471 66.1964L62.9573 66.0519C63.1594 65.9296 63.3503 65.8407 63.5187 65.8074ZM64.0801 69.7647C63.8106 69.798 63.5973 69.8981 63.4289 70.0648C63.2604 70.2316 63.1145 70.4539 62.991 70.7429C62.8001 71.1987 62.7552 71.5988 62.8787 71.9212C63.0022 72.2436 63.3054 72.5104 63.8106 72.7216C63.9903 72.7994 64.125 72.8327 64.2373 72.8216C64.3384 72.8216 64.4282 72.7771 64.5068 72.6882C64.5854 72.5993 64.664 72.4548 64.7426 72.2547L65.6184 70.1871L65.0458 69.9537C64.6752 69.798 64.3496 69.7313 64.0801 69.7647Z" fill="#263238"/>
<path d="M54.7597 67.3191C54.8607 67.3525 54.9618 67.3302 55.0516 67.2747C55.1414 67.2191 55.2649 67.0968 55.4109 66.919L58.2292 63.3618C58.3752 63.1839 58.465 63.0394 58.4987 62.9394C58.5324 62.8393 58.5212 62.7393 58.465 62.6504C58.4089 62.5614 58.2966 62.4392 58.1282 62.2947L58.2405 62.1501C58.4538 62.3391 58.7457 62.5837 59.1387 62.8838C59.5542 63.2062 59.8686 63.4396 60.0819 63.5841L59.9696 63.7286C59.79 63.5952 59.644 63.5174 59.543 63.4952C59.4419 63.4618 59.3408 63.473 59.251 63.5397C59.1612 63.5952 59.0377 63.7175 58.8917 63.8954L56.0734 67.4525C55.9274 67.6304 55.8376 67.7749 55.8039 67.8749C55.7702 67.975 55.7814 68.075 55.8376 68.164C55.8937 68.2529 56.006 68.3752 56.1744 68.5197L56.0622 68.6642C55.8713 68.4974 55.5681 68.2529 55.1527 67.9194C54.7597 67.6193 54.4453 67.3858 54.2207 67.2302L54.333 67.0857C54.5239 67.208 54.6586 67.2858 54.7597 67.3191Z" fill="#263238"/>
<path d="M47.5058 59.4045C47.4608 58.9043 47.5731 58.4041 47.8314 57.9261C48.1009 57.437 48.5051 57.0035 49.0665 56.5922C49.6167 56.2031 50.1669 55.9474 50.7395 55.8474C51.3122 55.7473 51.8399 55.7807 52.334 55.9697C52.828 56.1586 53.2435 56.481 53.5691 56.9368C53.9172 57.4036 54.108 57.8927 54.1529 58.393C54.1979 58.8932 54.0856 59.3934 53.8273 59.8714C53.5578 60.3605 53.1536 60.7941 52.5922 61.2053C52.042 61.5944 51.4918 61.8501 50.9192 61.9501C50.3578 62.0502 49.8188 62.0168 49.3247 61.8278C48.8307 61.6389 48.4152 61.3165 48.0896 60.8719C47.7415 60.3939 47.5507 59.9048 47.5058 59.4045ZM49.19 61.3832C49.583 61.461 50.0321 61.4277 50.5262 61.272C51.0202 61.1164 51.5143 60.8607 52.0308 60.4828C52.5473 60.116 52.9515 59.7158 53.2322 59.2934C53.5242 58.871 53.6814 58.4486 53.7038 58.0484C53.7375 57.6482 53.6364 57.2925 53.4231 56.9923C53.1873 56.6811 52.8841 56.481 52.4799 56.4032C52.0869 56.3254 51.6378 56.3587 51.1437 56.5144C50.6497 56.67 50.1556 56.9257 49.6391 57.2925C49.1226 57.6593 48.7184 58.0595 48.4377 58.493C48.1458 58.9154 47.9886 59.3267 47.9549 59.738C47.9212 60.1382 48.0223 60.4939 48.2356 60.794C48.4714 61.1053 48.7858 61.3054 49.19 61.3832Z" fill="#263238"/>
<path d="M48.3704 46.0207C48.5052 46.1207 48.6062 46.2875 48.6736 46.5098C48.7522 46.7432 48.741 46.9656 48.6511 47.1545C48.5613 47.3546 48.348 47.5436 48.0223 47.7326L47.2027 48.1883C46.922 48.3551 46.7086 48.4885 46.5627 48.5996C46.4167 48.7108 46.3156 48.8442 46.2595 48.9998C46.2033 49.1554 46.2033 49.3333 46.2707 49.5556L46.529 50.3893L48.5501 49.7668C48.7746 49.7001 48.9206 49.6334 49.0104 49.5667C49.1003 49.5 49.1452 49.4111 49.1564 49.3111C49.1676 49.211 49.134 49.0443 49.0778 48.8331L49.2575 48.7775C49.3248 49.0443 49.4259 49.4222 49.5831 49.8891C49.7403 50.3893 49.8638 50.7561 49.9536 50.9896L49.774 51.0452C49.6954 50.834 49.628 50.6894 49.5606 50.6116C49.4933 50.5338 49.4034 50.4782 49.2911 50.4782C49.1789 50.4782 49.0104 50.5005 48.7971 50.5783L44.4405 51.9122C44.2159 51.9789 44.07 52.0456 43.9801 52.1123C43.8903 52.179 43.8454 52.2679 43.8342 52.368C43.8229 52.4791 43.8566 52.6348 43.9128 52.846L43.7331 52.9016C43.677 52.657 43.5759 52.3013 43.4299 51.8344C43.3626 51.6121 43.2727 51.3564 43.1829 51.0896C43.0931 50.8228 43.0257 50.6339 42.992 50.5338C42.8461 50.0781 42.8011 49.6779 42.8348 49.3222C42.8685 48.9665 42.9808 48.6774 43.1605 48.444C43.3401 48.2106 43.5759 48.0549 43.8678 47.966C44.0924 47.8993 44.3394 47.8771 44.6089 47.9104C44.8784 47.9438 45.1367 48.0549 45.4061 48.255C45.6756 48.4551 45.9002 48.7441 46.0911 49.1332L46.0798 49.022C46.0461 48.7441 46.0349 48.5218 46.0798 48.3328C46.1247 48.1439 46.2033 47.9882 46.3156 47.8548C46.4391 47.7215 46.6188 47.5769 46.8546 47.4436L47.6855 46.9544C47.8539 46.8655 47.9887 46.7766 48.0673 46.7099C48.1459 46.6432 48.2132 46.5765 48.2469 46.5098C48.2806 46.4431 48.2806 46.3653 48.2581 46.2875C48.2245 46.1874 48.1795 46.1207 48.1122 46.0763C48.0448 46.0318 47.9325 45.9762 47.7753 45.9206L47.8315 45.7539C48.056 45.8317 48.2469 45.9206 48.3704 46.0207ZM45.6868 48.9998C45.496 48.8219 45.2714 48.7219 45.0356 48.6997C44.7998 48.6774 44.5303 48.7108 44.2272 48.8108C43.7443 48.9553 43.4187 49.1888 43.2391 49.4889C43.0594 49.789 43.0594 50.2003 43.2166 50.7006C43.2727 50.8784 43.3401 51.0118 43.4075 51.0896C43.4749 51.1674 43.5759 51.2119 43.6882 51.2119C43.8005 51.2119 43.9689 51.1786 44.171 51.123L46.3269 50.456L46.1472 49.8669C46.0349 49.4667 45.8777 49.1777 45.6868 48.9998Z" fill="#263238"/>
<path d="M47.506 35.4716C47.9327 35.2826 48.191 34.9269 48.3033 34.3933C48.3369 34.1932 48.3369 33.9931 48.2808 33.8042C48.2247 33.6152 48.1236 33.4484 47.9664 33.3039C47.8092 33.1594 47.5959 33.0594 47.3152 33.0149C47.0794 32.9705 46.866 32.9927 46.6639 33.0705C46.4618 33.1483 46.2597 33.2706 46.0688 33.4373C45.8779 33.6041 45.6534 33.8264 45.4063 34.1043C45.1256 34.4155 44.8786 34.6712 44.6653 34.8491C44.4519 35.038 44.2161 35.1714 43.9579 35.2715C43.6996 35.3715 43.4077 35.3826 43.0821 35.3271C42.7452 35.2604 42.4645 35.1381 42.2624 34.938C42.0603 34.7379 41.9143 34.5045 41.8469 34.2266C41.7796 33.9487 41.7796 33.6596 41.8357 33.3484C41.8694 33.1594 41.9143 33.0149 41.9705 32.8815C42.0266 32.7481 42.0827 32.6481 42.1501 32.5703C42.2175 32.4925 42.2849 32.4035 42.3747 32.3146C42.487 32.1923 42.5431 32.1034 42.5656 32.0367C42.5768 31.9811 42.5543 31.9367 42.4982 31.8922C42.4421 31.8477 42.341 31.8144 42.2063 31.7699L42.2399 31.5698C42.588 31.6588 43.1944 31.7921 44.0814 31.9589L44.0477 32.159C43.7333 32.1256 43.4414 32.1367 43.1494 32.2034C42.8687 32.259 42.6217 32.3813 42.4196 32.5703C42.2175 32.7481 42.0827 33.0038 42.0266 33.3151C41.9817 33.5263 41.9929 33.7152 42.0491 33.9042C42.1052 34.0932 42.2063 34.2377 42.341 34.36C42.487 34.4822 42.6554 34.5601 42.8575 34.6045C43.1831 34.6601 43.4638 34.6156 43.6996 34.46C43.9354 34.3044 44.16 34.1043 44.3733 33.8709C44.5867 33.6374 44.7214 33.4818 44.8 33.404C45.1144 33.0705 45.3727 32.8148 45.586 32.6259C45.7993 32.4369 46.0351 32.3035 46.2934 32.2146C46.5516 32.1256 46.8323 32.1145 47.1355 32.1701C47.506 32.2368 47.8092 32.3813 48.0338 32.5925C48.2583 32.8148 48.4043 33.0705 48.4829 33.3817C48.5615 33.693 48.5615 34.0265 48.4941 34.3822C48.438 34.6712 48.3706 34.8935 48.2696 35.0714C48.1798 35.2492 48.0562 35.4049 47.9215 35.5494C47.8092 35.6717 47.7531 35.7606 47.7306 35.8273C47.7194 35.8829 47.7418 35.9273 47.798 35.9718C47.8541 36.0163 47.9552 36.0607 48.0899 36.0941L48.0562 36.2942C47.7306 36.2052 47.012 36.0607 45.9004 35.8606L45.9341 35.6605C46.5629 35.7161 47.0794 35.6605 47.506 35.4716Z" fill="#263238"/>
<path d="M45.283 26.1006C44.9686 25.9339 44.6093 25.7783 44.2051 25.6227C44.4521 25.1891 44.8676 24.4332 45.429 23.355C45.9904 22.2878 46.3834 21.5319 46.5967 21.0762C46.9673 21.3096 47.3041 21.5097 47.6073 21.6653C47.8768 21.8098 48.1126 21.9099 48.2922 21.9877L48.1912 22.1767C47.742 21.9988 47.4052 21.8876 47.1694 21.8543C46.9336 21.8098 46.7202 21.8543 46.5406 21.9655C46.3609 22.0766 46.1813 22.2989 46.0128 22.6324L45.7883 23.0771L50.4256 25.467C50.6502 25.5893 50.8298 25.6449 50.9533 25.656C51.0768 25.6671 51.1891 25.6338 51.2902 25.5448C51.3912 25.4559 51.5035 25.2892 51.6383 25.0557L51.8067 25.1447C51.6383 25.4226 51.4249 25.8116 51.1554 26.323C50.8747 26.8565 50.6726 27.2678 50.5491 27.5235L50.3807 27.4346C50.493 27.19 50.5716 27.001 50.5828 26.8788C50.6053 26.7454 50.5716 26.6342 50.4817 26.5342C50.3919 26.4341 50.2459 26.3341 50.0214 26.2118L45.3841 23.8107L45.1483 24.2443C44.9686 24.5777 44.89 24.8445 44.9012 25.0557C44.9125 25.2669 45.0023 25.4559 45.1707 25.6227C45.3391 25.7894 45.6199 26.0117 46.0241 26.2674L45.923 26.4564C45.7771 26.3674 45.5525 26.2452 45.283 26.1006Z" fill="#263238"/>
<path d="M53.2108 13.3283C53.4017 13.1394 53.5589 12.9615 53.6712 12.8281L53.8059 12.9615C53.7385 13.0616 53.7048 13.2061 53.7161 13.3728C53.7273 13.5396 53.7722 13.773 53.862 14.0509L54.8838 17.0634L56.074 18.2305C56.2425 18.3862 56.366 18.4973 56.467 18.5418C56.5681 18.5863 56.6691 18.5863 56.7702 18.5418C56.8712 18.4973 56.9948 18.3973 57.1632 18.2528L57.2979 18.3862C57.0846 18.5751 56.8039 18.8419 56.4558 19.1865C56.0853 19.5534 55.8158 19.8424 55.6474 20.0314L55.5126 19.898C55.6586 19.7312 55.7596 19.6089 55.8046 19.5089C55.8495 19.4088 55.8495 19.3088 55.7933 19.2088C55.7484 19.1087 55.6361 18.9753 55.4789 18.8197L54.4908 17.8526L50.7406 16.7632C50.516 16.6965 50.3476 16.6743 50.2353 16.6854C50.123 16.6965 50.0444 16.7299 49.9883 16.7855L49.8535 16.6521C50.0332 16.4964 50.2353 16.3186 50.4374 16.1074C50.8528 15.685 51.156 15.3848 51.3244 15.1847L51.4592 15.3181C51.156 15.6183 51.0886 15.8517 51.2571 16.0184C51.3244 16.0851 51.4143 16.1296 51.549 16.1741L54.7042 17.1412L53.8733 14.6845C53.7498 14.3288 53.6263 14.0842 53.4915 13.962C53.368 13.8397 53.2333 13.8063 53.0873 13.8508C52.9413 13.8953 52.7729 14.0064 52.5708 14.1954L52.436 14.062C52.7055 13.8175 52.9525 13.5729 53.2108 13.3283Z" fill="#263238"/>
<path d="M60.0036 8.84845C59.9362 8.92626 59.9025 9.02631 59.925 9.13747C59.9474 9.24863 60.0036 9.40426 60.1159 9.60435L62.2829 13.5839C62.3952 13.784 62.4851 13.9174 62.5749 13.9952C62.6535 14.073 62.7545 14.0952 62.8556 14.0841C62.9566 14.073 63.1138 14.0063 63.3047 13.9063L63.8998 13.5839C64.2367 13.406 64.4725 13.2171 64.596 13.0281C64.7195 12.8391 64.7644 12.6279 64.7307 12.3723C64.697 12.1166 64.596 11.7942 64.4163 11.3718L64.6072 11.2718C64.6858 11.4496 64.7981 11.6719 64.9441 11.9387C65.1125 12.2389 65.3146 12.5723 65.5616 12.9392C65.1911 13.117 64.5623 13.4394 63.6977 13.9063C62.6647 14.4621 61.8787 14.8845 61.3622 15.1846L61.2724 15.029C61.4633 14.9178 61.598 14.8178 61.6654 14.74C61.7328 14.6622 61.7664 14.5621 61.744 14.451C61.7215 14.3398 61.6654 14.1842 61.5531 13.9841L59.3636 10.0045C59.2513 9.80444 59.1615 9.67104 59.0716 9.59323C58.993 9.51542 58.892 9.49319 58.7909 9.5043C58.6786 9.51542 58.5327 9.571 58.3306 9.67104L58.252 9.5043C58.4877 9.40426 58.8358 9.2264 59.2962 8.97073C59.7341 8.73729 60.0709 8.54832 60.3067 8.40381L60.3966 8.55943C60.2057 8.67059 60.0822 8.77064 60.0036 8.84845Z" fill="#263238"/>
<path d="M73.6791 9.55984C73.7465 9.89332 73.8475 10.2713 73.9711 10.6937C73.5556 10.7604 72.8707 10.8826 71.905 11.0716C70.7485 11.2939 69.8839 11.4718 69.2888 11.6052L69.2551 11.4273C69.4685 11.3718 69.6257 11.3273 69.7155 11.2606C69.8053 11.205 69.8615 11.1161 69.8727 11.016C69.8839 10.9049 69.8727 10.7381 69.8278 10.5158L68.952 6.0805C68.9071 5.85818 68.8622 5.70255 68.7948 5.60251C68.7274 5.50246 68.66 5.44688 68.5478 5.43577C68.4467 5.41353 68.2783 5.42465 68.0649 5.458L68.0312 5.28014C68.6264 5.1801 69.5022 5.02447 70.6475 4.80215C71.5345 4.62429 72.1633 4.50201 72.5226 4.41309C72.5563 4.81327 72.6124 5.16898 72.6686 5.48023C72.7135 5.71367 72.7584 5.89153 72.8033 6.02492L72.6012 6.06938C72.4777 5.69144 72.3654 5.41353 72.2643 5.23568C72.1633 5.05782 72.0173 4.94666 71.8489 4.89108C71.6692 4.8355 71.4334 4.8355 71.1078 4.90219L70.3555 5.0467C70.1422 5.09117 69.985 5.13563 69.8952 5.19121C69.8053 5.24679 69.7492 5.32461 69.7267 5.43577C69.7155 5.54693 69.7267 5.71367 69.7716 5.93599L70.1871 8.04805L70.7822 7.92577C71.0854 7.87019 71.265 7.7368 71.3324 7.53671C71.3998 7.33662 71.4222 7.14764 71.411 6.95867C71.3998 6.7697 71.3885 6.64742 71.3885 6.59184L71.5906 6.54737C71.6243 6.84751 71.6692 7.12541 71.7254 7.3922L71.8152 7.81461C71.8714 8.11474 71.9724 8.53715 72.1184 9.07073L71.9163 9.11519C71.905 9.07073 71.8601 8.93733 71.7815 8.69278C71.7029 8.44823 71.5906 8.28149 71.4222 8.18144C71.2538 8.0814 71.0629 8.05916 70.8159 8.10363L70.2208 8.21479L70.6475 10.3602C70.6924 10.5825 70.7373 10.7381 70.7934 10.8382C70.8496 10.9271 70.9282 10.9827 71.0405 11.0049C71.1415 11.016 71.3099 11.0049 71.5233 10.9605L72.1857 10.8271C72.5563 10.7493 72.837 10.6492 73.0166 10.5158C73.1963 10.3824 73.2974 10.1935 73.3423 9.96001C73.3872 9.72658 73.3872 9.39309 73.3535 8.95957L73.5556 8.9151C73.5893 9.08184 73.623 9.29305 73.6791 9.55984Z" fill="#263238"/>
<path d="M66.1114 52.0123C65.5949 51.3231 65.1458 50.5672 64.7528 49.7335C64.3598 48.8998 64.0454 48.055 63.8096 47.1879C63.2931 43.3751 63.2819 39.6734 63.7647 36.0829C64.2475 32.4924 65.0335 28.9575 66.1114 25.4671C66.2911 25.078 66.6841 24.889 67.2904 24.889C67.8967 24.889 68.4918 25.0224 69.0982 25.2892C69.7045 25.556 70.1986 25.9117 70.5915 26.3563C70.9845 26.801 71.0744 27.2679 70.861 27.7459C70.5242 28.4573 70.1986 29.4244 69.8729 30.6249C69.5473 31.8366 69.2217 33.1705 68.9297 34.6267C68.6266 36.0829 68.3683 37.6169 68.1438 39.2065C67.9192 40.7961 67.7508 42.3302 67.6497 43.7864C67.5487 45.2426 67.5262 46.5654 67.5823 47.7437C67.6385 48.922 67.8181 49.8558 68.1213 50.5338C69.5361 48.6552 70.8273 46.7099 72.0063 44.6979C73.1853 42.6859 74.2857 40.6516 75.3187 38.5729C76.3517 36.5053 77.3398 34.4155 78.2718 32.2923C79.2037 30.1803 80.1244 28.0905 81.0227 26.034C81.4718 24.9891 81.921 23.8886 82.3589 22.7325C82.7968 21.5653 83.3694 20.576 84.0993 19.7423C84.4024 19.4755 84.6382 19.3866 84.7954 19.4755C84.9639 19.5644 85.0762 19.7312 85.1323 19.9868C85.1884 20.2425 85.2221 20.5093 85.2221 20.7872C85.2221 21.0651 85.2221 21.2874 85.2221 21.4319C85.0088 22.7992 84.8291 24.1554 84.6832 25.5004C84.5372 26.8455 84.2116 28.1349 83.74 29.391C82.954 31.3586 82.1568 33.3039 81.3259 35.2492C80.495 37.1834 79.6079 39.0954 78.6647 40.974C77.7216 42.8526 76.6886 44.6757 75.5994 46.4431C74.499 48.2217 73.3088 49.9113 72.0063 51.5121C70.9845 52.7904 69.9628 53.4685 68.9634 53.5463C67.9192 53.6352 66.9872 53.1128 66.1114 52.0123Z" fill="#FF5196" stroke="white" stroke-miterlimit="10"/>
<path d="M84.7055 46.9656C84.0992 46.1319 83.5041 45.2871 82.9202 44.42C82.3363 43.553 82.0444 42.6081 82.0444 41.5632C82.0444 40.4071 82.3812 39.3066 83.0549 38.2728C83.7286 37.2501 84.5034 36.4164 85.3792 35.7939C85.7385 35.5605 86.1091 35.3604 86.4796 35.2159C86.8501 35.0714 87.2544 35.0825 87.681 35.2604C87.8607 35.3493 88.0516 35.416 88.2424 35.4604C88.4333 35.5049 88.613 35.5605 88.759 35.6161C88.9049 35.6716 89.0733 35.7606 89.253 35.8829C89.4327 36.0051 89.5225 36.1608 89.5225 36.372C89.5225 37.2057 89.5449 37.8837 89.5899 38.4062C89.6348 38.9287 89.7021 39.3733 89.792 39.7513C89.8818 40.1292 89.9716 40.4516 90.0614 40.7295C90.1513 41.0185 90.2411 41.3186 90.3309 41.641C90.3871 41.9411 90.3758 42.1968 90.286 42.3969C90.1962 42.6081 89.9716 42.6303 89.6123 42.4858C88.9498 42.2524 88.4558 41.7744 88.1414 41.0518C87.827 40.3293 87.5912 39.6846 87.4452 39.0843C87.4116 38.962 87.3442 38.7619 87.2207 38.4618C87.0972 38.1616 87.0298 37.9504 86.9961 37.8393C86.7603 37.7837 86.4684 37.8615 86.1427 38.0838C85.8171 38.3062 85.514 38.6174 85.2669 38.9954C85.0087 39.3844 84.8403 39.8291 84.7729 40.3404C84.6943 40.8517 84.7953 41.352 85.0648 41.8633C85.1883 42.0412 85.3568 42.2635 85.5813 42.508C85.8059 42.7637 86.0305 43.0194 86.255 43.2862C86.4796 43.553 86.7042 43.8197 86.9287 44.0643C87.1533 44.3088 87.3442 44.5201 87.4901 44.6646C87.6698 44.8424 87.7933 44.9425 87.8495 44.9536C87.9056 44.9647 88.0628 44.9314 88.2986 44.8424C88.6018 44.6979 89.0621 44.4978 89.6797 44.2644C90.2972 44.0309 90.9485 43.7864 91.6222 43.553C92.2959 43.3195 92.9471 43.1194 93.5647 42.9527C94.1823 42.7859 94.6539 42.7081 94.9907 42.7081C95.204 42.7081 95.35 42.7859 95.4398 42.9305C95.5297 43.0194 95.5184 43.1417 95.3949 43.2862C95.2714 43.4307 95.1142 43.5863 94.9233 43.7308C94.7324 43.8753 94.5191 44.0087 94.317 44.131C94.1037 44.2533 93.9689 44.32 93.9128 44.3533C93.3963 44.6535 92.7563 44.9869 91.9703 45.3649C91.1843 45.7317 90.5106 46.0985 89.9379 46.4543C89.8818 46.5098 89.7695 46.5765 89.6011 46.6321C89.4327 46.6877 89.3091 46.7544 89.2193 46.81C89.5786 47.6103 89.8369 48.3106 89.9829 48.8887C90.1288 49.4667 90.185 50.0225 90.14 50.5672C90.0951 51.1008 89.9829 51.6455 89.8032 52.2013C89.6235 52.7571 89.3765 53.3907 89.0846 54.1021C88.6579 54.7913 88.2312 55.4472 87.7933 56.0697C87.3554 56.6922 86.8726 57.2591 86.3224 57.7704C85.7834 58.2818 85.1883 58.682 84.5595 58.971C83.9308 59.2711 83.2346 59.4156 82.4823 59.4156C82.0556 59.4156 81.6514 59.36 81.2584 59.26C80.8654 59.1599 80.5398 58.9376 80.2703 58.6153C79.5741 57.8705 79.1924 57.059 79.1026 56.1808C79.0127 55.3027 79.0913 54.4356 79.3271 53.5686C79.5068 53.035 79.7313 52.5459 80.0008 52.0901C80.6633 50.9563 81.3931 50.0003 82.1904 49.211C82.9988 48.4329 83.8297 47.677 84.7055 46.9656ZM86.2438 48.9776C85.9069 49.3111 85.4578 49.778 84.8852 50.3894C84.3125 51.0007 83.7848 51.6677 83.2795 52.3791C82.7855 53.0906 82.3812 53.802 82.0668 54.5023C81.7524 55.2026 81.6739 55.8029 81.8198 56.3142C82.4262 56.0474 83.0437 55.6028 83.6725 54.9914C84.3013 54.38 84.8627 53.7131 85.3455 52.9794C85.8284 52.2457 86.1652 51.5232 86.3561 50.8118C86.547 50.0892 86.5133 49.4778 86.2438 48.9776Z" fill="#FF5196" stroke="white" stroke-miterlimit="10"/>
<path d="M77.3854 65.0625C63.3387 65.0625 51.9082 53.7463 51.9082 39.8401C51.9082 25.9339 63.3387 14.6177 77.3854 14.6177C91.4321 14.6177 102.863 25.9339 102.863 39.8401C102.863 53.7463 91.4321 65.0625 77.3854 65.0625ZM77.3854 15.7293C63.9562 15.7293 53.031 26.5452 53.031 39.8401C53.031 53.1349 63.9562 63.9509 77.3854 63.9509C90.8145 63.9509 101.74 53.1349 101.74 39.8401C101.74 26.5452 90.8145 15.7293 77.3854 15.7293Z" fill="#263238"/>
</g>
</svg>
