<svg width="159" height="34" viewBox="0 0 159 34" fill="none" xmlns="http://www.w3.org/2000/svg">
<path d="M42.5141 33.8112H21.4188C17.9521 33.8112 15.1426 31.0298 15.1426 27.5978V6.71345C15.1426 3.28144 17.9521 0.5 21.4188 0.5H42.5141C45.9807 0.5 48.7903 3.28144 48.7903 6.71345V27.5978C48.7903 31.0298 45.9807 33.8112 42.5141 33.8112Z" fill="#7782FF"/>
<path d="M38.029 17.4621C38.629 18.207 38.9337 19.0744 38.9337 20.055C38.9337 21.4975 38.448 22.629 37.4766 23.4304C36.5052 24.2318 35.1147 24.6467 33.3052 24.6467H25.4004V7.81665H33.1147C34.848 7.81665 36.1814 8.1938 37.1242 8.93866C38.0671 9.68351 38.5433 10.7489 38.5433 12.1255C38.5433 13.1438 38.2671 13.983 37.7242 14.6618C37.1814 15.3407 36.4671 15.7744 35.5814 15.9818C36.6195 16.227 37.429 16.7172 38.029 17.4621ZM29.5052 14.6995H32.2004C33.629 14.6995 34.3433 14.0961 34.3433 12.8892C34.3433 11.6824 33.6099 11.0789 32.1528 11.0789H29.5052V14.6995ZM34.7242 19.4893C34.7242 18.8858 34.5242 18.4144 34.1242 18.075C33.7242 17.7355 33.1528 17.5658 32.4194 17.5658H29.5147V21.3467H32.448C33.9623 21.3373 34.7242 20.7244 34.7242 19.4893Z" fill="white"/>
<path d="M68.2863 24.6467L64.6101 18.2918H63.6768V24.6467H59.5625V7.81665H66.5816C67.9244 7.81665 69.0673 8.04294 69.9911 8.50494C70.9244 8.96694 71.6197 9.59865 72.0863 10.4001C72.553 11.2015 72.7816 12.1161 72.7816 13.1532C72.7816 14.379 72.4387 15.4161 71.7625 16.2741C71.0768 17.1321 70.0959 17.7167 68.7911 18.0372L72.8292 24.6561H68.2863V24.6467ZM63.6768 15.5104H66.2196C67.0387 15.5104 67.6387 15.3312 68.0197 14.973C68.4006 14.6147 68.6006 14.0867 68.6006 13.389C68.6006 12.7195 68.4006 12.2009 68.0101 11.8144C67.6197 11.4372 67.0196 11.2392 66.2196 11.2392H63.6768V15.5104Z" fill="#263238"/>
<path d="M91.3911 21.5825H85.0197L83.9625 24.6562H79.6387L85.8673 7.94873H90.6006L96.8292 24.6562H92.4578L91.3911 21.5825ZM90.3339 18.4805L88.2197 12.2953L86.0768 18.4805H90.3339Z" fill="#263238"/>
<path d="M119.525 24.6467H115.41L108.534 14.3129V24.6467H104.42V7.81665H108.534L115.41 18.2447V7.81665H119.525V24.6467Z" fill="#263238"/>
<path d="M142.592 20.5925C141.878 21.8653 140.849 22.8648 139.516 23.5813C138.173 24.2979 136.602 24.6562 134.792 24.6562H128.373V7.82617H134.792C136.621 7.82617 138.202 8.17503 139.525 8.87275C140.859 9.57046 141.878 10.551 142.592 11.8239C143.306 13.0968 143.659 14.5488 143.659 16.2082C143.659 17.8488 143.297 19.3102 142.592 20.5925ZM138.164 19.7439C139.049 18.9048 139.497 17.7168 139.497 16.1988C139.497 14.6713 139.049 13.4928 138.164 12.6536C137.278 11.8145 136.03 11.3902 134.421 11.3902H132.478V21.0073H134.421C136.03 21.0073 137.278 20.5925 138.164 19.7439Z" fill="#263238"/>
</svg>
