<svg width="109" height="39" viewBox="0 0 109 39" fill="none" xmlns="http://www.w3.org/2000/svg">
<path d="M9.97258 31.2701C8.83258 31.2701 7.69258 31.2301 6.55258 31.1501C5.43258 31.0901 4.26258 30.9301 3.04258 30.6701V10.5101C4.00258 10.3301 5.05258 10.2001 6.19258 10.1201C7.33258 10.0201 8.39258 9.97012 9.37258 9.97012C10.6926 9.97012 11.9026 10.0701 13.0026 10.2701C14.1226 10.4501 15.0826 10.7701 15.8826 11.2301C16.6826 11.6901 17.3026 12.3001 17.7426 13.0601C18.2026 13.8001 18.4326 14.7201 18.4326 15.8201C18.4326 17.4801 17.6326 18.7901 16.0326 19.7501C17.3526 20.2501 18.2526 20.9301 18.7326 21.7901C19.2126 22.6501 19.4526 23.6201 19.4526 24.7001C19.4526 26.8801 18.6526 28.5201 17.0526 29.6201C15.4726 30.7201 13.1126 31.2701 9.97258 31.2701ZM7.60258 21.9401V27.3101C7.94258 27.3501 8.31258 27.3801 8.71258 27.4001C9.11258 27.4201 9.55258 27.4301 10.0326 27.4301C11.4326 27.4301 12.5626 27.2301 13.4226 26.8301C14.2826 26.4301 14.7126 25.6901 14.7126 24.6101C14.7126 23.6501 14.3526 22.9701 13.6326 22.5701C12.9126 22.1501 11.8826 21.9401 10.5426 21.9401H7.60258ZM7.60258 18.3701H9.88258C11.3226 18.3701 12.3526 18.1901 12.9726 17.8301C13.5926 17.4501 13.9026 16.8501 13.9026 16.0301C13.9026 15.1901 13.5826 14.6001 12.9426 14.2601C12.3026 13.9201 11.3626 13.7501 10.1226 13.7501C9.72258 13.7501 9.29258 13.7601 8.83258 13.7801C8.37258 13.7801 7.96258 13.8001 7.60258 13.8401V18.3701ZM27.3688 31.0001H22.8988V15.2201H27.3688V31.0001ZM27.7888 10.6601C27.7888 11.4801 27.5188 12.1301 26.9788 12.6101C26.4588 13.0701 25.8388 13.3001 25.1188 13.3001C24.3988 13.3001 23.7688 13.0701 23.2288 12.6101C22.7088 12.1301 22.4488 11.4801 22.4488 10.6601C22.4488 9.84012 22.7088 9.20012 23.2288 8.74012C23.7688 8.26012 24.3988 8.02012 25.1188 8.02012C25.8388 8.02012 26.4588 8.26012 26.9788 8.74012C27.5188 9.20012 27.7888 9.84012 27.7888 10.6601ZM31.4207 11.2901L35.8907 10.5701V15.2201H41.2607V18.9401H35.8907V24.4901C35.8907 25.4301 36.0507 26.1801 36.3707 26.7401C36.7107 27.3001 37.3807 27.5801 38.3807 27.5801C38.8607 27.5801 39.3507 27.5401 39.8507 27.4601C40.3707 27.3601 40.8407 27.2301 41.2607 27.0701L41.8907 30.5501C41.3507 30.7701 40.7507 30.9601 40.0907 31.1201C39.4307 31.2801 38.6207 31.3601 37.6607 31.3601C36.4407 31.3601 35.4307 31.2001 34.6307 30.8801C33.8307 30.5401 33.1907 30.0801 32.7107 29.5001C32.2307 28.9001 31.8907 28.1801 31.6907 27.3401C31.5107 26.5001 31.4207 25.5701 31.4207 24.5501V11.2901Z" fill="#263238"/>
<path d="M82.7726 27.8801C83.2126 27.8801 83.6326 27.8701 84.0326 27.8501C84.4326 27.8301 84.7526 27.8001 84.9926 27.7601V24.3701C84.8126 24.3301 84.5426 24.2901 84.1826 24.2501C83.8226 24.2101 83.4926 24.1901 83.1926 24.1901C82.7726 24.1901 82.3726 24.2201 81.9926 24.2801C81.6326 24.3201 81.3126 24.4101 81.0326 24.5501C80.7526 24.6901 80.5326 24.8801 80.3726 25.1201C80.2126 25.3601 80.1326 25.6601 80.1326 26.0201C80.1326 26.7201 80.3626 27.2101 80.8226 27.4901C81.3026 27.7501 81.9526 27.8801 82.7726 27.8801ZM82.4126 14.8001C83.7326 14.8001 84.8326 14.9501 85.7126 15.2501C86.5926 15.5501 87.2926 15.9801 87.8126 16.5401C88.3526 17.1001 88.7326 17.7801 88.9526 18.5801C89.1726 19.3801 89.2826 20.2701 89.2826 21.2501V30.5501C88.6426 30.6901 87.7526 30.8501 86.6126 31.0301C85.4726 31.2301 84.0926 31.3301 82.4726 31.3301C81.4526 31.3301 80.5226 31.2401 79.6826 31.0601C78.8626 30.8801 78.1526 30.5901 77.5526 30.1901C76.9526 29.7701 76.4926 29.2301 76.1726 28.5701C75.8526 27.9101 75.6926 27.1001 75.6926 26.1401C75.6926 25.2201 75.8726 24.4401 76.2326 23.8001C76.6126 23.1601 77.1126 22.6501 77.7326 22.2701C78.3526 21.8901 79.0626 21.6201 79.8626 21.4601C80.6626 21.2801 81.4926 21.1901 82.3526 21.1901C82.9326 21.1901 83.4426 21.2201 83.8826 21.2801C84.3426 21.3201 84.7126 21.3801 84.9926 21.4601V21.0401C84.9926 20.2801 84.7626 19.6701 84.3026 19.2101C83.8426 18.7501 83.0426 18.5201 81.9026 18.5201C81.1426 18.5201 80.3926 18.5801 79.6526 18.7001C78.9126 18.8001 78.2726 18.9501 77.7326 19.1501L77.1626 15.5501C77.4226 15.4701 77.7426 15.3901 78.1226 15.3101C78.5226 15.2101 78.9526 15.1301 79.4126 15.0701C79.8726 14.9901 80.3526 14.9301 80.8526 14.8901C81.3726 14.8301 81.8926 14.8001 82.4126 14.8001ZM99.5946 20.0201L102.715 15.2201H107.335L101.935 22.8101C103.135 24.3101 104.225 25.7701 105.205 27.1901C106.185 28.6101 106.965 29.8801 107.545 31.0001H102.745C102.585 30.7001 102.385 30.3301 102.145 29.8901C101.905 29.4301 101.635 28.9601 101.335 28.4801C101.035 27.9801 100.715 27.4901 100.375 27.0101C100.055 26.5101 99.7346 26.0601 99.4146 25.6601C99.1146 26.0401 98.8046 26.4601 98.4846 26.9201C98.1846 27.3801 97.8946 27.8501 97.6146 28.3301C97.3346 28.7901 97.0546 29.2501 96.7746 29.7101C96.5146 30.1701 96.2846 30.6001 96.0846 31.0001H91.5246C91.7646 30.5001 92.0946 29.9101 92.5146 29.2301C92.9346 28.5501 93.3846 27.8501 93.8646 27.1301C94.3646 26.3901 94.8846 25.6601 95.4246 24.9401C95.9646 24.2001 96.4946 23.5101 97.0146 22.8701C96.1146 21.6101 95.2146 20.3401 94.3146 19.0601C93.4146 17.7601 92.5246 16.4801 91.6446 15.2201H96.4746L99.5946 20.0201Z" fill="#263238"/>
<path d="M53.1426 11.0001L61.3698 29.7501H44.9153L53.1426 11.0001Z" fill="#FEBA66"/>
<path d="M63.1426 11.0001L71.3698 29.7501H54.9153L63.1426 11.0001Z" fill="#EDA54C"/>
</svg>
