<svg width="115" height="35" viewBox="0 0 115 35" fill="none" xmlns="http://www.w3.org/2000/svg">
<path d="M33.4072 16.5284C33.4688 15.9308 33.4995 15.2452 33.4995 14.4718C33.4995 13.2413 33.4336 11.712 33.3018 9.88391C34.9453 9.93665 37.7271 9.96301 41.647 9.96301C45.5669 9.96301 48.3398 9.93665 49.9658 9.88391C49.834 11.712 49.7681 13.2413 49.7681 14.4718C49.7681 15.2452 49.7988 15.9308 49.8604 16.5284H49.2407C48.9419 15.0255 48.5771 13.839 48.1465 12.9689C47.7158 12.09 47.1973 11.4615 46.5908 11.0836C45.9932 10.6969 45.2637 10.5035 44.4023 10.5035H43.7827V25.9283C43.7827 26.6754 43.8574 27.2203 44.0068 27.5631C44.165 27.9059 44.4375 28.1388 44.8242 28.2618C45.2197 28.3849 45.835 28.4508 46.6699 28.4596V29.0001C44.4023 28.9474 42.6929 28.921 41.5415 28.921C40.4077 28.921 38.7598 28.9474 36.5977 29.0001V28.4596C37.4414 28.4508 38.0566 28.3849 38.4434 28.2618C38.8389 28.1388 39.1113 27.9059 39.2607 27.5631C39.4102 27.2203 39.4849 26.6754 39.4849 25.9283V10.5035H38.8916C38.0215 10.5035 37.2832 10.6925 36.6768 11.0704C36.0791 11.4484 35.5649 12.0768 35.1343 12.9557C34.7036 13.8258 34.3345 15.0167 34.0269 16.5284H33.4072ZM58.0737 17.6095C58.0737 16.8624 57.8936 16.2736 57.5332 15.8429C57.1816 15.4122 56.6279 15.1969 55.8721 15.1969C55.5205 15.1969 55.1689 15.254 54.8174 15.3683C54.4658 15.4738 54.1758 15.6364 53.9473 15.8561C54.4482 16.0231 54.8394 16.2867 55.1206 16.6471C55.4019 16.9987 55.5425 17.4425 55.5425 17.9786C55.5425 18.3478 55.4502 18.6818 55.2656 18.9806C55.0898 19.2706 54.835 19.5035 54.501 19.6793C54.167 19.8463 53.7847 19.9298 53.354 19.9298C52.7739 19.9298 52.3081 19.7321 51.9565 19.3365C51.6138 18.941 51.4424 18.4445 51.4424 17.8468C51.4424 16.9152 51.9434 16.1593 52.9453 15.5792C54.0439 14.9728 55.415 14.6696 57.0586 14.6696C58.9043 14.6696 60.2183 15.0739 61.0005 15.8824C61.3784 16.2604 61.6333 16.7306 61.7651 17.2931C61.897 17.8556 61.9629 18.6422 61.9629 19.653V26.9962C61.9629 27.4357 62.0024 27.7477 62.0815 27.9323C62.1694 28.108 62.3188 28.1959 62.5298 28.1959C62.8198 28.1959 63.1538 28.0421 63.5317 27.7345L63.8086 28.1959C63.3955 28.5387 62.9473 28.7892 62.4639 28.9474C61.9805 29.1056 61.4004 29.1847 60.7236 29.1847C59.8096 29.1847 59.1504 28.9825 58.7461 28.5782C58.3418 28.174 58.1396 27.6466 58.1396 26.9962C57.7002 27.7257 57.1245 28.275 56.4126 28.6442C55.7007 29.0045 54.9404 29.1847 54.1318 29.1847C53.1035 29.1847 52.2773 28.9166 51.6533 28.3805C51.0381 27.8356 50.7305 27.0797 50.7305 26.1129C50.7305 25.1725 51.0381 24.3947 51.6533 23.7794C52.2686 23.1642 53.2222 22.6193 54.5142 22.1447C54.6548 22.0919 55.1118 21.9205 55.8853 21.6305C56.6587 21.3317 57.2168 21.0284 57.5596 20.7208C57.9023 20.4132 58.0737 20.0748 58.0737 19.7057V17.6095ZM58.0737 20.8131C57.9595 21.0065 57.7705 21.2086 57.5068 21.4196C57.252 21.6217 56.8828 21.8722 56.3994 22.171C55.8281 22.5665 55.3799 23.0148 55.0547 23.5157C54.7295 24.0079 54.5669 24.6232 54.5669 25.3615C54.5669 26.0646 54.7207 26.5919 55.0283 26.9435C55.3359 27.2863 55.7402 27.4576 56.2412 27.4576C56.9531 27.4576 57.564 27.0885 58.0737 26.3502V20.8131ZM70.2158 17.2535C70.5586 16.4889 71.0508 15.8693 71.6924 15.3947C72.3428 14.9113 73.0767 14.6696 73.894 14.6696C74.439 14.6696 74.896 14.7882 75.2651 15.0255C75.6343 15.2628 75.9067 15.5704 76.0825 15.9484C76.2583 16.3175 76.3462 16.7174 76.3462 17.1481C76.3462 17.816 76.1528 18.361 75.7661 18.7828C75.3794 19.2047 74.8696 19.4156 74.2368 19.4156C73.6216 19.4156 73.1338 19.2618 72.7734 18.9542C72.4219 18.6378 72.2461 18.2159 72.2461 17.6886C72.2461 16.8273 72.6416 16.1241 73.4326 15.5792C73.3184 15.5529 73.2085 15.5397 73.103 15.5397C72.98 15.5397 72.8394 15.5616 72.6812 15.6056C72.2241 15.6759 71.8066 15.8956 71.4287 16.2648C71.0508 16.6251 70.752 17.0602 70.5322 17.5699C70.3213 18.0797 70.2158 18.5763 70.2158 19.0597V26.2184C70.2158 27.0533 70.418 27.6334 70.8223 27.9586C71.2266 28.275 71.8726 28.4332 72.7603 28.4332V29.0001C70.5103 28.9298 69.0776 28.8947 68.4624 28.8947C67.8911 28.8947 66.6035 28.9298 64.5996 29.0001V28.4332C65.0303 28.4332 65.3687 28.3761 65.6147 28.2618C65.8696 28.1476 66.0498 27.9498 66.1553 27.6686C66.2695 27.3873 66.3267 26.9962 66.3267 26.4952V17.9786C66.3267 17.1437 66.1992 16.5416 65.9443 16.1725C65.6895 15.7946 65.2412 15.6056 64.5996 15.6056V15.0387C65.1709 15.0914 65.729 15.1178 66.2739 15.1178C67.8647 15.1178 69.1787 14.9948 70.2158 14.7487V17.2535ZM87.249 25.546C88.3301 25.546 89.2046 25.7745 89.8726 26.2316C90.5493 26.6798 90.8877 27.4137 90.8877 28.4332C90.8877 29.3561 90.5977 30.2482 90.0176 31.1095C89.4375 31.9796 88.5586 32.6915 87.3809 33.2452C86.2031 33.799 84.7661 34.0758 83.0698 34.0758C81.7515 34.0758 80.644 33.9703 79.7476 33.7594C78.8599 33.5573 78.1963 33.2804 77.7568 32.9288C77.3174 32.5773 77.0977 32.1774 77.0977 31.7291C77.0977 31.2457 77.2778 30.8854 77.6382 30.6481C78.0073 30.4108 78.605 30.1603 79.4312 29.8966C80.2573 29.6329 80.8418 29.3781 81.1846 29.132H80.5518C79.8047 29.132 79.1147 28.9518 78.4819 28.5914C77.8491 28.2311 77.5327 27.5763 77.5327 26.6271C77.5327 26.1085 77.6382 25.6427 77.8491 25.2296C78.0688 24.8077 78.4248 24.4078 78.917 24.0299C79.418 23.6432 80.0903 23.2477 80.9341 22.8434C80.0112 22.527 79.2905 22.048 78.772 21.4064C78.2534 20.756 77.9941 19.9386 77.9941 18.9542C77.9941 17.5304 78.5215 16.4625 79.5762 15.7506C80.6396 15.0299 82.0459 14.6696 83.7949 14.6696C84.5156 14.6696 85.1836 14.7311 85.7988 14.8541C85.7725 14.3971 85.8076 13.9445 85.9043 13.4962C85.9922 12.7491 86.2471 12.1515 86.6689 11.7032C87.0908 11.2462 87.6885 11.0177 88.4619 11.0177C89.0332 11.0177 89.5034 11.1715 89.8726 11.4791C90.2505 11.778 90.4395 12.1735 90.4395 12.6656C90.4395 13.1227 90.2593 13.5006 89.8989 13.7994C89.5474 14.0895 89.1035 14.2345 88.5674 14.2345C88.0225 14.2345 87.5962 14.1071 87.2886 13.8522C86.981 13.5973 86.7437 13.2194 86.5767 12.7184C86.3833 13.0436 86.2471 13.505 86.168 14.1027C86.1592 14.1906 86.1548 14.3224 86.1548 14.4982C86.1548 14.6915 86.1592 14.8365 86.168 14.9332C87.2402 15.2057 88.0796 15.6803 88.686 16.3571C89.2925 17.025 89.5957 17.8907 89.5957 18.9542C89.5957 19.9122 89.3452 20.712 88.8442 21.3536C88.3521 21.9952 87.6709 22.4742 86.8008 22.7906C85.9307 23.0983 84.9287 23.2521 83.7949 23.2521C82.9424 23.2521 82.1646 23.1642 81.4614 22.9884C80.9429 23.2872 80.5562 23.5597 80.3013 23.8058C80.0552 24.0519 79.9321 24.3331 79.9321 24.6495C79.9321 25.2472 80.2925 25.546 81.0132 25.546H87.249ZM83.7949 15.1442C83.2061 15.1442 82.7578 15.4342 82.4502 16.0143C82.1426 16.5944 81.9888 17.5743 81.9888 18.9542C81.9888 20.3341 82.1426 21.3141 82.4502 21.8942C82.7578 22.4742 83.2061 22.7643 83.7949 22.7643C84.3926 22.7643 84.8408 22.4742 85.1396 21.8942C85.4473 21.3141 85.6011 20.3341 85.6011 18.9542C85.6011 17.5743 85.4473 16.5944 85.1396 16.0143C84.8408 15.4342 84.3926 15.1442 83.7949 15.1442ZM81.6987 29.132C81.3999 29.4132 81.167 29.7604 81 30.1735C80.8418 30.5865 80.7627 30.9601 80.7627 31.2941C80.7627 32.0411 81.0439 32.6124 81.6064 33.0079C82.1777 33.4122 82.9072 33.6144 83.7949 33.6144C84.5244 33.6144 85.2012 33.4781 85.8252 33.2057C86.458 32.942 86.959 32.5553 87.3281 32.0455C87.7061 31.5358 87.895 30.9425 87.895 30.2657C87.895 29.879 87.7808 29.5934 87.5522 29.4088C87.3237 29.2242 86.915 29.132 86.3262 29.132H81.6987ZM96.3325 20.6549C96.3062 20.9186 96.293 21.3405 96.293 21.9205C96.293 23.1158 96.46 24.109 96.7939 24.9C97.1279 25.6823 97.5586 26.2579 98.0859 26.6271C98.6221 26.9874 99.1934 27.1676 99.7998 27.1676C101.285 27.1676 102.476 26.4469 103.373 25.0055L103.847 25.1637C103.619 25.902 103.263 26.5919 102.779 27.2335C102.305 27.8663 101.698 28.3849 100.96 28.7892C100.23 29.1847 99.3955 29.3824 98.4551 29.3824C97.2158 29.3824 96.126 29.1188 95.1855 28.5914C94.2539 28.0641 93.5244 27.2643 92.9971 26.192C92.4785 25.111 92.2192 23.7706 92.2192 22.171C92.2192 20.5363 92.5005 19.1608 93.063 18.0446C93.6255 16.9196 94.4033 16.0758 95.3965 15.5133C96.3896 14.9508 97.5366 14.6696 98.8374 14.6696C102.221 14.6696 103.913 16.6647 103.913 20.6549H96.3325ZM100.512 20.1407C100.538 18.7345 100.393 17.5656 100.077 16.6339C99.769 15.7023 99.2988 15.2365 98.666 15.2365C98.0244 15.2365 97.4883 15.6364 97.0576 16.4362C96.6357 17.2272 96.3765 18.462 96.2798 20.1407H100.512ZM114.157 15.0651V15.6056H110.966V26.4952C110.966 27.0314 111.063 27.4137 111.256 27.6422C111.45 27.8619 111.749 27.9718 112.153 27.9718C112.917 27.9718 113.528 27.4313 113.985 26.3502L114.447 26.6007C113.77 28.4552 112.54 29.3824 110.755 29.3824C109.569 29.3824 108.668 29.0748 108.053 28.4596C107.675 28.0905 107.416 27.6246 107.275 27.0621C107.143 26.4908 107.077 25.7042 107.077 24.7023V15.6056H104.81V15.0651H107.077V11.4791C108.562 11.4791 109.859 11.1891 110.966 10.609V15.0651H114.157Z" fill="#263238"/>
<rect x="0.642578" y="4.00012" width="28" height="28" rx="5" fill="#FFB6D3"/>
<circle cx="14.6426" cy="18.0001" r="5" fill="#FF5196"/>
<path d="M14.6426 11.6001V10.0001M14.6426 26.0001V24.4001M21.0426 18.0001H22.6426M6.64258 18.0001H8.24258M14.6426 12.2401C13.5034 12.2401 12.3897 12.5779 11.4425 13.2109C10.4953 13.8438 9.75699 14.7434 9.32103 15.7959C8.88507 16.8484 8.771 18.0065 8.99325 19.1238C9.21551 20.2412 9.76409 21.2675 10.5696 22.0731C11.3752 22.8786 12.4015 23.4272 13.5189 23.6494C14.6362 23.8717 15.7943 23.7576 16.8468 23.3217C17.8993 22.8857 18.7989 22.1474 19.4318 21.2002C20.0648 20.253 20.4026 19.1393 20.4026 18.0001C20.4026 16.4725 19.7957 15.0074 18.7155 13.9272C17.6353 12.847 16.1702 12.2401 14.6426 12.2401Z" stroke="white" stroke-width="2" stroke-linecap="square" stroke-linejoin="round"/>
</svg>
