<svg width="127" height="49" viewBox="0 0 127 49" fill="none" xmlns="http://www.w3.org/2000/svg">
<path d="M9.20058 13.1561C9.10725 12.9321 8.98125 12.6475 8.82258 12.3021C8.67324 11.9568 8.50991 11.5835 8.33258 11.1821C8.15524 10.7808 7.96391 10.3701 7.75858 9.95012C7.56258 9.52079 7.37591 9.11946 7.19858 8.74612C7.02124 8.36346 6.85324 8.02279 6.69458 7.72412C6.54524 7.42545 6.42391 7.19679 6.33058 7.03812C6.22791 8.13945 6.14391 9.33412 6.07858 10.6221C6.01324 11.9008 5.95724 13.1935 5.91058 14.5001H4.58058C4.61791 13.6601 4.65991 12.8155 4.70658 11.9661C4.75324 11.1075 4.80458 10.2675 4.86058 9.44612C4.92591 8.61546 4.99124 7.80812 5.05658 7.02412C5.13124 6.24012 5.21058 5.49812 5.29458 4.79812H6.48458C6.73658 5.20879 7.00724 5.69412 7.29658 6.25412C7.58591 6.81412 7.87525 7.40212 8.16458 8.01812C8.45391 8.62479 8.73391 9.23612 9.00458 9.85212C9.27525 10.4588 9.52258 11.0141 9.74658 11.5181C9.97058 11.0141 10.2179 10.4588 10.4886 9.85212C10.7592 9.23612 11.0392 8.62479 11.3286 8.01812C11.6179 7.40212 11.9072 6.81412 12.1966 6.25412C12.4859 5.69412 12.7566 5.20879 13.0086 4.79812H14.1986C14.5159 7.92479 14.7539 11.1588 14.9126 14.5001H13.5826C13.5359 13.1935 13.4799 11.9008 13.4146 10.6221C13.3492 9.33412 13.2652 8.13945 13.1626 7.03812C13.0692 7.19679 12.9432 7.42545 12.7846 7.72412C12.6352 8.02279 12.4719 8.36346 12.2946 8.74612C12.1172 9.11946 11.9259 9.52079 11.7206 9.95012C11.5246 10.3701 11.3379 10.7808 11.1606 11.1821C10.9832 11.5835 10.8152 11.9568 10.6566 12.3021C10.5072 12.6475 10.3859 12.9321 10.2926 13.1561H9.20058ZM23.3839 10.8601C23.3839 11.4388 23.2999 11.9615 23.1319 12.4281C22.9639 12.8948 22.7259 13.2961 22.4179 13.6321C22.1192 13.9681 21.7599 14.2295 21.3399 14.4161C20.9199 14.5935 20.4626 14.6821 19.9679 14.6821C19.4732 14.6821 19.0159 14.5935 18.5959 14.4161C18.1759 14.2295 17.8119 13.9681 17.5039 13.6321C17.2052 13.2961 16.9719 12.8948 16.8039 12.4281C16.6359 11.9615 16.5519 11.4388 16.5519 10.8601C16.5519 10.2908 16.6359 9.77279 16.8039 9.30612C16.9719 8.83012 17.2052 8.42412 17.5039 8.08812C17.8119 7.75212 18.1759 7.49546 18.5959 7.31812C19.0159 7.13145 19.4732 7.03812 19.9679 7.03812C20.4626 7.03812 20.9199 7.13145 21.3399 7.31812C21.7599 7.49546 22.1192 7.75212 22.4179 8.08812C22.7259 8.42412 22.9639 8.83012 23.1319 9.30612C23.2999 9.77279 23.3839 10.2908 23.3839 10.8601ZM22.0259 10.8601C22.0259 10.0388 21.8392 9.39012 21.4659 8.91412C21.1019 8.42879 20.6026 8.18612 19.9679 8.18612C19.3332 8.18612 18.8292 8.42879 18.4559 8.91412C18.0919 9.39012 17.9099 10.0388 17.9099 10.8601C17.9099 11.6815 18.0919 12.3348 18.4559 12.8201C18.8292 13.2961 19.3332 13.5341 19.9679 13.5341C20.6026 13.5341 21.1019 13.2961 21.4659 12.8201C21.8392 12.3348 22.0259 11.6815 22.0259 10.8601ZM29.9197 8.76012C29.761 8.62946 29.5324 8.50346 29.2337 8.38212C28.935 8.26079 28.6084 8.20012 28.2537 8.20012C27.8804 8.20012 27.5584 8.27012 27.2877 8.41012C27.0264 8.54079 26.8117 8.72746 26.6437 8.97012C26.4757 9.20346 26.3544 9.48346 26.2797 9.81012C26.205 10.1368 26.1677 10.4868 26.1677 10.8601C26.1677 11.7095 26.3777 12.3675 26.7977 12.8341C27.2177 13.2915 27.7777 13.5201 28.4777 13.5201C28.8324 13.5201 29.1264 13.5061 29.3597 13.4781C29.6024 13.4408 29.789 13.4035 29.9197 13.3661V8.76012ZM29.9197 3.86012L31.2217 3.63612V14.2901C30.923 14.3741 30.5404 14.4581 30.0737 14.5421C29.607 14.6261 29.0704 14.6681 28.4637 14.6681C27.9037 14.6681 27.3997 14.5795 26.9517 14.4021C26.5037 14.2248 26.121 13.9728 25.8037 13.6461C25.4864 13.3195 25.239 12.9228 25.0617 12.4561C24.8937 11.9801 24.8097 11.4481 24.8097 10.8601C24.8097 10.3001 24.8797 9.78679 25.0197 9.32012C25.169 8.85346 25.3837 8.45212 25.6637 8.11612C25.9437 7.78012 26.2844 7.51879 26.6857 7.33212C27.0964 7.14546 27.563 7.05212 28.0857 7.05212C28.5057 7.05212 28.8744 7.10812 29.1917 7.22012C29.5184 7.33212 29.761 7.43946 29.9197 7.54212V3.86012ZM33.0538 10.8741C33.0538 10.2301 33.1472 9.67012 33.3338 9.19412C33.5205 8.70879 33.7678 8.30746 34.0758 7.99012C34.3838 7.67279 34.7385 7.43479 35.1398 7.27612C35.5412 7.11745 35.9518 7.03812 36.3718 7.03812C37.3518 7.03812 38.1032 7.34612 38.6258 7.96212C39.1485 8.56879 39.4098 9.49746 39.4098 10.7481C39.4098 10.8041 39.4098 10.8788 39.4098 10.9721C39.4098 11.0561 39.4052 11.1355 39.3958 11.2101H34.4118C34.4678 11.9661 34.6872 12.5401 35.0698 12.9321C35.4525 13.3241 36.0498 13.5201 36.8618 13.5201C37.3192 13.5201 37.7018 13.4828 38.0098 13.4081C38.3272 13.3241 38.5652 13.2448 38.7238 13.1701L38.9058 14.2621C38.7472 14.3461 38.4672 14.4348 38.0658 14.5281C37.6738 14.6215 37.2258 14.6681 36.7218 14.6681C36.0872 14.6681 35.5365 14.5748 35.0698 14.3881C34.6125 14.1921 34.2345 13.9261 33.9358 13.5901C33.6372 13.2541 33.4132 12.8575 33.2638 12.4001C33.1238 11.9335 33.0538 11.4248 33.0538 10.8741ZM38.0518 10.1601C38.0612 9.57212 37.9118 9.09146 37.6038 8.71812C37.3052 8.33546 36.8898 8.14412 36.3578 8.14412C36.0592 8.14412 35.7932 8.20479 35.5598 8.32612C35.3358 8.43812 35.1445 8.58746 34.9858 8.77412C34.8272 8.96079 34.7012 9.17546 34.6078 9.41812C34.5238 9.66079 34.4678 9.90812 34.4398 10.1601H38.0518ZM43.9682 7.06612C44.0802 7.06612 44.2062 7.07546 44.3462 7.09412C44.4955 7.10346 44.6402 7.12212 44.7802 7.15012C44.9202 7.16879 45.0462 7.19212 45.1582 7.22012C45.2795 7.23879 45.3682 7.25746 45.4242 7.27612L45.2002 8.41012C45.0975 8.37279 44.9248 8.33079 44.6822 8.28412C44.4488 8.22812 44.1455 8.20012 43.7722 8.20012C43.5295 8.20012 43.2868 8.22812 43.0442 8.28412C42.8108 8.33079 42.6568 8.36346 42.5822 8.38212V14.5001H41.2802V7.52812C41.5882 7.41612 41.9708 7.31345 42.4282 7.22012C42.8855 7.11746 43.3988 7.06612 43.9682 7.06612ZM46.6805 7.43012C46.9792 7.35546 47.3759 7.27612 47.8705 7.19212C48.3652 7.10812 48.9345 7.06612 49.5785 7.06612C50.1572 7.06612 50.6379 7.15012 51.0205 7.31812C51.4032 7.47679 51.7065 7.70546 51.9305 8.00412C52.1639 8.29346 52.3272 8.64346 52.4205 9.05412C52.5139 9.46479 52.5605 9.91746 52.5605 10.4121V14.5001H51.2585V10.6921C51.2585 10.2441 51.2259 9.86146 51.1605 9.54412C51.1045 9.22679 51.0065 8.97012 50.8665 8.77412C50.7265 8.57812 50.5399 8.43812 50.3065 8.35412C50.0732 8.26079 49.7839 8.21412 49.4385 8.21412C49.2985 8.21412 49.1539 8.21879 49.0045 8.22812C48.8552 8.23746 48.7105 8.25146 48.5705 8.27012C48.4399 8.27945 48.3185 8.29345 48.2065 8.31212C48.1039 8.33079 48.0292 8.34479 47.9825 8.35412V14.5001H46.6805V7.43012Z" fill="#263238"/>
<path d="M12.5226 40.9201C9.14258 40.9201 6.56258 39.9801 4.78258 38.1001C3.02258 36.2201 2.14258 33.5501 2.14258 30.0901C2.14258 28.3701 2.41258 26.8401 2.95258 25.5001C3.49258 24.1401 4.23258 23.0001 5.17258 22.0801C6.11258 21.1401 7.23258 20.4301 8.53258 19.9501C9.83258 19.4701 11.2426 19.2301 12.7626 19.2301C13.6426 19.2301 14.4426 19.3001 15.1626 19.4401C15.8826 19.5601 16.5126 19.7101 17.0526 19.8901C17.5926 20.0501 18.0426 20.2201 18.4026 20.4001C18.7626 20.5801 19.0226 20.7201 19.1826 20.8201L17.8326 24.6001C17.1926 24.2601 16.4426 23.9701 15.5826 23.7301C14.7426 23.4901 13.7826 23.3701 12.7026 23.3701C11.9826 23.3701 11.2726 23.4901 10.5726 23.7301C9.89258 23.9701 9.28258 24.3601 8.74258 24.9001C8.22258 25.4201 7.80258 26.1001 7.48258 26.9401C7.16258 27.7801 7.00258 28.8001 7.00258 30.0001C7.00258 30.9601 7.10258 31.8601 7.30258 32.7001C7.52258 33.5201 7.86258 34.2301 8.32258 34.8301C8.80258 35.4301 9.42258 35.9101 10.1826 36.2701C10.9426 36.6101 11.8626 36.7801 12.9426 36.7801C13.6226 36.7801 14.2326 36.7401 14.7726 36.6601C15.3126 36.5801 15.7926 36.4901 16.2126 36.3901C16.6326 36.2701 17.0026 36.1401 17.3226 36.0001C17.6426 35.8601 17.9326 35.7301 18.1926 35.6101L19.4826 39.3601C18.8226 39.7601 17.8926 40.1201 16.6926 40.4401C15.4926 40.7601 14.1026 40.9201 12.5226 40.9201ZM31.7057 28.6801C31.3057 28.5801 30.8357 28.4801 30.2957 28.3801C29.7557 28.2601 29.1757 28.2001 28.5557 28.2001C28.2757 28.2001 27.9357 28.2301 27.5357 28.2901C27.1557 28.3301 26.8657 28.3801 26.6657 28.4401V40.5001H22.1957V25.5601C22.9957 25.2801 23.9357 25.0201 25.0157 24.7801C26.1157 24.5201 27.3357 24.3901 28.6757 24.3901C28.9157 24.3901 29.2057 24.4101 29.5457 24.4501C29.8857 24.4701 30.2257 24.5101 30.5657 24.5701C30.9057 24.6101 31.2457 24.6701 31.5857 24.7501C31.9257 24.8101 32.2157 24.8901 32.4557 24.9901L31.7057 28.6801ZM49.7995 24.7201C48.8995 27.7601 47.9595 30.6101 46.9795 33.2701C45.9995 35.9301 44.9295 38.5101 43.7695 41.0101C43.3495 41.9101 42.9295 42.6701 42.5095 43.2901C42.0895 43.9301 41.6295 44.4501 41.1295 44.8501C40.6295 45.2701 40.0595 45.5701 39.4195 45.7501C38.7995 45.9501 38.0695 46.0501 37.2295 46.0501C36.5295 46.0501 35.8795 45.9801 35.2795 45.8401C34.6995 45.7201 34.2195 45.5801 33.8395 45.4201L34.6195 41.8501C35.0795 42.0101 35.4895 42.1201 35.8495 42.1801C36.2095 42.2401 36.5895 42.2701 36.9895 42.2701C37.7895 42.2701 38.3995 42.0501 38.8195 41.6101C39.2595 41.1901 39.6295 40.6001 39.9295 39.8401C38.9095 37.8401 37.8895 35.6001 36.8695 33.1201C35.8495 30.6201 34.8895 27.8201 33.9895 24.7201H38.7295C38.9295 25.5001 39.1595 26.3501 39.4195 27.2701C39.6995 28.1701 39.9895 29.0901 40.2895 30.0301C40.5895 30.9501 40.8895 31.8501 41.1895 32.7301C41.5095 33.6101 41.8095 34.4101 42.0895 35.1301C42.3495 34.4101 42.6195 33.6101 42.8995 32.7301C43.1795 31.8501 43.4495 30.9501 43.7095 30.0301C43.9895 29.0901 44.2495 28.1701 44.4895 27.2701C44.7495 26.3501 44.9795 25.5001 45.1795 24.7201H49.7995ZM62.3057 32.7301C62.3057 31.3501 61.9957 30.2501 61.3757 29.4301C60.7557 28.5901 59.8357 28.1701 58.6157 28.1701C58.2157 28.1701 57.8457 28.1901 57.5057 28.2301C57.1657 28.2501 56.8857 28.2801 56.6657 28.3201V36.3901C56.9457 36.5701 57.3057 36.7201 57.7457 36.8401C58.2057 36.9601 58.6657 37.0201 59.1257 37.0201C61.2457 37.0201 62.3057 35.5901 62.3057 32.7301ZM66.8657 32.6101C66.8657 33.8301 66.7157 34.9401 66.4157 35.9401C66.1157 36.9401 65.6757 37.8001 65.0957 38.5201C64.5157 39.2401 63.7957 39.8001 62.9357 40.2001C62.0757 40.6001 61.0857 40.8001 59.9657 40.8001C59.3457 40.8001 58.7657 40.7401 58.2257 40.6201C57.6857 40.5001 57.1657 40.3301 56.6657 40.1101V46.0501H52.1957V25.2601C52.5957 25.1401 53.0557 25.0301 53.5757 24.9301C54.0957 24.8101 54.6357 24.7101 55.1957 24.6301C55.7757 24.5501 56.3557 24.4901 56.9357 24.4501C57.5357 24.3901 58.1057 24.3601 58.6457 24.3601C59.9457 24.3601 61.1057 24.5601 62.1257 24.9601C63.1457 25.3401 64.0057 25.8901 64.7057 26.6101C65.4057 27.3101 65.9357 28.1701 66.2957 29.1901C66.6757 30.2101 66.8657 31.3501 66.8657 32.6101ZM70.1512 20.7901L74.6212 20.0701V24.7201H79.9912V28.4401H74.6212V33.9901C74.6212 34.9301 74.7812 35.6801 75.1012 36.2401C75.4412 36.8001 76.1112 37.0801 77.1112 37.0801C77.5912 37.0801 78.0812 37.0401 78.5812 36.9601C79.1012 36.8601 79.5712 36.7301 79.9912 36.5701L80.6212 40.0501C80.0812 40.2701 79.4812 40.4601 78.8212 40.6201C78.1612 40.7801 77.3512 40.8601 76.3912 40.8601C75.1712 40.8601 74.1612 40.7001 73.3612 40.3801C72.5612 40.0401 71.9212 39.5801 71.4412 39.0001C70.9612 38.4001 70.6212 37.6801 70.4212 36.8401C70.2412 36.0001 70.1512 35.0701 70.1512 34.0501V20.7901ZM97.8053 32.5801C97.8053 33.8201 97.6253 34.9601 97.2653 36.0001C96.9053 37.0201 96.3853 37.9001 95.7053 38.6401C95.0253 39.3601 94.2053 39.9201 93.2453 40.3201C92.3053 40.7201 91.2453 40.9201 90.0653 40.9201C88.9053 40.9201 87.8453 40.7201 86.8853 40.3201C85.9453 39.9201 85.1353 39.3601 84.4553 38.6401C83.7753 37.9001 83.2453 37.0201 82.8653 36.0001C82.4853 34.9601 82.2953 33.8201 82.2953 32.5801C82.2953 31.3401 82.4853 30.2101 82.8653 29.1901C83.2653 28.1701 83.8053 27.3001 84.4853 26.5801C85.1853 25.8601 86.0053 25.3001 86.9453 24.9001C87.9053 24.5001 88.9453 24.3001 90.0653 24.3001C91.2053 24.3001 92.2453 24.5001 93.1853 24.9001C94.1453 25.3001 94.9653 25.8601 95.6453 26.5801C96.3253 27.3001 96.8553 28.1701 97.2353 29.1901C97.6153 30.2101 97.8053 31.3401 97.8053 32.5801ZM93.2453 32.5801C93.2453 31.2001 92.9653 30.1201 92.4053 29.3401C91.8653 28.5401 91.0853 28.1401 90.0653 28.1401C89.0453 28.1401 88.2553 28.5401 87.6953 29.3401C87.1353 30.1201 86.8553 31.2001 86.8553 32.5801C86.8553 33.9601 87.1353 35.0601 87.6953 35.8801C88.2553 36.6801 89.0453 37.0801 90.0653 37.0801C91.0853 37.0801 91.8653 36.6801 92.4053 35.8801C92.9653 35.0601 93.2453 33.9601 93.2453 32.5801Z" fill="#263238"/>
<path d="M114.643 43.5001V30.5566L104.643 21.5001V43.5001H114.643Z" fill="#27CAEA"/>
<path d="M126.594 43.1863V30.4274L116.938 21.5001V43.1863H126.594Z" fill="#FFB04E"/>
</svg>
