<svg width="93" height="37" viewBox="0 0 93 37" fill="none" xmlns="http://www.w3.org/2000/svg">
<path d="M0.642578 22.7436V0.00012207H14.1728V22.7325H0.642578V22.7436ZM12.5335 17.4524L12.8815 14.9401L11.6239 14.8179L11.2422 16.7521C10.4562 17.1411 9.49054 17.3301 8.33402 17.3301C6.76205 17.3301 5.51569 16.841 4.60619 15.8517C3.68547 14.8623 3.23633 13.5618 3.23633 11.9388C3.23633 10.3603 3.68547 9.05974 4.57251 8.03706C5.45955 7.01438 6.62733 6.50304 8.07579 6.50304C8.81686 6.50304 9.44563 6.59196 9.95091 6.7587C10.4562 6.92545 10.9166 7.14777 11.3545 7.43679L11.725 9.34875L13.005 9.22648L12.6345 6.71424C12.0955 6.25848 11.4555 5.89165 10.7144 5.60263C9.97336 5.32473 9.05265 5.18022 7.9635 5.18022C6.67224 5.18022 5.56063 5.49147 4.62867 6.12509C3.69672 6.75871 2.96687 7.59241 2.45036 8.62621C1.93386 9.67112 1.6756 10.7938 1.6756 11.9944C1.6756 13.8952 2.2707 15.4848 3.46091 16.7521C4.65112 18.0193 6.20063 18.6529 8.12068 18.6529C10.007 18.6529 11.478 18.2527 12.5335 17.4524Z" fill="#263238"/>
<path d="M18.7656 22.7436V0.00012207H24.5819V22.7325H18.7656V22.7436ZM19.3832 18.4528H23.9756V17.3079H22.3924V4.6133H19.3607V5.75826H20.9664V17.3079H19.3832V18.4528Z" fill="#263238"/>
<path d="M29.1738 22.7436V0.00012207H39.3917V22.7325H29.1738V22.7436ZM31.0265 10.1825L30.7009 12.2501L31.8799 12.3946L32.2279 10.8494C32.7332 10.6049 33.3059 10.4826 33.9796 10.4826C34.788 10.4826 35.3382 10.6827 35.6189 11.0829C35.8996 11.483 36.0344 12.0055 36.0344 12.6502V13.4506C35.7874 13.4284 35.5291 13.4061 35.2484 13.395C34.9677 13.3839 34.6982 13.3728 34.4287 13.3728C33.4182 13.3728 32.4525 13.5506 31.5542 13.9064C30.656 14.2621 30.2069 15.0068 30.2069 16.1296C30.2069 17.0856 30.51 17.7414 31.1276 18.0971C31.7451 18.4639 32.3515 18.6418 32.9466 18.6418C33.6764 18.6418 34.3052 18.4528 34.8217 18.0749C35.3382 17.6969 35.7424 17.2745 36.0344 16.7854V16.8299C36.0568 18.0415 36.607 18.6418 37.685 18.6418C38.1004 18.6418 38.4934 18.5418 38.8639 18.3417L38.8415 17.419C38.6618 17.4968 38.4597 17.5413 38.2351 17.5413C37.7186 17.5413 37.4604 17.2189 37.4604 16.5742V12.3167C37.4604 10.3159 36.3824 9.31541 34.2266 9.31541C33.6315 9.31541 33.0701 9.3821 32.5423 9.5155C32.0034 9.66001 31.4981 9.88233 31.0265 10.1825ZM36.0231 15.0958C35.967 15.8294 35.6638 16.4186 35.1136 16.841C34.5635 17.2745 33.9796 17.4857 33.3508 17.4857C32.9578 17.4857 32.576 17.3746 32.2167 17.1634C31.8462 16.9522 31.6665 16.552 31.6665 15.9739C31.6665 15.2736 31.9472 14.829 32.4862 14.6178C33.0364 14.4066 33.6427 14.3065 34.3276 14.3065C34.6308 14.3065 34.9227 14.3176 35.2035 14.351C35.4842 14.3732 35.7649 14.3955 36.0119 14.4066V15.0958H36.0231Z" fill="#263238"/>
<path d="M43.9961 22.7436V0.00012207H53.2819V22.7325H43.9961V22.7436ZM52.3051 15.8628C52.3051 15.1514 52.1142 14.6289 51.7324 14.2843C51.3507 13.9397 50.8903 13.7063 50.3289 13.5729C49.7675 13.4395 49.2173 13.3283 48.6671 13.2394C48.1169 13.1505 47.6453 13.0059 47.2636 12.817C46.8818 12.628 46.6909 12.2945 46.6909 11.8165C46.6909 11.3608 46.8705 11.0273 47.2411 10.805C47.6116 10.5826 48.072 10.4826 48.6446 10.4826C49.3071 10.4826 49.9247 10.6271 50.4973 10.9272L50.7219 12.3723L51.9009 12.2278L51.6763 10.138C51.2945 9.90456 50.8342 9.71558 50.284 9.55996C49.7338 9.40433 49.1499 9.31541 48.5211 9.31541C47.6902 9.31541 46.9267 9.51549 46.2193 9.90456C45.5119 10.2936 45.1639 10.9606 45.1639 11.9166C45.1639 12.6169 45.3547 13.1282 45.7365 13.4506C46.1182 13.7841 46.5899 14.0064 47.1625 14.1398C47.7352 14.2732 48.2965 14.3843 48.858 14.4844C49.4194 14.5733 49.891 14.7289 50.2728 14.929C50.6545 15.1291 50.8454 15.4737 50.8454 15.9739C50.8454 16.4853 50.5983 16.8632 50.1043 17.1078C49.6102 17.3523 49.0489 17.4746 48.4088 17.4746C47.6902 17.4746 47.0165 17.3301 46.3989 17.03L46.4551 15.8406L45.321 15.7183L45.0403 17.7525C45.4333 18.0082 45.9498 18.2194 46.5786 18.3861C47.2074 18.5529 47.8362 18.6418 48.4762 18.6418C49.5654 18.6418 50.4749 18.3973 51.2047 17.897C51.9346 17.419 52.3051 16.7298 52.3051 15.8628Z" fill="#263238"/>
<path d="M57.873 22.7436V0.00012207H67.1589V22.7325H57.873V22.7436ZM66.182 15.8628C66.182 15.1514 65.9911 14.6289 65.6093 14.2843C65.2276 13.9397 64.7672 13.7063 64.2058 13.5729C63.6444 13.4395 63.0942 13.3283 62.544 13.2394C61.9938 13.1505 61.5222 13.0059 61.1405 12.817C60.7587 12.628 60.5678 12.2945 60.5678 11.8165C60.5678 11.3608 60.7475 11.0273 61.118 10.805C61.4885 10.5826 61.9489 10.4826 62.5215 10.4826C63.184 10.4826 63.8016 10.6271 64.3743 10.9272L64.5988 12.3723L65.7778 12.2278L65.5532 10.138C65.1715 9.90456 64.7111 9.71558 64.1609 9.55996C63.6107 9.40433 63.0268 9.31541 62.398 9.31541C61.5671 9.31541 60.8036 9.51549 60.0962 9.90456C59.3889 10.2936 59.0408 10.9606 59.0408 11.9166C59.0408 12.6169 59.2317 13.1282 59.6134 13.4506C59.9952 13.7841 60.4668 14.0064 61.0395 14.1398C61.6121 14.2732 62.1735 14.3843 62.7349 14.4844C63.2963 14.5733 63.7679 14.7289 64.1497 14.929C64.5314 15.1291 64.7223 15.4737 64.7223 15.9739C64.7223 16.4853 64.4753 16.8632 63.9813 17.1078C63.4872 17.3523 62.9258 17.4746 62.2858 17.4746C61.5672 17.4746 60.8934 17.3301 60.2759 17.03L60.3321 15.8406L59.198 15.7183L58.9173 17.7525C59.3103 18.0082 59.8268 18.2194 60.4556 18.3861C61.0843 18.5529 61.7131 18.6418 62.3532 18.6418C63.4423 18.6418 64.3518 18.3973 65.0816 17.897C65.8115 17.419 66.182 16.7298 66.182 15.8628Z" fill="#263238"/>
<path d="M71.752 22.7436V0.00012207H77.8714V22.7325H71.752V22.7436ZM72.6502 18.4528H77.2426V17.3079H75.6594V9.50438H72.6166V10.6493H74.2446V17.3079H72.6614V18.4528H72.6502ZM74.0875 5.35808V7.19223H75.637V5.35808H74.0875Z" fill="#263238"/>
<path d="M82.4629 22.7436V0.00012207H92.2428V22.7325H82.4629V22.7436ZM91.367 15.4404L90.1431 15.1736C89.8736 16.6854 89.054 17.4413 87.7066 17.4413C86.8083 17.4413 86.1234 17.1411 85.6518 16.5409C85.1802 15.9406 84.9444 15.0958 84.9444 14.0286C84.9444 13.0615 85.1577 12.2389 85.5732 11.5497C85.9886 10.8605 86.6848 10.5271 87.6504 10.5271C88.3915 10.5271 89.0427 10.6938 89.5817 11.0273L89.9298 12.5391L91.1088 12.3946L90.7607 10.238C90.3003 9.89344 89.8175 9.64889 89.3122 9.5155C88.807 9.3821 88.2567 9.31541 87.6616 9.31541C86.2581 9.31541 85.1914 9.80451 84.4952 10.7827C83.7878 11.7609 83.4398 12.8726 83.4398 14.1064C83.4398 15.5404 83.8103 16.6631 84.5626 17.4524C85.3037 18.2527 86.303 18.6529 87.5494 18.6529C88.7957 18.6529 89.7165 18.3083 90.3003 17.6302C90.8842 16.941 91.2435 16.2185 91.367 15.4404Z" fill="#263238"/>
<path d="M6.49325 35.1603C6.23499 35.6272 5.85322 35.994 5.35917 36.2497C4.85389 36.5053 4.25878 36.6387 3.56262 36.6387H1.55273V30.3693H3.56262C4.25878 30.3693 4.86512 30.4915 5.35917 30.7472C5.85322 31.0029 6.23499 31.3586 6.49325 31.8366C6.7515 32.3146 6.87501 32.8593 6.87501 33.504C6.87501 34.1376 6.7515 34.6934 6.49325 35.1603ZM5.38161 35.2826C5.81952 34.8602 6.03288 34.271 6.03288 33.504C6.03288 32.737 5.81952 32.1478 5.38161 31.7254C4.94371 31.303 4.31492 31.0918 3.48402 31.0918H2.34997V35.9162H3.48402C4.31492 35.9162 4.94371 35.705 5.38161 35.2826Z" fill="#FF5196"/>
<path d="M11.0404 31.0251V33.1705H13.4433V33.793H11.0404V35.9829H13.7127V36.6387H10.2207V30.3693H13.7127V31.0251H11.0404Z" fill="#FF5196"/>
<path d="M20.8098 35.8384C20.6638 36.0941 20.4505 36.3053 20.1585 36.4609C19.8666 36.6166 19.5073 36.7055 19.0694 36.7055C18.6539 36.7055 18.2722 36.6277 17.9465 36.4832C17.6209 36.3275 17.3627 36.1274 17.1606 35.8607C16.9697 35.5939 16.8574 35.2937 16.8237 34.9603H17.6995C17.722 35.1381 17.7781 35.316 17.8792 35.4827C17.9802 35.6495 18.1374 35.794 18.3283 35.9051C18.5192 36.0163 18.755 36.0719 19.0357 36.0719C19.395 36.0719 19.6757 35.9829 19.8666 35.7828C20.0575 35.5828 20.1585 35.3493 20.1585 35.0492C20.1585 34.7935 20.0912 34.5823 19.9564 34.4267C19.8217 34.2711 19.6533 34.1377 19.4624 34.0487C19.2715 33.9598 18.9908 33.8598 18.6539 33.7486C18.2497 33.6152 17.9353 33.4929 17.6883 33.3818C17.4413 33.2706 17.2392 33.0928 17.0707 32.8593C16.9023 32.6259 16.8125 32.3257 16.8125 31.9478C16.8125 31.6254 16.8911 31.3364 17.0483 31.0807C17.2055 30.8362 17.43 30.6361 17.7332 30.5027C18.0251 30.3693 18.3845 30.3026 18.7775 30.3026C19.395 30.3026 19.9003 30.4471 20.2596 30.7473C20.6301 31.0474 20.8322 31.4253 20.8996 31.8922H20.0238C19.9789 31.6477 19.8441 31.4253 19.642 31.2364C19.4287 31.0474 19.148 30.9473 18.7887 30.9473C18.463 30.9473 18.1936 31.0363 18.0027 31.203C17.8006 31.3698 17.7108 31.6143 17.7108 31.9144C17.7108 32.159 17.7781 32.3591 17.9017 32.5036C18.0364 32.6592 18.1936 32.7704 18.3845 32.8593C18.5753 32.9482 18.8448 33.0372 19.1704 33.1483C19.5747 33.2817 19.9003 33.404 20.1585 33.5263C20.4056 33.6486 20.6189 33.8264 20.7873 34.0599C20.9557 34.2933 21.0456 34.6157 21.0456 35.0158C21.0231 35.3049 20.9558 35.5828 20.8098 35.8384Z" fill="#FF5196"/>
<path d="M25.1888 30.3693V36.6387H24.3691V30.3693H25.1888Z" fill="#FF5196"/>
<path d="M33.4742 30.8473C33.9795 31.2141 34.3163 31.7032 34.4847 32.3257H33.6202C33.4742 31.9478 33.2159 31.6365 32.8679 31.4142C32.5198 31.1808 32.1043 31.0696 31.6215 31.0696C31.1948 31.0696 30.8018 31.1697 30.465 31.3698C30.1281 31.5698 29.8587 31.8478 29.6566 32.2146C29.4657 32.5814 29.3646 33.0149 29.3646 33.5152C29.3646 34.0265 29.4657 34.4712 29.6566 34.838C29.8474 35.2048 30.1281 35.4938 30.4762 35.6939C30.8243 35.894 31.2285 35.9941 31.6889 35.9941C32.0819 35.9941 32.4299 35.9051 32.7556 35.7495C33.0812 35.5828 33.3394 35.3382 33.5528 35.027C33.7661 34.7157 33.8784 34.3378 33.9233 33.9153H31.4306V33.3151H34.6082V34.0599C34.5521 34.5601 34.3949 35.0047 34.1367 35.416C33.8784 35.8273 33.5303 36.1386 33.0924 36.372C32.6545 36.6054 32.1605 36.7277 31.599 36.7277C30.9927 36.7277 30.4537 36.5943 29.9822 36.3275C29.5106 36.0608 29.1513 35.6828 28.893 35.1937C28.6347 34.7157 28.5 34.1599 28.5 33.5374C28.5 32.9149 28.6347 32.3591 28.893 31.8811C29.1513 31.4031 29.5218 31.014 29.9822 30.7473C30.4425 30.4805 30.9815 30.336 31.5878 30.336C32.3513 30.3137 32.9689 30.4916 33.4742 30.8473Z" fill="#FF5196"/>
<path d="M42.896 36.6387H42.0764L38.7864 31.681V36.6387H37.9668V30.3693H38.7864L42.0764 35.327V30.3693H42.896V36.6387Z" fill="#FF5196"/>
<path d="M54.7082 35.8387C54.5623 36.0943 54.3489 36.3055 54.057 36.4612C53.765 36.6168 53.4058 36.7057 52.9679 36.7057C52.5524 36.7057 52.1706 36.6279 51.845 36.4834C51.5194 36.3278 51.2611 36.1277 51.059 35.8609C50.8681 35.5941 50.7559 35.294 50.7222 34.9605H51.598C51.6204 35.1384 51.6766 35.3162 51.7776 35.483C51.8787 35.6497 52.0359 35.7942 52.2267 35.9054C52.4176 36.0165 52.6534 36.0721 52.9341 36.0721C53.2934 36.0721 53.5741 35.9832 53.765 35.7831C53.9559 35.583 54.057 35.3496 54.057 35.0494C54.057 34.7938 53.9896 34.5826 53.8549 34.4269C53.7201 34.2713 53.5517 34.1379 53.3608 34.049C53.1699 33.96 52.8893 33.86 52.5524 33.7488C52.1482 33.6155 51.8337 33.4932 51.5867 33.382C51.3397 33.2709 51.1376 33.093 50.9692 32.8596C50.8007 32.6261 50.7109 32.326 50.7109 31.948C50.7109 31.6257 50.7895 31.3367 50.9467 31.081C51.1039 30.8364 51.3285 30.6363 51.6317 30.5029C51.9236 30.3696 52.2829 30.3029 52.6759 30.3029C53.2935 30.3029 53.7987 30.4474 54.1581 30.7475C54.5286 31.0476 54.7307 31.4256 54.7981 31.8925H53.9222C53.8773 31.6479 53.7426 31.4256 53.5404 31.2366C53.3271 31.0476 53.0465 30.9476 52.6871 30.9476C52.3615 30.9476 52.092 31.0365 51.9011 31.2033C51.699 31.37 51.6092 31.6146 51.6092 31.9147C51.6092 32.1592 51.6765 32.3593 51.8001 32.5038C51.9348 32.6595 52.092 32.7706 52.2829 32.8596C52.4738 32.9485 52.7432 33.0374 53.0689 33.1486C53.4731 33.282 53.7987 33.4042 54.057 33.5265C54.304 33.6488 54.5173 33.8267 54.6858 34.0601C54.8542 34.2935 54.944 34.6159 54.944 35.0161C54.9215 35.3051 54.8542 35.583 54.7082 35.8387Z" fill="#FF5196"/>
<path d="M62.1516 30.3693V31.0251H60.3662V36.6387H59.5353V31.0251H57.75V30.3693H62.1516Z" fill="#FF5196"/>
<path d="M65.971 30.3693V34.1265C65.971 34.7379 66.1057 35.1936 66.3864 35.4938C66.6672 35.7828 67.0377 35.9384 67.5318 35.9384C68.0146 35.9384 68.3851 35.7939 68.6546 35.4938C68.9241 35.1936 69.0588 34.749 69.0588 34.1376V30.3804H69.8785V34.1376C69.8785 34.9936 69.6652 35.6383 69.2385 36.0607C68.8118 36.4942 68.2391 36.7054 67.5205 36.7054C66.8131 36.7054 66.2405 36.4942 65.8139 36.0607C65.3872 35.6272 65.1738 34.9936 65.1738 34.1376V30.3804H65.971V30.3693Z" fill="#FF5196"/>
<path d="M78.333 35.1603C78.0748 35.6272 77.693 35.994 77.1989 36.2497C76.6937 36.5053 76.0986 36.6387 75.4024 36.6387H73.3926V30.3693H75.4024C76.0986 30.3693 76.7049 30.4915 77.1989 30.7472C77.693 31.0029 78.0748 31.3586 78.333 31.8366C78.5913 32.3146 78.7148 32.8593 78.7148 33.504C78.7148 34.1376 78.5913 34.6934 78.333 35.1603ZM77.2327 35.2826C77.6706 34.8602 77.8839 34.271 77.8839 33.504C77.8839 32.737 77.6706 32.1478 77.2327 31.7254C76.7948 31.303 76.166 31.0918 75.3351 31.0918H74.201V35.9162H75.3351C76.1547 35.9162 76.7948 35.705 77.2327 35.2826Z" fill="#FF5196"/>
<path d="M82.89 30.3693V36.6387H82.0703V30.3693H82.89Z" fill="#FF5196"/>
<path d="M90.9313 30.7029C91.4028 30.9808 91.7734 31.3588 92.0429 31.8479C92.3123 32.337 92.4471 32.8928 92.4471 33.5042C92.4471 34.1156 92.3123 34.6714 92.0429 35.1605C91.7734 35.6496 91.4028 36.0275 90.9313 36.3054C90.4597 36.5833 89.9319 36.7167 89.348 36.7167C88.7641 36.7167 88.2252 36.5833 87.7536 36.3054C87.282 36.0275 86.9002 35.6496 86.6308 35.1605C86.3613 34.6714 86.2266 34.1156 86.2266 33.5042C86.2266 32.8928 86.3613 32.337 86.6308 31.8479C86.9002 31.3588 87.2708 30.9808 87.7536 30.7029C88.2364 30.425 88.7641 30.2916 89.348 30.2916C89.9319 30.2916 90.4597 30.425 90.9313 30.7029ZM88.169 31.3477C87.821 31.5477 87.5515 31.8256 87.3606 32.2036C87.1698 32.5704 87.0687 33.004 87.0687 33.5042C87.0687 33.9933 87.1698 34.4268 87.3606 34.8048C87.5515 35.1827 87.821 35.4606 88.169 35.6607C88.5171 35.8608 88.8989 35.9608 89.3368 35.9608C89.7635 35.9608 90.1565 35.8608 90.5046 35.6607C90.8526 35.4606 91.1221 35.1716 91.313 34.8048C91.5039 34.4379 91.6049 34.0044 91.6049 33.5153C91.6049 33.0151 91.5039 32.5815 91.313 32.2147C91.1221 31.8479 90.8526 31.5589 90.5046 31.3588C90.1565 31.1587 89.7747 31.0586 89.3368 31.0586C88.9101 31.0475 88.5171 31.1476 88.169 31.3477Z" fill="#FF5196"/>
</svg>
