<svg width="160" height="63" viewBox="0 0 160 63" fill="none" xmlns="http://www.w3.org/2000/svg">
<path d="M52.5697 14.5001L23.6426 28.5001V35.5001H135.643V0.500122L87.4307 22.5001L52.5697 14.5001Z" fill="url(#paint0_linear_1_2025)"/>
<path d="M22.6426 28.5001L52.0863 14.2545L87.5697 22.1142L136.643 0.500122" stroke="#4C56CC" stroke-linecap="round"/>
<path d="M43.0371 51.7296C43.0371 53.63 43.5703 55.0314 44.6367 55.9337C45.71 56.8361 47.0498 57.2872 48.6562 57.2872C50.2559 57.2872 51.5889 56.8361 52.6553 55.9337C53.7217 55.0314 54.2549 53.63 54.2549 51.7296V42.0704H51.5376V51.8834C51.5376 53.0524 51.2744 53.8898 50.748 54.3956C50.2217 54.8947 49.5278 55.1442 48.6665 55.1442C47.7983 55.1442 47.1011 54.8947 46.5747 54.3956C46.0552 53.8898 45.7954 53.0524 45.7954 51.8834V42.0704H43.0371V51.7296ZM56.9722 61.2965H59.6484V55.8722C59.9355 56.2823 60.3423 56.6071 60.8687 56.8463C61.4019 57.0856 62.0171 57.2052 62.7144 57.2052C64.0474 57.2052 65.1206 56.7164 65.9341 55.7389C66.7476 54.7545 67.1543 53.4625 67.1543 51.8629V51.5348C67.1543 49.9283 66.7441 48.6398 65.9238 47.6691C65.1035 46.6915 64.0166 46.2028 62.6631 46.2028C61.9658 46.2028 61.3403 46.3463 60.7866 46.6334C60.2329 46.9137 59.833 47.2657 59.5869 47.6896H59.5356L59.4741 46.4181H56.9722V61.2965ZM59.6484 53.5958V49.7916C59.8262 49.3815 60.1133 49.0226 60.5098 48.715C60.9131 48.4005 61.4053 48.2433 61.9863 48.2433C62.8203 48.2433 63.4355 48.5338 63.832 49.1149C64.2285 49.6891 64.4268 50.4615 64.4268 51.4323V51.9655C64.4268 52.9362 64.2285 53.7155 63.832 54.3033C63.4355 54.8844 62.8237 55.1749 61.9966 55.1749C61.4292 55.1749 60.937 55.0177 60.52 54.7032C60.1099 54.382 59.8193 54.0128 59.6484 53.5958ZM73.6963 52.8473C73.6963 54.276 74.2158 55.3732 75.2549 56.1388C76.3008 56.9044 77.6611 57.2872 79.3359 57.2872C81.0176 57.2872 82.3608 56.8976 83.3657 56.1183C84.3774 55.3322 84.8833 54.2623 84.8833 52.9088C84.8833 51.6168 84.4902 50.6188 83.7041 49.9147C82.918 49.2037 81.7559 48.6295 80.2178 48.192C78.7686 47.7887 77.8218 47.4332 77.3774 47.1256C76.9331 46.818 76.7109 46.3839 76.7109 45.8234C76.7109 45.2355 76.916 44.7706 77.3262 44.4288C77.7363 44.087 78.3755 43.9161 79.2437 43.9161C80.1118 43.9161 80.7646 44.1246 81.2021 44.5416C81.6465 44.9518 81.8687 45.5021 81.8687 46.1925V46.4181H84.5859V46.1412C84.5859 44.8287 84.0972 43.776 83.1196 42.983C82.1489 42.1832 80.8535 41.7833 79.2334 41.7833C77.6064 41.7833 76.3179 42.173 75.3677 42.9523C74.4175 43.7247 73.9424 44.7433 73.9424 46.0079C73.9492 47.2111 74.3286 48.151 75.0806 48.8278C75.8394 49.5045 77.0015 50.0651 78.5669 50.5094C80.0093 50.9127 80.9629 51.2887 81.4277 51.6373C81.8926 51.986 82.125 52.4679 82.125 53.0831C82.125 53.712 81.8823 54.2179 81.397 54.6007C80.9185 54.9835 80.228 55.1749 79.3257 55.1749C78.4233 55.1749 77.7192 54.9767 77.2134 54.5802C76.7075 54.1837 76.4546 53.589 76.4546 52.796V52.5397H73.6963V52.8473ZM86.8931 57.0001H89.5693V49.8531C89.7676 49.3746 90.0513 48.9952 90.4204 48.715C90.7896 48.4347 91.2271 48.2946 91.7329 48.2946C92.314 48.2946 92.7686 48.4518 93.0967 48.7662C93.4248 49.0807 93.5889 49.6071 93.5889 50.3453V57.0001H96.2549V50.1813C96.2549 48.7662 95.9336 47.7511 95.291 47.1359C94.6553 46.5138 93.835 46.2028 92.8301 46.2028C92.0781 46.2028 91.4287 46.3497 90.8818 46.6437C90.335 46.9376 89.8975 47.3204 89.5693 47.7921V41.4039H86.8931V57.0001ZM98.2646 51.8629C98.2646 53.5035 98.7534 54.8195 99.731 55.8107C100.715 56.8019 102.007 57.2975 103.607 57.2975C105.207 57.2975 106.495 56.8019 107.473 55.8107C108.45 54.8195 108.939 53.5035 108.939 51.8629V51.5348C108.939 49.901 108.45 48.5885 107.473 47.5973C106.495 46.6061 105.207 46.1105 103.607 46.1105C102.007 46.1105 100.715 46.6061 99.731 47.5973C98.7534 48.5885 98.2646 49.901 98.2646 51.5348V51.8629ZM100.992 51.4323C100.992 50.4274 101.218 49.631 101.669 49.0431C102.12 48.4552 102.766 48.1613 103.607 48.1613C104.441 48.1613 105.083 48.4552 105.535 49.0431C105.986 49.631 106.211 50.4274 106.211 51.4323V51.9757C106.211 52.9806 105.989 53.777 105.545 54.3649C105.101 54.9528 104.455 55.2467 103.607 55.2467C102.759 55.2467 102.11 54.9528 101.659 54.3649C101.214 53.777 100.992 52.9806 100.992 51.9757V51.4323ZM109.698 48.3868H116.168V46.4181H109.698V48.3868ZM111.39 53.9957C111.39 55.1373 111.667 55.9713 112.22 56.4977C112.774 57.024 113.519 57.2872 114.456 57.2872C114.818 57.2872 115.146 57.2565 115.44 57.1949C115.741 57.1334 115.973 57.0651 116.137 56.9899V55.0211C115.98 55.0826 115.816 55.1339 115.645 55.1749C115.481 55.2091 115.317 55.2262 115.153 55.2262C114.791 55.2262 114.514 55.1305 114.322 54.9391C114.138 54.7477 114.045 54.3888 114.045 53.8624V43.7111H111.41V47.1051L111.39 47.382V53.9957Z" fill="#263238"/>
<defs>
<linearGradient id="paint0_linear_1_2025" x1="79.6426" y1="0.500122" x2="79.4741" y2="35.0011" gradientUnits="userSpaceOnUse">
<stop stop-color="#7782FF"/>
<stop offset="1" stop-color="#7782FF" stop-opacity="0"/>
</linearGradient>
</defs>
</svg>
