<svg width="125" height="28" viewBox="0 0 125 28" fill="none" xmlns="http://www.w3.org/2000/svg">
<path d="M11.0226 21.92C7.64258 21.92 5.06258 20.98 3.28258 19.1C1.52258 17.22 0.642578 14.55 0.642578 11.09C0.642578 9.37 0.912578 7.84 1.45258 6.5C1.99258 5.14 2.73258 4 3.67258 3.08C4.61258 2.14 5.73258 1.43 7.03258 0.949998C8.33258 0.469998 9.74258 0.229998 11.2626 0.229998C12.1426 0.229998 12.9426 0.299999 13.6626 0.439999C14.3826 0.559999 15.0126 0.709999 15.5526 0.889999C16.0926 1.05 16.5426 1.22 16.9026 1.4C17.2626 1.58 17.5226 1.72 17.6826 1.82L16.3326 5.6C15.6926 5.26 14.9426 4.97 14.0826 4.73C13.2426 4.49 12.2826 4.37 11.2026 4.37C10.4826 4.37 9.77258 4.49 9.07258 4.73C8.39258 4.97 7.78258 5.36 7.24258 5.9C6.72258 6.42 6.30258 7.1 5.98258 7.94C5.66258 8.78 5.50258 9.8 5.50258 11C5.50258 11.96 5.60258 12.86 5.80258 13.7C6.02258 14.52 6.36258 15.23 6.82258 15.83C7.30258 16.43 7.92258 16.91 8.68258 17.27C9.44258 17.61 10.3626 17.78 11.4426 17.78C12.1226 17.78 12.7326 17.74 13.2726 17.66C13.8126 17.58 14.2926 17.49 14.7126 17.39C15.1326 17.27 15.5026 17.14 15.8226 17C16.1426 16.86 16.4326 16.73 16.6926 16.61L17.9826 20.36C17.3226 20.76 16.3926 21.12 15.1926 21.44C13.9926 21.76 12.6026 21.92 11.0226 21.92ZM30.2057 9.68C29.8057 9.58 29.3357 9.48 28.7957 9.38C28.2557 9.26 27.6757 9.2 27.0557 9.2C26.7757 9.2 26.4357 9.23 26.0357 9.29C25.6557 9.33 25.3657 9.38 25.1657 9.44V21.5H20.6957V6.56C21.4957 6.28 22.4357 6.02 23.5157 5.78C24.6157 5.52 25.8357 5.39 27.1757 5.39C27.4157 5.39 27.7057 5.41 28.0457 5.45C28.3857 5.47 28.7257 5.51 29.0657 5.57C29.4057 5.61 29.7457 5.67 30.0857 5.75C30.4257 5.81 30.7157 5.89 30.9557 5.99L30.2057 9.68ZM47.819 13.58C47.819 14.82 47.639 15.96 47.279 17C46.919 18.02 46.399 18.9 45.719 19.64C45.039 20.36 44.219 20.92 43.259 21.32C42.319 21.72 41.259 21.92 40.079 21.92C38.919 21.92 37.859 21.72 36.899 21.32C35.959 20.92 35.149 20.36 34.469 19.64C33.789 18.9 33.259 18.02 32.879 17C32.499 15.96 32.309 14.82 32.309 13.58C32.309 12.34 32.499 11.21 32.879 10.19C33.279 9.17 33.819 8.3 34.499 7.58C35.199 6.86 36.019 6.3 36.959 5.9C37.919 5.5 38.959 5.3 40.079 5.3C41.219 5.3 42.259 5.5 43.199 5.9C44.159 6.3 44.979 6.86 45.659 7.58C46.339 8.3 46.869 9.17 47.249 10.19C47.629 11.21 47.819 12.34 47.819 13.58ZM43.259 13.58C43.259 12.2 42.979 11.12 42.419 10.34C41.879 9.54 41.099 9.14 40.079 9.14C39.059 9.14 38.269 9.54 37.709 10.34C37.149 11.12 36.869 12.2 36.869 13.58C36.869 14.96 37.149 16.06 37.709 16.88C38.269 17.68 39.059 18.08 40.079 18.08C41.099 18.08 41.879 17.68 42.419 16.88C42.979 16.06 43.259 14.96 43.259 13.58ZM55.8116 18.29C56.6316 18.29 57.2116 18.21 57.5516 18.05C57.8916 17.89 58.0616 17.58 58.0616 17.12C58.0616 16.76 57.8416 16.45 57.4016 16.19C56.9616 15.91 56.2916 15.6 55.3916 15.26C54.6916 15 54.0516 14.73 53.4716 14.45C52.9116 14.17 52.4316 13.84 52.0316 13.46C51.6316 13.06 51.3216 12.59 51.1016 12.05C50.8816 11.51 50.7716 10.86 50.7716 10.1C50.7716 8.62 51.3216 7.45 52.4216 6.59C53.5216 5.73 55.0316 5.3 56.9516 5.3C57.9116 5.3 58.8316 5.39 59.7116 5.57C60.5916 5.73 61.2916 5.91 61.8116 6.11L61.0316 9.59C60.5116 9.41 59.9416 9.25 59.3216 9.11C58.7216 8.97 58.0416 8.9 57.2816 8.9C55.8816 8.9 55.1816 9.29 55.1816 10.07C55.1816 10.25 55.2116 10.41 55.2716 10.55C55.3316 10.69 55.4516 10.83 55.6316 10.97C55.8116 11.09 56.0516 11.23 56.3516 11.39C56.6716 11.53 57.0716 11.69 57.5516 11.87C58.5316 12.23 59.3416 12.59 59.9816 12.95C60.6216 13.29 61.1216 13.67 61.4816 14.09C61.8616 14.49 62.1216 14.94 62.2616 15.44C62.4216 15.94 62.5016 16.52 62.5016 17.18C62.5016 18.74 61.9116 19.92 60.7316 20.72C59.5716 21.52 57.9216 21.92 55.7816 21.92C54.3816 21.92 53.2116 21.8 52.2716 21.56C51.3516 21.32 50.7116 21.12 50.3516 20.96L51.1016 17.33C51.8616 17.63 52.6416 17.87 53.4416 18.05C54.2416 18.21 55.0316 18.29 55.8116 18.29ZM70.3722 18.29C71.1922 18.29 71.7722 18.21 72.1122 18.05C72.4522 17.89 72.6222 17.58 72.6222 17.12C72.6222 16.76 72.4022 16.45 71.9622 16.19C71.5222 15.91 70.8522 15.6 69.9522 15.26C69.2522 15 68.6122 14.73 68.0322 14.45C67.4722 14.17 66.9922 13.84 66.5922 13.46C66.1922 13.06 65.8822 12.59 65.6622 12.05C65.4422 11.51 65.3322 10.86 65.3322 10.1C65.3322 8.62 65.8822 7.45 66.9822 6.59C68.0822 5.73 69.5922 5.3 71.5122 5.3C72.4722 5.3 73.3922 5.39 74.2722 5.57C75.1522 5.73 75.8522 5.91 76.3722 6.11L75.5922 9.59C75.0722 9.41 74.5022 9.25 73.8822 9.11C73.2822 8.97 72.6022 8.9 71.8422 8.9C70.4422 8.9 69.7422 9.29 69.7422 10.07C69.7422 10.25 69.7722 10.41 69.8322 10.55C69.8922 10.69 70.0122 10.83 70.1922 10.97C70.3722 11.09 70.6122 11.23 70.9122 11.39C71.2322 11.53 71.6322 11.69 72.1122 11.87C73.0922 12.23 73.9022 12.59 74.5422 12.95C75.1822 13.29 75.6822 13.67 76.0422 14.09C76.4222 14.49 76.6822 14.94 76.8222 15.44C76.9822 15.94 77.0622 16.52 77.0622 17.18C77.0622 18.74 76.4722 19.92 75.2922 20.72C74.1322 21.52 72.4822 21.92 70.3422 21.92C68.9422 21.92 67.7722 21.8 66.8322 21.56C65.9122 21.32 65.2722 21.12 64.9122 20.96L65.6622 17.33C66.4222 17.63 67.2022 17.87 68.0022 18.05C68.8022 18.21 69.5922 18.29 70.3722 18.29ZM79.0527 10.52H87.7527V14.57H79.0527V10.52Z" fill="#263238"/>
<path d="M102.838 21.5C102.258 20.34 101.618 19.17 100.918 17.99C100.238 16.79 99.448 15.57 98.548 14.33C98.268 14.69 97.908 15.19 97.468 15.83C97.048 16.47 96.618 17.15 96.178 17.87C95.758 18.59 95.358 19.28 94.978 19.94C94.598 20.6 94.318 21.12 94.138 21.5H88.798C89.678 19.88 90.698 18.18 91.858 16.4C93.038 14.62 94.348 12.73 95.788 10.73L89.098 0.709999H94.768L98.818 7.19L102.778 0.709999H108.118L101.518 10.79C103.198 12.97 104.608 14.99 105.748 16.85C106.888 18.69 107.788 20.24 108.448 21.5H102.838ZM124.12 5.72C123.22 8.76 122.28 11.61 121.3 14.27C120.32 16.93 119.25 19.51 118.09 22.01C117.67 22.91 117.25 23.67 116.83 24.29C116.41 24.93 115.95 25.45 115.45 25.85C114.95 26.27 114.38 26.57 113.74 26.75C113.12 26.95 112.39 27.05 111.55 27.05C110.85 27.05 110.2 26.98 109.6 26.84C109.02 26.72 108.54 26.58 108.16 26.42L108.94 22.85C109.4 23.01 109.81 23.12 110.17 23.18C110.53 23.24 110.91 23.27 111.31 23.27C112.11 23.27 112.72 23.05 113.14 22.61C113.58 22.19 113.95 21.6 114.25 20.84C113.23 18.84 112.21 16.6 111.19 14.12C110.17 11.62 109.21 8.82 108.31 5.72H113.05C113.25 6.5 113.48 7.35 113.74 8.27C114.02 9.17 114.31 10.09 114.61 11.03C114.91 11.95 115.21 12.85 115.51 13.73C115.83 14.61 116.13 15.41 116.41 16.13C116.67 15.41 116.94 14.61 117.22 13.73C117.5 12.85 117.77 11.95 118.03 11.03C118.31 10.09 118.57 9.17 118.81 8.27C119.07 7.35 119.3 6.5 119.5 5.72H124.12Z" fill="#7782FF"/>
</svg>
