<svg width="94" height="44" viewBox="0 0 94 44" fill="none" xmlns="http://www.w3.org/2000/svg">
<path d="M25.6667 7H2.33333C1.71449 7 1.121 7.25323 0.683417 7.70399C0.245833 8.15475 0 8.76611 0 9.40357V18.2217C0 31.6517 11.0542 36.1133 13.2708 36.8644C13.7411 37.0452 14.2589 37.0452 14.7292 36.8644C16.9458 36.1133 28 31.6517 28 18.2217V9.40357C28 8.76611 27.7542 8.15475 27.3166 7.70399C26.879 7.25323 26.2855 7 25.6667 7ZM19.9062 20.7004L15.8812 22.0524L18.375 25.5826C18.465 25.7095 18.5297 25.8535 18.5652 26.0064C18.6008 26.1592 18.6065 26.3178 18.5821 26.4729C18.5577 26.628 18.5036 26.7766 18.423 26.91C18.3424 27.0434 18.2368 27.159 18.1125 27.2501C17.9166 27.407 17.6752 27.4916 17.4271 27.4905C17.2427 27.4887 17.0611 27.4431 16.8967 27.3571C16.7323 27.2711 16.5894 27.1471 16.4792 26.9947L14 23.4645L11.5208 26.9947C11.4106 27.1471 11.2677 27.2711 11.1033 27.3571C10.9389 27.4431 10.7573 27.4887 10.5729 27.4905C10.3248 27.4916 10.0834 27.407 9.8875 27.2501C9.76317 27.159 9.65763 27.0434 9.57702 26.91C9.4964 26.7766 9.44232 26.628 9.4179 26.4729C9.39347 26.3178 9.39921 26.1592 9.43476 26.0064C9.47031 25.8535 9.53498 25.7095 9.625 25.5826L12.1187 22.0524L8.09375 20.7004C7.80049 20.6037 7.5562 20.3916 7.41415 20.1102C7.2721 19.8288 7.2438 19.5009 7.33542 19.1981C7.43237 18.8949 7.64112 18.6431 7.91665 18.497C8.19218 18.3509 8.51242 18.3221 8.80833 18.417L12.8333 19.769V15.4125C12.8333 15.0938 12.9562 14.7881 13.175 14.5627C13.3938 14.3373 13.6906 14.2107 14 14.2107C14.3094 14.2107 14.6062 14.3373 14.825 14.5627C15.0438 14.7881 15.1667 15.0938 15.1667 15.4125V19.769L19.1917 18.417C19.4876 18.3221 19.8078 18.3509 20.0833 18.497C20.3589 18.6431 20.5676 18.8949 20.6646 19.1981C20.7562 19.5009 20.7279 19.8288 20.5858 20.1102C20.4438 20.3916 20.1995 20.6037 19.9062 20.7004Z" fill="#47CFFF"/>
<path d="M40.4955 2.2V41.8C40.4955 42.3835 40.2587 42.9431 39.8372 43.3556C39.4156 43.7682 38.8439 44 38.2478 44C37.6516 44 37.0799 43.7682 36.6584 43.3556C36.2368 42.9431 36 42.3835 36 41.8V2.2C36 1.61652 36.2368 1.05695 36.6584 0.644365C37.0799 0.231785 37.6516 0 38.2478 0C38.8439 0 39.4156 0.231785 39.8372 0.644365C40.2587 1.05695 40.4955 1.61652 40.4955 2.2ZM64.097 17.1875L58.4776 18.975V13.2C58.4776 12.6165 58.2408 12.0569 57.8192 11.6444C57.3977 11.2318 56.826 11 56.2298 11C55.6337 11 55.062 11.2318 54.6404 11.6444C54.2189 12.0569 53.9821 12.6165 53.9821 13.2V18.975L48.3627 17.1875C48.0843 17.0937 47.7896 17.0558 47.4959 17.0759C47.2023 17.0961 46.9158 17.1739 46.6536 17.3048C46.3913 17.4357 46.1587 17.617 45.9696 17.8378C45.7805 18.0586 45.6388 18.3144 45.553 18.59C45.4568 18.8643 45.4177 19.1546 45.438 19.4439C45.4582 19.7332 45.5375 20.0156 45.671 20.2745C45.8046 20.5334 45.9897 20.7634 46.2156 20.9511C46.4414 21.1389 46.7033 21.2804 46.9859 21.3675L52.6053 23.155L49.1213 27.83C48.9471 28.0645 48.822 28.3303 48.7531 28.6123C48.6842 28.8942 48.673 29.1867 48.72 29.4729C48.767 29.7591 48.8713 30.0334 49.027 30.2801C49.1826 30.5267 49.3866 30.7408 49.627 30.91C50.1133 31.2472 50.7154 31.3842 51.3038 31.2917C51.8922 31.1991 52.42 30.8844 52.7739 30.415L56.2298 25.74L59.6858 30.415C60.0396 30.8844 60.5675 31.1991 61.1559 31.2917C61.7443 31.3842 62.3463 31.2472 62.8326 30.91C63.0731 30.7408 63.277 30.5267 63.4327 30.2801C63.5883 30.0334 63.6927 29.7591 63.7397 29.4729C63.7867 29.1867 63.7754 28.8942 63.7065 28.6123C63.6377 28.3303 63.5126 28.0645 63.3384 27.83L59.8543 23.155L65.4737 21.3675C65.7563 21.2804 66.0183 21.1389 66.2441 20.9511C66.4699 20.7634 66.6551 20.5334 66.7886 20.2745C66.9222 20.0156 67.0014 19.7332 67.0217 19.4439C67.042 19.1546 67.0029 18.8643 66.9067 18.59C66.8208 18.3144 66.6791 18.0586 66.49 17.8378C66.3009 17.617 66.0683 17.4357 65.8061 17.3048C65.5439 17.1739 65.2574 17.0961 64.9637 17.0759C64.6701 17.0558 64.3753 17.0937 64.097 17.1875ZM93.8798 18.59C93.7939 18.3144 93.6522 18.0586 93.4631 17.8378C93.274 17.617 93.0414 17.4357 92.7792 17.3048C92.517 17.1739 92.2305 17.0961 91.9368 17.0759C91.6432 17.0558 91.3484 17.0937 91.0701 17.1875L85.4507 18.975V13.2C85.4507 12.6165 85.2139 12.0569 84.7923 11.6444C84.3708 11.2318 83.7991 11 83.2029 11C82.6068 11 82.0351 11.2318 81.6135 11.6444C81.192 12.0569 80.9552 12.6165 80.9552 13.2V18.975L75.3358 17.1875C75.0574 17.0937 74.7627 17.0558 74.469 17.0759C74.1754 17.0961 73.8889 17.1739 73.6267 17.3048C73.3644 17.4357 73.1318 17.617 72.9427 17.8378C72.7536 18.0586 72.6119 18.3144 72.5261 18.59C72.4299 18.8643 72.3908 19.1546 72.4111 19.4439C72.4313 19.7332 72.5106 20.0156 72.6441 20.2745C72.7777 20.5334 72.9628 20.7634 73.1887 20.9511C73.4145 21.1389 73.6764 21.2804 73.959 21.3675L79.5784 23.155L76.0944 27.83C75.9202 28.0645 75.7951 28.3303 75.7262 28.6123C75.6573 28.8942 75.6461 29.1867 75.6931 29.4729C75.7401 29.7591 75.8444 30.0334 76.0001 30.2801C76.1557 30.5267 76.3597 30.7408 76.6001 30.91C77.0864 31.2472 77.6885 31.3842 78.2769 31.2917C78.8653 31.1991 79.3931 30.8844 79.747 30.415L83.2029 25.74L86.6589 30.415C87.0127 30.8844 87.5406 31.1991 88.129 31.2917C88.7174 31.3842 89.3194 31.2472 89.8057 30.91C90.0462 30.7408 90.2501 30.5267 90.4058 30.2801C90.5615 30.0334 90.6658 29.7591 90.7128 29.4729C90.7598 29.1867 90.7485 28.8942 90.6796 28.6123C90.6108 28.3303 90.4857 28.0645 90.3115 27.83L86.8274 23.155L92.4468 21.3675C92.7294 21.2804 92.9914 21.1389 93.2172 20.9511C93.443 20.7634 93.6282 20.5334 93.7617 20.2745C93.8953 20.0156 93.9745 19.7332 93.9948 19.4439C94.0151 19.1546 93.976 18.8643 93.8798 18.59Z" fill="#47CFFF"/>
</svg>
