<svg width="58" height="57" viewBox="0 0 58 57" fill="none" xmlns="http://www.w3.org/2000/svg">
<circle cx="28.8276" cy="28.5" r="28.5" fill="white"/>
<path d="M31.8338 34.6802L29.1338 42.0068C29.0539 42.2221 28.91 42.4077 28.7215 42.5389C28.5329 42.67 28.3088 42.7403 28.0791 42.7403C27.8495 42.7403 27.6253 42.67 27.4368 42.5389C27.2482 42.4077 27.1044 42.2221 27.0244 42.0068L24.3244 34.6802C24.2675 34.5256 24.1776 34.3851 24.0611 34.2686C23.9445 34.152 23.8041 34.0622 23.6494 34.0052L16.3229 31.3052C16.1076 31.2253 15.9219 31.0814 15.7908 30.8929C15.6596 30.7043 15.5894 30.4802 15.5894 30.2505C15.5894 30.0209 15.6596 29.7967 15.7908 29.6082C15.9219 29.4196 16.1076 29.2757 16.3229 29.1958L23.6494 26.4958C23.8041 26.4388 23.9445 26.349 24.0611 26.2324C24.1776 26.1159 24.2675 25.9755 24.3244 25.8208L27.0244 18.4943C27.1044 18.279 27.2482 18.0933 27.4368 17.9622C27.6253 17.831 27.8495 17.7607 28.0791 17.7607C28.3088 17.7607 28.5329 17.831 28.7215 17.9622C28.91 18.0933 29.0539 18.279 29.1338 18.4943L31.8338 25.8208C31.8908 25.9755 31.9807 26.1159 32.0972 26.2324C32.2137 26.349 32.3542 26.4388 32.5088 26.4958L39.8354 29.1958C40.0507 29.2757 40.2364 29.4196 40.3675 29.6082C40.4986 29.7967 40.5689 30.0209 40.5689 30.2505C40.5689 30.4802 40.4986 30.7043 40.3675 30.8929C40.2364 31.0814 40.0507 31.2253 39.8354 31.3052L32.5088 34.0052C32.3542 34.0622 32.2137 34.152 32.0972 34.2686C31.9807 34.3851 31.8908 34.5256 31.8338 34.6802V34.6802Z" stroke="#303030" stroke-width="2" stroke-linecap="round" stroke-linejoin="round"/>
<path d="M37.0776 12.25V19" stroke="#303030" stroke-width="2" stroke-linecap="round" stroke-linejoin="round"/>
<path d="M40.4526 15.625H33.7026" stroke="#303030" stroke-width="2" stroke-linecap="round" stroke-linejoin="round"/>
<path d="M43.8276 20.125V24.625" stroke="#303030" stroke-width="2" stroke-linecap="round" stroke-linejoin="round"/>
<path d="M46.0776 22.375H41.5776" stroke="#303030" stroke-width="2" stroke-linecap="round" stroke-linejoin="round"/>
</svg>
