<svg width="66" height="37" viewBox="0 0 66 37" fill="none" xmlns="http://www.w3.org/2000/svg">
<path d="M49.5 24.7567C49.5 25.4434 50.0604 26.0105 50.7377 25.8972C52.2677 25.6412 53.6919 24.9147 54.8033 23.8033C56.2098 22.3968 57 20.4891 57 18.5C57 16.5109 56.2098 14.6032 54.8033 13.1967C53.6919 12.0853 52.2677 11.3588 50.7377 11.1028C50.0604 10.9895 49.5 11.5566 49.5 12.2433C49.5 12.9299 50.065 13.4714 50.7306 13.6399C51.5992 13.8599 52.4008 14.3107 53.045 14.955C53.9852 15.8952 54.5134 17.1704 54.5134 18.5C54.5134 19.8296 53.9852 21.1048 53.045 22.045C52.4008 22.6893 51.5992 23.1401 50.7306 23.3601C50.065 23.5286 49.5 24.0701 49.5 24.7567Z" fill="#49E4EB"/>
<path d="M51.5 31.1279C51.5 32.1618 52.3417 33.0125 53.367 32.8794C56.5238 32.4696 59.4776 31.0285 61.753 28.753C64.4723 26.0338 66 22.3456 66 18.5C66 14.6544 64.4723 10.9662 61.753 8.24695C59.4776 5.97152 56.5238 4.53045 53.367 4.12064C52.3417 3.98753 51.5 4.83815 51.5 5.87207C51.5 6.90599 52.3444 7.72756 53.3627 7.90662C55.5237 8.2866 57.533 9.32192 59.1055 10.8945C61.1227 12.9116 62.2559 15.6474 62.2559 18.5C62.2559 21.3526 61.1226 24.0884 59.1055 26.1055C57.533 27.6781 55.5237 28.7134 53.3627 29.0934C52.3444 29.2724 51.5 30.094 51.5 31.1279Z" fill="#49E4EB"/>
<path d="M2.43268 11.0888L19.7999 5.98763H19.8211L39.6633 0.13946C40.1686 -0.0119044 40.7023 -0.0405333 41.2206 0.0559114C41.739 0.152356 42.2274 0.37114 42.646 0.694396C43.0701 1.00895 43.414 1.4207 43.6494 1.8957C43.8848 2.3707 44.0049 2.89535 43.9998 3.42639V33.0087C43.9999 33.9108 43.6462 34.7762 43.016 35.416C42.3858 36.0558 41.5304 36.4181 40.6364 36.4237C40.3079 36.4245 39.9807 36.3815 39.6633 36.2957L21.9999 31.0878V33.585C21.9999 34.4907 21.6433 35.3593 21.0086 35.9998C20.3739 36.6402 19.513 37 18.6153 37H11.8461C10.9485 37 10.0876 36.6402 9.45284 35.9998C8.8181 35.3593 8.46151 34.4907 8.46151 33.585V27.1179L2.43268 25.3463C1.73082 25.1352 1.11512 24.7014 0.676899 24.1093C0.238686 23.5172 0.00131226 22.7984 0 22.0594V14.3757C0.00131226 13.6367 0.238686 12.9179 0.676899 12.3258C1.11512 11.7337 1.73082 11.2999 2.43268 11.0888ZM11.8461 33.585H18.6153V30.106L11.8461 28.0997V33.585ZM3.3846 22.0594L10.6615 24.1938L18.6153 26.5416V9.89352L3.3846 14.3757V22.0594Z" fill="#49E4EB"/>
</svg>
