<svg width="57" height="56" viewBox="0 0 57 56" fill="none" xmlns="http://www.w3.org/2000/svg">
<ellipse cx="28.8823" cy="28" rx="28" ry="27.5" fill="#EDEDFF"/>
<path d="M18.9881 38.3942C17.7496 37.1558 18.5708 34.5577 17.9381 33.0365C17.3054 31.5154 14.8823 30.1827 14.8823 28.5C14.8823 26.8173 17.2785 25.5385 17.9381 23.9635C18.5977 22.3885 17.7496 19.8442 18.9881 18.6058C20.2266 17.3673 22.8246 18.1885 24.3458 17.5558C25.8669 16.9231 27.1996 14.5 28.8823 14.5C30.565 14.5 31.8439 16.8962 33.4189 17.5558C34.9939 18.2154 37.5381 17.3673 38.7766 18.6058C40.015 19.8442 39.1939 22.4423 39.8266 23.9635C40.4592 25.4846 42.8823 26.8173 42.8823 28.5C42.8823 30.1827 40.4862 31.4615 39.8266 33.0365C39.1669 34.6115 40.015 37.1558 38.7766 38.3942C37.5381 39.6327 34.94 38.8115 33.4189 39.4442C31.8977 40.0769 30.565 42.5 28.8823 42.5C27.1996 42.5 25.9208 40.1038 24.3458 39.4442C22.7708 38.7846 20.2266 39.6327 18.9881 38.3942Z" stroke="#928EF2" stroke-width="2" stroke-linecap="round" stroke-linejoin="round"/>
<path d="M32.8823 24.5L24.8823 32.5" stroke="#928EF2" stroke-width="2" stroke-linecap="round" stroke-linejoin="round"/>
<path d="M25.8823 26.5C26.4346 26.5 26.8823 26.0523 26.8823 25.5C26.8823 24.9477 26.4346 24.5 25.8823 24.5C25.33 24.5 24.8823 24.9477 24.8823 25.5C24.8823 26.0523 25.33 26.5 25.8823 26.5Z" stroke="#928EF2" stroke-width="2" stroke-linecap="round" stroke-linejoin="round"/>
<path d="M31.8823 32.5C32.4346 32.5 32.8823 32.0523 32.8823 31.5C32.8823 30.9477 32.4346 30.5 31.8823 30.5C31.33 30.5 30.8823 30.9477 30.8823 31.5C30.8823 32.0523 31.33 32.5 31.8823 32.5Z" stroke="#928EF2" stroke-width="2" stroke-linecap="round" stroke-linejoin="round"/>
</svg>
