<svg width="58" height="57" viewBox="0 0 58 57" fill="none" xmlns="http://www.w3.org/2000/svg">
<circle cx="28.9702" cy="28.5" r="28.5" fill="#303030"/>
<path d="M32.6419 32.7458L29.8672 40.3762C29.7992 40.5593 29.6769 40.7172 29.5165 40.8287C29.3562 40.9402 29.1655 41 28.9702 41C28.7749 41 28.5843 40.9402 28.4239 40.8287C28.2636 40.7172 28.1412 40.5593 28.0732 40.3762L25.2985 32.7458C25.2501 32.6142 25.1736 32.4948 25.0745 32.3957C24.9754 32.2966 24.856 32.2201 24.7245 32.1717L17.0941 29.397C16.9109 29.329 16.753 29.2066 16.6415 29.0463C16.53 28.886 16.4702 28.6953 16.4702 28.5C16.4702 28.3047 16.53 28.114 16.6415 27.9537C16.753 27.7934 16.9109 27.671 17.0941 27.603L24.7245 24.8283C24.856 24.7799 24.9754 24.7034 25.0745 24.6043C25.1736 24.5052 25.2501 24.3858 25.2985 24.2542L28.0732 16.6238C28.1412 16.4407 28.2636 16.2828 28.4239 16.1713C28.5843 16.0598 28.7749 16 28.9702 16C29.1655 16 29.3562 16.0598 29.5165 16.1713C29.6769 16.2828 29.7992 16.4407 29.8672 16.6238L32.6419 24.2542C32.6904 24.3858 32.7668 24.5052 32.8659 24.6043C32.965 24.7034 33.0844 24.7799 33.216 24.8283L40.8464 27.603C41.0295 27.671 41.1874 27.7934 41.2989 27.9537C41.4104 28.114 41.4702 28.3047 41.4702 28.5C41.4702 28.6953 41.4104 28.886 41.2989 29.0463C41.1874 29.2066 41.0295 29.329 40.8464 29.397L33.216 32.1717C33.0844 32.2201 32.965 32.2966 32.8659 32.3957C32.7668 32.4948 32.6904 32.6142 32.6419 32.7458V32.7458Z" stroke="white" stroke-width="2" stroke-linecap="round" stroke-linejoin="round"/>
</svg>
