<svg width="261" height="55" viewBox="0 0 261 55" fill="none" xmlns="http://www.w3.org/2000/svg">
<path d="M66.8174 15V43H73.5774V15H66.8174ZM71.0574 20.56H76.5374C77.8974 20.56 78.9641 20.8667 79.7374 21.48C80.5108 22.0933 80.8974 22.9867 80.8974 24.16C80.8974 25.3067 80.5108 26.1867 79.7374 26.8C78.9641 27.4133 77.8974 27.72 76.5374 27.72H71.0574V33.28H76.5374C78.9108 33.28 80.8974 32.92 82.4974 32.2C84.1241 31.4533 85.3508 30.4 86.1774 29.04C87.0041 27.6533 87.4174 26.0267 87.4174 24.16C87.4174 22.24 87.0041 20.6 86.1774 19.24C85.3508 17.88 84.1241 16.84 82.4974 16.12C80.8974 15.3733 78.9108 15 76.5374 15H71.0574V20.56ZM96.318 24.6H90.358V43H96.318V24.6ZM101.638 30.84L104.238 25.68C103.918 25.2 103.451 24.8267 102.838 24.56C102.225 24.2933 101.585 24.16 100.918 24.16C99.9047 24.16 98.9314 24.4933 97.998 25.16C97.0647 25.8267 96.3047 26.7333 95.718 27.88C95.158 29.0267 94.878 30.3333 94.878 31.8L96.318 33.92C96.318 33.04 96.438 32.2933 96.678 31.68C96.918 31.0667 97.2647 30.6 97.718 30.28C98.1714 29.96 98.6914 29.8 99.278 29.8C99.8114 29.8 100.251 29.8933 100.598 30.08C100.971 30.2667 101.318 30.52 101.638 30.84ZM106.443 17.68C106.443 18.64 106.79 19.4267 107.483 20.04C108.177 20.6533 109.003 20.96 109.963 20.96C110.95 20.96 111.777 20.6533 112.443 20.04C113.137 19.4267 113.483 18.64 113.483 17.68C113.483 16.72 113.137 15.9467 112.443 15.36C111.777 14.7467 110.95 14.44 109.963 14.44C109.003 14.44 108.177 14.7467 107.483 15.36C106.79 15.9467 106.443 16.72 106.443 17.68ZM107.043 24.6V43H112.883V24.6H107.043ZM145.938 31.16C145.938 29.6667 145.751 28.4 145.378 27.36C145.005 26.32 144.391 25.5333 143.538 25C142.711 24.44 141.578 24.16 140.138 24.16C138.885 24.16 137.765 24.4267 136.778 24.96C135.791 25.4933 134.965 26.24 134.298 27.2C133.925 26.2133 133.311 25.4667 132.458 24.96C131.605 24.4267 130.458 24.16 129.018 24.16C127.765 24.16 126.685 24.44 125.778 25C124.898 25.56 124.205 26.3333 123.698 27.32V24.6H117.858V43H123.698V31.8C123.698 31.0533 123.805 30.4267 124.018 29.92C124.258 29.4133 124.578 29.04 124.978 28.8C125.405 28.5333 125.885 28.4 126.418 28.4C127.245 28.4 127.831 28.6933 128.178 29.28C128.551 29.84 128.738 30.68 128.738 31.8V43H134.818V31.8C134.818 31.0533 134.925 30.4267 135.138 29.92C135.378 29.4133 135.698 29.04 136.098 28.8C136.525 28.5333 137.005 28.4 137.538 28.4C138.365 28.4 138.951 28.6933 139.298 29.28C139.671 29.84 139.858 30.68 139.858 31.8V43H145.938V31.16ZM160.031 43.4C162.377 43.4 164.364 42.9467 165.991 42.04C167.644 41.1333 168.951 39.7733 169.911 37.96L164.511 36.64C164.057 37.44 163.444 38.04 162.671 38.44C161.924 38.84 161.017 39.04 159.951 39.04C159.017 39.04 158.231 38.84 157.591 38.44C156.951 38.0133 156.471 37.4 156.151 36.6C155.831 35.8 155.671 34.84 155.671 33.72C155.697 32.4933 155.857 31.48 156.151 30.68C156.471 29.8533 156.937 29.24 157.551 28.84C158.164 28.44 158.924 28.24 159.831 28.24C160.551 28.24 161.177 28.4 161.711 28.72C162.244 29.04 162.657 29.4933 162.951 30.08C163.244 30.6667 163.391 31.36 163.391 32.16C163.391 32.3467 163.337 32.5867 163.231 32.88C163.151 33.1467 163.044 33.3733 162.911 33.56L164.351 31.72H152.991V35.08H169.791C169.844 34.8933 169.871 34.6667 169.871 34.4C169.871 34.1067 169.871 33.8133 169.871 33.52C169.871 31.5467 169.484 29.8667 168.711 28.48C167.937 27.0933 166.817 26.04 165.351 25.32C163.884 24.5733 162.084 24.2 159.951 24.2C157.817 24.2 155.964 24.5867 154.391 25.36C152.844 26.1333 151.657 27.24 150.831 28.68C150.004 30.12 149.591 31.8267 149.591 33.8C149.591 35.7467 150.017 37.44 150.871 38.88C151.724 40.32 152.924 41.44 154.471 42.24C156.044 43.0133 157.897 43.4 160.031 43.4ZM179.96 29C179.96 27.2667 180.347 25.7867 181.12 24.56C181.894 23.3333 182.907 22.4 184.16 21.76C185.44 21.12 186.84 20.8 188.36 20.8C189.694 20.8 190.867 20.9733 191.88 21.32C192.894 21.64 193.8 22.0933 194.6 22.68C195.4 23.24 196.107 23.84 196.72 24.48V17.2C195.6 16.32 194.374 15.6267 193.04 15.12C191.707 14.6133 190.014 14.36 187.96 14.36C185.72 14.36 183.654 14.7067 181.76 15.4C179.867 16.0933 178.24 17.0933 176.88 18.4C175.52 19.7067 174.467 21.2533 173.72 23.04C172.974 24.8267 172.6 26.8133 172.6 29C172.6 31.1867 172.974 33.1733 173.72 34.96C174.467 36.7467 175.52 38.2933 176.88 39.6C178.24 40.9067 179.867 41.9067 181.76 42.6C183.654 43.2933 185.72 43.64 187.96 43.64C190.014 43.64 191.707 43.3867 193.04 42.88C194.374 42.3733 195.6 41.68 196.72 40.8V33.52C196.107 34.16 195.4 34.76 194.6 35.32C193.8 35.88 192.894 36.3333 191.88 36.68C190.867 37.0267 189.694 37.2 188.36 37.2C186.84 37.2 185.44 36.88 184.16 36.24C182.907 35.6 181.894 34.6667 181.12 33.44C180.347 32.1867 179.96 30.7067 179.96 29ZM209.247 30.32L217.087 43H225.007L216.247 30.32H209.247ZM202.247 15V43H209.007V15H202.247ZM206.487 20.72H211.967C212.874 20.72 213.647 20.8667 214.287 21.16C214.954 21.4533 215.46 21.88 215.807 22.44C216.154 22.9733 216.327 23.6267 216.327 24.4C216.327 25.1733 216.154 25.84 215.807 26.4C215.46 26.9333 214.954 27.3467 214.287 27.64C213.647 27.9067 212.874 28.04 211.967 28.04H206.487V33.28H212.447C214.847 33.28 216.847 32.8933 218.447 32.12C220.047 31.3467 221.26 30.28 222.087 28.92C222.914 27.5333 223.327 25.9467 223.327 24.16C223.327 22.3467 222.914 20.76 222.087 19.4C221.26 18.0133 220.047 16.9333 218.447 16.16C216.847 15.3867 214.847 15 212.447 15H206.487V20.72ZM235.346 28.72L242.986 40.4L250.666 28.72L252.346 43H259.466L254.946 13.6L242.986 30.68L231.066 13.6L226.546 43H233.666L235.346 28.72Z" fill="#303030"/>
<rect x="0.857422" width="55" height="55" rx="9" fill="#F4F4F4"/>
<rect x="14.8574" y="12" width="13" height="34" rx="3" fill="#263238"/>
<g style="mix-blend-mode:darken">
<rect x="19.8574" y="12" width="25" height="25" rx="12.5" fill="#4BE3EB"/>
</g>
<path d="M27.335 13C27.6607 13.3998 27.8574 13.9188 27.8574 14.4859V36C23.2117 34.3984 19.8574 29.8114 19.8574 24.4026C19.8574 19.1988 22.9623 14.7556 27.335 13Z" fill="#47CFFF"/>
</svg>
