<svg width="261" height="56" viewBox="0 0 261 56" fill="none" xmlns="http://www.w3.org/2000/svg">
<rect x="0.857422" y="0.908203" width="55" height="55" rx="9" fill="#F4F4F4"/>
<rect x="14.8574" y="12.9082" width="13" height="34" rx="3" fill="#263238"/>
<g style="mix-blend-mode:darken">
<rect x="19.8574" y="12.9082" width="25" height="25" rx="12.5" fill="#4BE3EB"/>
</g>
<path d="M27.335 13.9082C27.6607 14.308 27.8574 14.827 27.8574 15.3941V36.9082C23.2117 35.3066 19.8574 30.7196 19.8574 25.3108C19.8574 20.107 22.9623 15.6638 27.335 13.9082Z" fill="#47CFFF"/>
<path d="M66.8174 14.4082V42.4082H73.5774V14.4082H66.8174ZM71.0574 19.9682H76.5374C77.8974 19.9682 78.9641 20.2749 79.7374 20.8882C80.5108 21.5015 80.8974 22.3949 80.8974 23.5682C80.8974 24.7149 80.5108 25.5949 79.7374 26.2082C78.9641 26.8215 77.8974 27.1282 76.5374 27.1282H71.0574V32.6882H76.5374C78.9108 32.6882 80.8974 32.3282 82.4974 31.6082C84.1241 30.8615 85.3508 29.8082 86.1774 28.4482C87.0041 27.0615 87.4174 25.4349 87.4174 23.5682C87.4174 21.6482 87.0041 20.0082 86.1774 18.6482C85.3508 17.2882 84.1241 16.2482 82.4974 15.5282C80.8974 14.7815 78.9108 14.4082 76.5374 14.4082H71.0574V19.9682ZM96.318 24.0082H90.358V42.4082H96.318V24.0082ZM101.638 30.2482L104.238 25.0882C103.918 24.6082 103.451 24.2349 102.838 23.9682C102.225 23.7015 101.585 23.5682 100.918 23.5682C99.9047 23.5682 98.9314 23.9015 97.998 24.5682C97.0647 25.2349 96.3047 26.1415 95.718 27.2882C95.158 28.4349 94.878 29.7415 94.878 31.2082L96.318 33.3282C96.318 32.4482 96.438 31.7015 96.678 31.0882C96.918 30.4749 97.2647 30.0082 97.718 29.6882C98.1714 29.3682 98.6914 29.2082 99.278 29.2082C99.8114 29.2082 100.251 29.3015 100.598 29.4882C100.971 29.6749 101.318 29.9282 101.638 30.2482ZM106.443 17.0882C106.443 18.0482 106.79 18.8349 107.483 19.4482C108.177 20.0615 109.003 20.3682 109.963 20.3682C110.95 20.3682 111.777 20.0615 112.443 19.4482C113.137 18.8349 113.483 18.0482 113.483 17.0882C113.483 16.1282 113.137 15.3549 112.443 14.7682C111.777 14.1549 110.95 13.8482 109.963 13.8482C109.003 13.8482 108.177 14.1549 107.483 14.7682C106.79 15.3549 106.443 16.1282 106.443 17.0882ZM107.043 24.0082V42.4082H112.883V24.0082H107.043ZM145.938 30.5682C145.938 29.0749 145.751 27.8082 145.378 26.7682C145.005 25.7282 144.391 24.9415 143.538 24.4082C142.711 23.8482 141.578 23.5682 140.138 23.5682C138.885 23.5682 137.765 23.8349 136.778 24.3682C135.791 24.9015 134.965 25.6482 134.298 26.6082C133.925 25.6215 133.311 24.8749 132.458 24.3682C131.605 23.8349 130.458 23.5682 129.018 23.5682C127.765 23.5682 126.685 23.8482 125.778 24.4082C124.898 24.9682 124.205 25.7415 123.698 26.7282V24.0082H117.858V42.4082H123.698V31.2082C123.698 30.4615 123.805 29.8349 124.018 29.3282C124.258 28.8215 124.578 28.4482 124.978 28.2082C125.405 27.9415 125.885 27.8082 126.418 27.8082C127.245 27.8082 127.831 28.1015 128.178 28.6882C128.551 29.2482 128.738 30.0882 128.738 31.2082V42.4082H134.818V31.2082C134.818 30.4615 134.925 29.8349 135.138 29.3282C135.378 28.8215 135.698 28.4482 136.098 28.2082C136.525 27.9415 137.005 27.8082 137.538 27.8082C138.365 27.8082 138.951 28.1015 139.298 28.6882C139.671 29.2482 139.858 30.0882 139.858 31.2082V42.4082H145.938V30.5682ZM160.031 42.8082C162.377 42.8082 164.364 42.3549 165.991 41.4482C167.644 40.5415 168.951 39.1815 169.911 37.3682L164.511 36.0482C164.057 36.8482 163.444 37.4482 162.671 37.8482C161.924 38.2482 161.017 38.4482 159.951 38.4482C159.017 38.4482 158.231 38.2482 157.591 37.8482C156.951 37.4215 156.471 36.8082 156.151 36.0082C155.831 35.2082 155.671 34.2482 155.671 33.1282C155.697 31.9015 155.857 30.8882 156.151 30.0882C156.471 29.2615 156.937 28.6482 157.551 28.2482C158.164 27.8482 158.924 27.6482 159.831 27.6482C160.551 27.6482 161.177 27.8082 161.711 28.1282C162.244 28.4482 162.657 28.9015 162.951 29.4882C163.244 30.0749 163.391 30.7682 163.391 31.5682C163.391 31.7549 163.337 31.9949 163.231 32.2882C163.151 32.5549 163.044 32.7815 162.911 32.9682L164.351 31.1282H152.991V34.4882H169.791C169.844 34.3015 169.871 34.0749 169.871 33.8082C169.871 33.5149 169.871 33.2215 169.871 32.9282C169.871 30.9549 169.484 29.2749 168.711 27.8882C167.937 26.5015 166.817 25.4482 165.351 24.7282C163.884 23.9815 162.084 23.6082 159.951 23.6082C157.817 23.6082 155.964 23.9949 154.391 24.7682C152.844 25.5415 151.657 26.6482 150.831 28.0882C150.004 29.5282 149.591 31.2349 149.591 33.2082C149.591 35.1549 150.017 36.8482 150.871 38.2882C151.724 39.7282 152.924 40.8482 154.471 41.6482C156.044 42.4215 157.897 42.8082 160.031 42.8082ZM179.96 28.4082C179.96 26.6749 180.347 25.1949 181.12 23.9682C181.894 22.7415 182.907 21.8082 184.16 21.1682C185.44 20.5282 186.84 20.2082 188.36 20.2082C189.694 20.2082 190.867 20.3815 191.88 20.7282C192.894 21.0482 193.8 21.5015 194.6 22.0882C195.4 22.6482 196.107 23.2482 196.72 23.8882V16.6082C195.6 15.7282 194.374 15.0349 193.04 14.5282C191.707 14.0215 190.014 13.7682 187.96 13.7682C185.72 13.7682 183.654 14.1149 181.76 14.8082C179.867 15.5015 178.24 16.5015 176.88 17.8082C175.52 19.1149 174.467 20.6615 173.72 22.4482C172.974 24.2349 172.6 26.2215 172.6 28.4082C172.6 30.5949 172.974 32.5815 173.72 34.3682C174.467 36.1549 175.52 37.7015 176.88 39.0082C178.24 40.3149 179.867 41.3149 181.76 42.0082C183.654 42.7015 185.72 43.0482 187.96 43.0482C190.014 43.0482 191.707 42.7949 193.04 42.2882C194.374 41.7815 195.6 41.0882 196.72 40.2082V32.9282C196.107 33.5682 195.4 34.1682 194.6 34.7282C193.8 35.2882 192.894 35.7415 191.88 36.0882C190.867 36.4349 189.694 36.6082 188.36 36.6082C186.84 36.6082 185.44 36.2882 184.16 35.6482C182.907 35.0082 181.894 34.0749 181.12 32.8482C180.347 31.5949 179.96 30.1149 179.96 28.4082ZM209.247 29.7282L217.087 42.4082H225.007L216.247 29.7282H209.247ZM202.247 14.4082V42.4082H209.007V14.4082H202.247ZM206.487 20.1282H211.967C212.874 20.1282 213.647 20.2749 214.287 20.5682C214.954 20.8615 215.46 21.2882 215.807 21.8482C216.154 22.3815 216.327 23.0349 216.327 23.8082C216.327 24.5815 216.154 25.2482 215.807 25.8082C215.46 26.3415 214.954 26.7549 214.287 27.0482C213.647 27.3149 212.874 27.4482 211.967 27.4482H206.487V32.6882H212.447C214.847 32.6882 216.847 32.3015 218.447 31.5282C220.047 30.7549 221.26 29.6882 222.087 28.3282C222.914 26.9415 223.327 25.3549 223.327 23.5682C223.327 21.7549 222.914 20.1682 222.087 18.8082C221.26 17.4215 220.047 16.3415 218.447 15.5682C216.847 14.7949 214.847 14.4082 212.447 14.4082H206.487V20.1282ZM235.346 28.1282L242.986 39.8082L250.666 28.1282L252.346 42.4082H259.466L254.946 13.0082L242.986 30.0882L231.066 13.0082L226.546 42.4082H233.666L235.346 28.1282Z" fill="white"/>
</svg>
